<svg width="45" height="47" viewBox="0 0 45 47" fill="none" xmlns="http://www.w3.org/2000/svg">
<circle cx="22.5" cy="23.5" r="22.5" fill="#0156FF"/>
<g clip-path="url(#clip0_212_13909)">
<path d="M24.7474 31.4877L22.8385 33.4105L20.9296 31.4877C17.1777 30.6149 14.377 27.2261 14.377 23.1828C14.377 18.478 18.1677 14.6597 22.8385 14.6597C27.5093 14.6597 31.3 18.478 31.3 23.1828C31.3 27.2261 28.4993 30.6149 24.7474 31.4877ZM17.781 26.0943C19.0232 27.9608 20.8881 29.1489 22.9739 29.1489C25.0588 29.1489 26.9246 27.9617 28.1659 26.0943C26.7577 24.7686 24.9014 24.0324 22.9739 24.0351C21.0461 24.0321 19.1895 24.7684 17.781 26.0943ZM22.8385 22.3305C23.5117 22.3305 24.1574 22.0611 24.6335 21.5816C25.1095 21.102 25.377 20.4517 25.377 19.7735C25.377 19.0954 25.1095 18.445 24.6335 17.9655C24.1574 17.486 23.5117 17.2166 22.8385 17.2166C22.1653 17.2166 21.5196 17.486 21.0435 17.9655C20.5675 18.445 20.3 19.0954 20.3 19.7735C20.3 20.4517 20.5675 21.102 21.0435 21.5816C21.5196 22.0611 22.1653 22.3305 22.8385 22.3305Z" fill="white"/>
</g>
<defs>
<clipPath id="clip0_212_13909">
<rect width="20.3077" height="20.4554" fill="white" transform="translate(12.6846 12.9551)"/>
</clipPath>
</defs>
</svg>
