<?xml version="1.0" encoding="UTF-8"?>
<svg xmlns="http://www.w3.org/2000/svg" xmlns:xlink="http://www.w3.org/1999/xlink" viewBox="0 0 500 500" width="500px" height="500px">
<g id="surface59860694">
<path style=" stroke:none;fill-rule:nonzero;fill:rgb(95.686275%,94.117647%,94.509804%);fill-opacity:1;" d="M 96.699219 9.101562 C 48.394531 9.101562 9.101562 48.394531 9.101562 96.699219 L 9.101562 403.300781 C 9.101562 451.605469 48.394531 490.898438 96.699219 490.898438 L 403.300781 490.898438 C 451.605469 490.898438 490.898438 451.605469 490.898438 403.300781 L 490.898438 96.699219 C 490.898438 48.394531 451.605469 9.101562 403.300781 9.101562 Z M 96.699219 23.699219 L 403.300781 23.699219 C 443.550781 23.699219 476.300781 56.449219 476.300781 96.699219 L 476.300781 403.300781 C 476.300781 443.550781 443.550781 476.300781 403.300781 476.300781 L 96.699219 476.300781 C 56.449219 476.300781 23.699219 443.550781 23.699219 403.300781 L 23.699219 96.699219 C 23.699219 56.449219 56.449219 23.699219 96.699219 23.699219 Z M 136.851562 52.898438 C 90.5625 52.898438 52.898438 90.5625 52.898438 136.851562 L 52.898438 363.148438 C 52.898438 409.4375 90.5625 447.101562 136.851562 447.101562 L 363.148438 447.101562 C 409.4375 447.101562 447.101562 409.4375 447.101562 363.148438 L 447.101562 253.648438 C 447.101562 251.636719 445.464844 250 443.449219 250 C 441.433594 250 439.800781 251.636719 439.800781 253.648438 L 439.800781 363.148438 C 439.800781 405.417969 405.417969 439.800781 363.148438 439.800781 L 319.179688 439.800781 L 319.179688 378.875 C 319.179688 362.722656 311.609375 347.585938 299.148438 337.601562 L 304.207031 337.601562 C 356.570312 337.601562 399.164062 295.160156 399.164062 242.984375 C 399.164062 219.355469 390.40625 196.789062 374.457031 179.238281 C 376.867188 164.171875 376.90625 141.550781 370.078125 121.09375 C 369.574219 119.605469 368.183594 118.601562 366.613281 118.601562 C 337.042969 118.601562 312.074219 138.230469 301.65625 147.800781 L 211.074219 147.800781 C 185.527344 123.679688 162.492188 118.601562 147.628906 118.601562 C 146.058594 118.601562 144.667969 119.605469 144.164062 121.09375 C 138.558594 137.890625 136.09375 157.996094 137.621094 174.078125 C 118.648438 191.992188 107.808594 216.996094 107.808594 243 C 107.808594 295.164062 150.394531 337.601562 202.75 337.601562 L 207.625 337.601562 C 197.984375 345.132812 191.078125 355.492188 188.433594 366.769531 C 173.855469 366.539062 157.144531 364.378906 149.339844 352.671875 C 131.636719 326.097656 122.707031 324.113281 111.113281 324.113281 C 106.273438 324.113281 102.632812 326.226562 101.105469 329.914062 C 98.960938 335.082031 101.464844 341.964844 107.808594 348.308594 C 116.363281 356.871094 116.371094 356.859375 125.085938 374.285156 C 130.359375 384.828125 145.460938 402.300781 187.777344 403.257812 L 187.777344 439.800781 L 136.851562 439.800781 C 94.582031 439.800781 60.199219 405.417969 60.199219 363.148438 L 60.199219 136.851562 C 60.199219 94.582031 94.582031 60.199219 136.851562 60.199219 L 363.148438 60.199219 C 365.164062 60.199219 366.800781 58.566406 366.800781 56.550781 C 366.800781 54.535156 365.164062 52.898438 363.148438 52.898438 Z M 150.265625 125.957031 C 163.902344 126.570312 183.988281 132.109375 206.457031 153.472656 L 207.125 154.117188 C 207.804688 154.75 208.695312 155.101562 209.621094 155.101562 L 303.097656 155.101562 C 304.023438 155.101562 304.996094 154.679688 305.675781 154.046875 C 314.378906 145.847656 337.097656 127.140625 363.976562 125.957031 C 369.808594 145.265625 369.386719 166.230469 366.957031 179.765625 C 366.753906 180.910156 367.101562 182.078125 367.898438 182.917969 C 383.34375 199.285156 391.867188 220.617188 391.867188 242.984375 C 391.867188 291.128906 352.542969 330.300781 304.207031 330.300781 L 286.328125 330.300781 C 284.613281 330.300781 283.128906 331.492188 282.765625 333.164062 C 282.390625 334.835938 283.242188 336.542969 284.804688 337.257812 C 301.242188 344.796875 311.878906 361.128906 311.878906 378.875 L 311.878906 439.800781 L 195.078125 439.800781 L 195.078125 399.648438 C 195.078125 397.636719 193.445312 396 191.429688 396 C 160.90625 396 139.660156 387.125 131.617188 371.019531 C 122.542969 352.878906 122.363281 352.542969 112.96875 343.144531 C 108.070312 338.242188 107.222656 334.214844 107.851562 332.710938 C 108.308594 331.578125 110.09375 331.414062 111.113281 331.414062 C 119.3125 331.414062 126.394531 331.410156 143.265625 356.71875 C 153.539062 372.117188 174.398438 374.101562 191.429688 374.101562 C 193.21875 374.101562 194.738281 372.800781 195.023438 371.035156 C 197.34375 356.808594 207.730469 343.871094 222.140625 337.273438 C 223.703125 336.558594 224.566406 334.851562 224.195312 333.179688 C 223.828125 331.5 222.34375 330.300781 220.628906 330.300781 L 202.765625 330.300781 C 154.4375 330.300781 115.105469 291.128906 115.105469 242.984375 C 115.105469 218.421875 125.601562 194.804688 143.894531 178.199219 C 144.761719 177.402344 145.214844 176.242188 145.078125 175.074219 C 143.40625 160.714844 145.433594 141.738281 150.265625 125.957031 Z M 443.449219 133.199219 C 441.433594 133.199219 439.800781 134.835938 439.800781 136.851562 L 439.800781 162.398438 C 439.800781 164.414062 441.433594 166.050781 443.449219 166.050781 C 445.464844 166.050781 447.101562 164.414062 447.101562 162.398438 L 447.101562 136.851562 C 447.101562 134.835938 445.464844 133.199219 443.449219 133.199219 Z M 443.449219 184.300781 C 441.433594 184.300781 439.800781 185.933594 439.800781 187.949219 L 439.800781 235.398438 C 439.800781 237.414062 441.433594 239.050781 443.449219 239.050781 C 445.464844 239.050781 447.101562 237.414062 447.101562 235.398438 L 447.101562 187.949219 C 447.101562 185.933594 445.464844 184.300781 443.449219 184.300781 Z M 443.449219 184.300781 "/>
</g>
</svg>
