<?xml version="1.0" encoding="UTF-8"?>
<svg xmlns="http://www.w3.org/2000/svg" xmlns:xlink="http://www.w3.org/1999/xlink" viewBox="0 0 75 75" width="75px" height="75px">
<g id="surface76714998">
<path style=" stroke:none;fill-rule:nonzero;fill:rgb(95.294118%,94.117647%,94.509804%);fill-opacity:1;" d="M 37.5 3.480469 C 38.417969 3.480469 39.277344 3.835938 39.921875 4.484375 L 70.515625 35.078125 C 71.855469 36.410156 71.855469 38.589844 70.515625 39.921875 L 39.921875 70.515625 C 39.277344 71.164062 38.417969 71.519531 37.5 71.519531 C 36.582031 71.519531 35.722656 71.164062 35.078125 70.515625 L 4.484375 39.921875 C 3.144531 38.589844 3.144531 36.410156 4.484375 35.078125 L 24.445312 15.117188 L 28.128906 18.800781 C 27.242188 22.089844 28.132812 25.679688 30.628906 28.171875 C 31.222656 28.765625 31.898438 29.28125 32.640625 29.703125 L 32.640625 45.300781 C 29.691406 47.003906 27.78125 50.175781 27.78125 53.699219 C 27.78125 59.058594 32.140625 63.421875 37.5 63.421875 C 42.859375 63.421875 47.21875 59.058594 47.21875 53.699219 C 47.21875 50.175781 45.308594 47.003906 42.359375 45.300781 L 42.359375 33.03125 L 44.328125 35 C 43.441406 38.289062 44.335938 41.878906 46.828125 44.371094 C 48.664062 46.207031 51.105469 47.21875 53.699219 47.21875 C 56.292969 47.21875 58.738281 46.207031 60.574219 44.371094 C 64.363281 40.582031 64.363281 34.417969 60.574219 30.628906 C 58.742188 28.800781 56.320312 27.792969 53.730469 27.792969 C 52.878906 27.792969 52.023438 27.90625 51.199219 28.128906 L 46.871094 23.800781 C 47.757812 20.507812 46.867188 16.921875 44.371094 14.425781 C 42.542969 12.597656 40.121094 11.59375 37.53125 11.59375 C 36.675781 11.59375 35.824219 11.707031 35 11.929688 L 31.316406 8.246094 L 35.078125 4.484375 C 35.722656 3.835938 36.582031 3.480469 37.5 3.480469 M 37.5 0.238281 C 35.792969 0.238281 34.082031 0.890625 32.785156 2.195312 L 26.734375 8.246094 L 34.222656 15.730469 C 35.242188 15.136719 36.386719 14.832031 37.53125 14.832031 C 39.175781 14.832031 40.820312 15.460938 42.082031 16.71875 C 44.214844 18.851562 44.523438 22.089844 43.0625 24.570312 L 50.421875 31.929688 C 51.441406 31.335938 52.585938 31.03125 53.730469 31.03125 C 55.378906 31.03125 57.023438 31.660156 58.28125 32.917969 C 60.8125 35.449219 60.8125 39.550781 58.28125 42.082031 C 57.015625 43.347656 55.359375 43.980469 53.699219 43.980469 C 52.042969 43.980469 50.382812 43.347656 49.117188 42.082031 C 46.984375 39.949219 46.675781 36.707031 48.136719 34.222656 L 40.777344 26.863281 C 40.253906 27.171875 39.695312 27.398438 39.121094 27.546875 L 39.121094 47.449219 C 41.910156 48.167969 43.980469 50.679688 43.980469 53.699219 C 43.980469 57.28125 41.082031 60.179688 37.5 60.179688 C 33.925781 60.179688 31.019531 57.28125 31.019531 53.699219 C 31.019531 50.679688 33.089844 48.167969 35.878906 47.449219 L 35.878906 27.546875 C 34.796875 27.265625 33.765625 26.730469 32.917969 25.882812 C 30.785156 23.75 30.476562 20.507812 31.9375 18.027344 L 24.445312 10.535156 L 2.195312 32.785156 C -0.410156 35.386719 -0.410156 39.613281 2.195312 42.214844 L 32.785156 72.804688 C 34.082031 74.109375 35.792969 74.761719 37.5 74.761719 C 39.207031 74.761719 40.917969 74.109375 42.214844 72.804688 L 72.804688 42.214844 C 75.410156 39.613281 75.410156 35.386719 72.804688 32.785156 L 42.214844 2.195312 C 40.917969 0.890625 39.207031 0.238281 37.5 0.238281 Z M 37.5 0.238281 "/>
</g>
</svg>
