<?xml version="1.0" encoding="UTF-8"?>
<svg xmlns="http://www.w3.org/2000/svg" xmlns:xlink="http://www.w3.org/1999/xlink" viewBox="0 0 50 50" width="50px" height="50px">
<g id="surface77072847">
<path style=" stroke:none;fill-rule:nonzero;fill:rgb(95.294118%,94.117647%,94.509804%);fill-opacity:1;" d="M 25 2.320312 C 25.613281 2.320312 26.183594 2.554688 26.617188 2.992188 L 47.007812 23.382812 C 47.902344 24.273438 47.902344 25.726562 47.007812 26.617188 L 26.617188 47.007812 C 26.183594 47.445312 25.613281 47.679688 25 47.679688 C 24.386719 47.679688 23.816406 47.445312 23.382812 47.007812 L 2.992188 26.617188 C 2.097656 25.726562 2.097656 24.273438 2.992188 23.382812 L 16.296875 10.078125 L 18.753906 12.535156 C 18.160156 14.726562 18.757812 17.121094 20.417969 18.78125 C 20.816406 19.179688 21.265625 19.519531 21.761719 19.800781 L 21.761719 30.203125 C 19.792969 31.335938 18.519531 33.449219 18.519531 35.800781 C 18.519531 39.375 21.425781 42.28125 25 42.28125 C 28.574219 42.28125 31.480469 39.375 31.480469 35.800781 C 31.480469 33.449219 30.207031 31.335938 28.238281 30.203125 L 28.238281 22.023438 L 29.550781 23.332031 C 28.960938 25.527344 29.554688 27.917969 31.21875 29.582031 C 32.441406 30.804688 34.070312 31.480469 35.800781 31.480469 C 37.53125 31.480469 39.15625 30.804688 40.382812 29.582031 C 42.910156 27.054688 42.910156 22.945312 40.382812 20.417969 C 39.164062 19.199219 37.546875 18.527344 35.820312 18.527344 C 35.25 18.527344 34.683594 18.605469 34.132812 18.753906 L 31.246094 15.867188 C 31.839844 13.671875 31.242188 11.28125 29.582031 9.617188 C 28.363281 8.398438 26.746094 7.726562 25.019531 7.726562 C 24.453125 7.726562 23.882812 7.804688 23.332031 7.953125 L 20.878906 5.496094 L 23.382812 2.992188 C 23.816406 2.554688 24.386719 2.320312 25 2.320312 M 25 0.160156 C 23.859375 0.160156 22.722656 0.59375 21.855469 1.464844 L 17.824219 5.496094 L 22.816406 10.488281 C 23.492188 10.089844 24.257812 9.886719 25.019531 9.886719 C 26.117188 9.886719 27.214844 10.304688 28.054688 11.144531 C 29.476562 12.566406 29.683594 14.726562 28.707031 16.382812 L 33.613281 21.289062 C 34.292969 20.890625 35.058594 20.6875 35.820312 20.6875 C 36.917969 20.6875 38.015625 21.105469 38.855469 21.945312 C 40.542969 23.632812 40.542969 26.367188 38.855469 28.054688 C 38.011719 28.898438 36.90625 29.320312 35.800781 29.320312 C 34.695312 29.320312 33.589844 28.898438 32.746094 28.054688 C 31.324219 26.632812 31.117188 24.472656 32.089844 22.816406 L 27.183594 17.910156 C 26.835938 18.113281 26.464844 18.265625 26.078125 18.363281 L 26.078125 31.632812 C 27.941406 32.113281 29.320312 33.789062 29.320312 35.800781 C 29.320312 38.1875 27.386719 40.121094 25 40.121094 C 22.617188 40.121094 20.679688 38.1875 20.679688 35.800781 C 20.679688 33.789062 22.058594 32.113281 23.921875 31.632812 L 23.921875 18.363281 C 23.199219 18.179688 22.511719 17.820312 21.945312 17.253906 C 20.523438 15.832031 20.316406 13.671875 21.292969 12.019531 L 16.296875 7.023438 L 1.464844 21.855469 C -0.273438 23.589844 -0.273438 26.410156 1.464844 28.144531 L 21.855469 48.535156 C 22.722656 49.40625 23.859375 49.839844 25 49.839844 C 26.140625 49.839844 27.277344 49.40625 28.144531 48.535156 L 48.535156 28.144531 C 50.273438 26.410156 50.273438 23.589844 48.535156 21.855469 L 28.144531 1.464844 C 27.277344 0.59375 26.140625 0.160156 25 0.160156 Z M 25 0.160156 "/>
</g>
</svg>
