<svg width="105" height="110" viewBox="0 0 105 110" fill="none" xmlns="http://www.w3.org/2000/svg">
<path d="M21.6896 5.53537C42.7372 4.99907 63.1432 20.4209 75.4368 38.2488C81.4961 47.0347 85.5934 57.9649 82.1976 67.8961C80.7285 72.1942 77.9244 75.9756 73.8416 77.8463C71.3593 78.9864 68.0795 79.5653 65.6131 77.468C61.8618 74.2817 64.8292 70.078 68.7012 70.1818C75.9025 70.3806 77.9816 81.3697 78.3045 86.8001C78.6891 93.1674 77.463 99.3277 75.8166 105.246C75.3477 106.934 78.0412 107.67 78.5018 105.987C80.4318 98.8856 81.7339 91.3442 80.5977 83.7013C79.7733 78.1548 77.6339 71.4814 72.2694 68.5994C68.3483 66.4939 62.7635 67.7945 61.4091 72.1093C59.9852 76.6498 64.3297 80.927 68.5769 81.5274C80.4091 83.1893 86.5818 68.8015 86.0291 58.7008C85.2521 44.6436 74.66 31.6472 64.5304 22.3838C52.4523 11.3365 37.2419 3.47562 21.5742 4.27948C20.8024 4.31879 20.8992 5.55473 21.6896 5.53537Z" fill="#777ABD"/>
<path d="M71.2451 91.6843C74.0938 91.4868 75.2074 100.938 75.5118 102.493C75.7738 103.826 76.0435 105.41 77.6386 105.775C79.3414 106.162 80.7645 104.1 81.7424 103.161C84.1568 100.839 86.6559 98.586 88.9566 96.1503C90.0834 94.9598 88.1721 93.2314 86.9997 94.2592C84.9545 96.0522 83.0426 98.017 81.0912 99.9109C80.6591 100.332 78.7125 102.828 78.0354 102.491C77.8844 102.419 77.6635 100.016 77.6341 99.888C76.9737 96.8156 75.3135 91.2828 72.1099 89.8735C71.6885 89.6897 71.3134 89.7063 70.999 90.0099C70.8717 90.1399 70.7386 90.2609 70.6113 90.3909C70.1805 90.8051 70.6193 91.7294 71.2451 91.6843Z" fill="#777ABD"/>
<path d="M19.9858 4.53221C18.7957 4.18898 17.8913 5.59471 18.6449 6.65627C18.7798 6.84939 19.0148 7.01819 19.2461 7.00036C20.3159 6.90213 21.1766 6.32309 21.5173 5.27398C21.6109 4.99546 21.6155 4.59594 21.332 4.36924C19.598 2.9852 17.7759 4.62759 17.0669 6.17632C16.7178 6.94104 16.5636 7.89315 17.1551 8.66506C17.8541 9.57795 18.9832 9.51837 19.8271 9.07574C21.3685 8.26887 23.0004 6.03953 21.4711 4.2072C19.9777 2.42188 17.6281 3.9262 17.0531 5.54903C16.4478 7.25998 17.3518 9.29833 19.247 9.73221C20.9458 10.1119 22.6793 8.92748 22.2243 7.01301C21.7472 4.97371 19.2686 3.97062 17.9349 5.47317C17.3834 6.09296 17.1329 7.0482 17.4055 7.91764C17.7288 8.95698 18.7158 9.61531 19.6622 9.13416C20.2286 8.84509 20.7237 8.33592 21.221 7.93869C21.6427 7.59481 22.0681 7.22973 22.2074 6.65207C22.4255 5.75471 21.8999 4.85997 21.0925 4.39222C20.2314 3.89483 19.2213 3.90561 18.4944 4.47701C17.5519 5.22646 17.3304 6.51625 17.2214 7.71095C17.1774 8.16644 17.4332 8.75665 17.9471 8.84649C20.025 9.20459 22.0315 7.85056 22.1429 5.64702C22.1659 5.18572 21.9488 4.58399 21.4056 4.49348C19.4119 4.15861 18.0662 6.18484 19.0495 8.06692C19.6266 9.16887 21.118 8.22942 20.5466 7.13648C20.3826 6.81658 20.7341 6.24555 21.0841 6.30503C20.8365 5.9175 20.5946 5.53898 20.3469 5.15146C20.2963 6.26578 19.4437 7.25527 18.2636 7.06324C18.5055 7.44175 18.7474 7.82027 18.9893 8.19877C19.0462 7.54642 19.1156 5.6208 20.1284 5.8854C20.5295 5.98867 20.4678 6.04588 20.3033 6.26772C19.9992 6.69598 19.3235 7.10335 18.9081 7.41185C18.7688 7.49216 18.8096 7.51083 19.0377 7.46984C19.0119 7.36623 19.0142 7.2704 19.0445 7.18228C19.1606 6.98421 19.1703 6.76416 19.3878 6.61636C19.7721 6.35866 20.2373 6.59835 20.4634 7.02446C20.9169 7.8696 20.0109 8.20604 19.3622 8.00479C18.475 7.73771 18.3767 6.71592 18.7343 6.02778C18.9359 5.63804 19.2994 5.24842 19.7473 5.17157C20.3467 5.06975 20.4953 5.60067 20.3417 6.09275C20.1882 6.58482 19.6821 7.03157 19.2998 7.3195C18.9697 7.56244 18.2221 8.00194 18.4399 7.23068C18.6324 6.51924 19.6872 4.88778 20.5525 5.52736C20.4185 5.24545 20.2833 4.97062 20.1494 4.68871C19.9865 5.27471 19.5233 5.56258 18.9545 5.65799C19.2078 5.765 19.4681 5.87395 19.7226 5.97388C19.5961 5.85732 19.6112 5.7724 19.7703 5.70497C20.5343 5.87866 20.7422 4.74835 19.9858 4.53221Z" fill="#777ABD"/>
</svg>
