<svg width="104" height="103" viewBox="0 0 104 103" fill="none" xmlns="http://www.w3.org/2000/svg">
<path d="M51.3512 6.4722C62.0809 5.34404 72.1209 10.7349 76.9528 19.164C79.2283 23.1341 80.418 27.5998 80.6615 32.1198C80.9187 36.9344 80.4872 42.7973 77.0426 46.8274C75.3203 48.8424 72.8975 50.1016 70.1171 50.0731C67.6139 50.0458 64.1793 48.5174 65.0052 45.7415C65.9901 42.4225 70.5243 44.3752 72.2305 45.8982C74.224 47.6744 75.3269 50.2175 75.6266 52.7481C76.7727 62.3525 68.1661 73.0562 60.0242 78.6492C50.2551 85.3628 37.8257 86.4096 27.4382 81.348C25.8661 80.585 24.2837 82.5847 25.7961 83.5313C36.9387 90.48 52.8171 87.549 63.1482 79.8701C72.8355 72.6679 83.844 56.9318 76.1512 46.0694C73.7697 42.7143 67.2781 38.8805 63.2656 42.9737C59.4085 46.9076 63.8965 51.9076 68.3955 52.5612C83.4996 54.7736 84.4368 34.7592 82.1782 26.0936C78.8603 13.3671 66.3527 2.92511 51.1278 5.31893C50.2973 5.45634 50.5404 6.55497 51.3512 6.4722Z" fill="#A56A43"/>
<path d="M31.3132 89.9747C27.374 85.3995 23.4077 80.8413 19.37 76.3401C19.1026 76.9998 18.8401 77.6626 18.5727 78.3223C25.0275 77.7467 31.4783 77.7562 37.883 78.312C37.5311 77.6388 37.1807 76.9733 36.8288 76.3001C34.7072 79.539 32.8124 82.8948 31.381 86.4237C31.3009 86.6157 30.2961 88.7597 30.4662 88.8758C31.7956 89.0576 32.1307 88.8593 31.4764 88.284C31.1527 87.8682 30.8304 87.4599 30.5067 87.0441C29.2181 85.3914 27.9212 83.7403 26.6326 82.0876C25.9428 82.786 25.2578 83.4874 24.568 84.1858C25.9621 85.1278 27.3576 86.0773 28.7517 87.0193C30.3322 88.0938 31.9407 85.7936 30.513 84.6777C27.9234 82.6534 25.4586 80.5107 23.0998 78.2652C22.5335 79.0181 21.9706 79.7665 21.4042 80.5195C23.8998 81.5658 26.3955 82.612 28.8995 83.6567C30.5632 84.3542 31.4703 82.0644 30.2883 81.1637C27.7125 79.1877 24.2809 78.8248 21.4859 77.1971C21.1463 78.067 20.8052 78.9293 20.4656 79.7991C24.969 80.0682 29.4722 80.2236 33.9821 80.4365C35.7704 80.5216 36.5206 77.8699 34.6726 77.5218C31.5185 76.9325 28.4093 76.9112 25.1841 77.3672C25.3833 78.3955 25.584 79.4314 25.7831 80.4596C27.282 80.2164 28.7739 80.049 30.2867 80.0344C30.9498 80.0276 31.609 80.045 32.2725 80.0852C33.5401 80.3966 33.6203 80.1379 32.5047 79.3107C31.1995 79.0967 28.2968 82.8321 27.619 83.7047C28.6468 84.3254 29.6796 84.949 30.7075 85.5697C31.922 83.993 33.1317 82.4133 34.3364 80.8307C35.8085 78.9021 32.8087 77.271 31.1987 78.936C29.1449 81.0675 25.8826 87.677 29.715 89.5038C30.4848 89.8685 31.3438 89.8864 32.063 89.3392C34.6807 87.3613 36.5354 82.3855 34.443 79.7667C32.9132 77.8548 27.4717 76.5319 26.3383 79.6265C26.1316 80.196 26.2077 80.903 26.6707 81.3428C28.5474 83.1169 31.4411 83.0349 33.8466 82.0238C35.6373 81.269 35.1379 78.6908 33.1949 78.6592C31.5399 78.6346 29.926 78.755 28.2863 79.0334C26.0374 79.4181 26.2895 82.4012 28.4607 82.5572C31.6227 82.7841 34.127 81.2517 36.6796 79.6551C38.7937 78.3278 36.2726 75.6705 34.1822 76.9853C32.5136 78.0342 30.87 79.1448 28.787 78.9953C28.8456 80.1724 28.9027 81.3419 28.9614 82.519C30.2766 82.2917 31.5385 82.1924 32.8672 82.2135C32.6504 81.0945 32.4322 79.9679 32.2154 78.8489C31.6814 79.074 30.2147 79.4836 29.6834 78.9824C29.7947 79.5571 29.9046 80.1241 30.0159 80.6988C30.2986 81.2167 30.6237 81.7067 30.9995 82.1674C31.5772 82.6163 31.6422 83.1764 31.2099 83.8367C31.0775 84.7449 30.358 86.1198 29.598 86.7024C30.3823 86.6485 31.1617 86.5917 31.9459 86.5378C31.607 86.3799 32.3846 83.7582 32.479 83.5281C32.8884 82.48 33.5415 81.6593 34.3399 80.8261C33.2923 80.1936 32.2497 79.564 31.2022 78.9314C30.0024 80.517 28.8075 82.1056 27.6224 83.7001C26.2371 85.5609 29.3172 87.4275 30.7109 85.5651C31.557 84.4402 32.4733 83.4312 33.6552 82.5825C34.4482 82.0132 35.4201 81.6053 36.077 80.8936C36.8537 80.0607 37.2625 79.0323 36.6074 78.0492C35.805 76.8436 33.9751 76.8803 32.5693 76.8192C30.0987 76.7094 27.6275 76.9332 25.1827 77.3597C22.9653 77.7499 23.5722 80.7938 25.7817 80.4521C28.5682 80.0182 31.2284 80.0756 33.9856 80.4319C34.0753 79.4379 34.1651 78.4438 34.2597 77.4528C29.7431 77.4294 25.2316 77.209 20.7306 76.9747C19.212 76.8923 18.4207 78.8381 19.7103 79.5767C22.5092 81.1801 26.0039 81.5543 28.5438 83.502C29.004 82.6716 29.4725 81.8395 29.9327 81.0091C27.437 79.9628 24.9414 78.9165 22.4408 77.8672C21.0752 77.2963 19.7705 79.1925 20.7452 80.1215C23.2907 82.5466 25.963 84.8413 28.7566 87.0222C29.3437 86.2417 29.9308 85.4612 30.5179 84.6807C29.1273 83.7342 27.7283 82.7892 26.3376 81.8427C24.8978 80.8665 23.3436 82.7521 24.273 83.941C25.9128 86.0395 27.4232 88.7475 29.4356 90.5502C30.2718 91.3021 31.1729 91.7395 32.3078 91.0293C33.9118 90.0283 34.2283 87.3352 34.8806 85.7929C36.076 82.9961 37.5135 80.3055 39.19 77.7058C39.758 76.827 39.2645 75.7813 38.1359 75.6939C31.4791 75.1595 24.8189 75.2572 18.1276 75.9571C17.1055 76.0609 16.744 77.3116 17.3338 77.9347C21.4804 82.3482 25.6986 86.7046 29.9439 91.044C30.6894 91.8214 32.003 90.7785 31.3132 89.9747Z" fill="#A56A43"/>
</svg>
