<svg width="59" height="60" viewBox="0 0 59 60" fill="none" xmlns="http://www.w3.org/2000/svg">
<g clip-path="url(#clip0_2_4810)">
<path d="M47.098 6.09264C45.5014 4.6854 44.1249 3.4675 44.1249 1.6253C44.1167 1.21899 43.7892 0.891488 43.3829 0.883301C42.3031 0.883301 35.968 7.66875 35.968 12.2691C35.9665 16.3756 39.2941 19.7058 43.4005 19.7073C47.507 19.7088 50.8371 16.3812 50.8387 12.2748C50.8387 12.2728 50.8387 12.2709 50.8387 12.2691C50.8387 9.40349 48.8532 7.64316 47.098 6.09264Z" fill="#151869"/>
<path d="M37.3191 23.8955C32.7904 19.8938 28.4868 16.1173 28.4868 10.3502C28.4924 9.92635 28.1534 9.57799 27.7295 9.57236C27.7226 9.57223 27.7159 9.57223 27.709 9.57236C25.9179 9.57236 8.16113 27.7641 8.16113 40.2757C8.15921 51.1028 16.9348 59.8814 27.7618 59.8833C38.5888 59.8852 47.3674 51.1097 47.3694 40.2826C47.3694 40.2803 47.3694 40.278 47.3694 40.2757C47.3898 32.7841 42.2726 28.2656 37.3191 23.8955ZM27.7857 54.2407C27.3858 54.2407 27.0616 53.9165 27.0616 53.5166C27.0616 53.1167 27.3858 52.7925 27.7857 52.7925C34.0809 52.7869 39.1836 47.6865 39.192 41.3913C39.192 40.9914 39.5162 40.6672 39.9161 40.6672C40.316 40.6672 40.6402 40.9914 40.6402 41.3913C40.6318 48.4863 34.8808 54.235 27.7857 54.2407Z" fill="white"/>
</g>
<defs>
<clipPath id="clip0_2_4810">
<rect width="59" height="59" fill="white" transform="translate(0 0.883301)"/>
</clipPath>
</defs>
</svg>
