<svg width="43" height="43" viewBox="0 0 43 43" fill="none" xmlns="http://www.w3.org/2000/svg">
<path d="M26.2031 34.9375C28.4295 34.9375 30.2344 34.3359 30.2344 33.5938C30.2344 32.8516 28.4295 32.25 26.2031 32.25C23.9767 32.25 22.1719 32.8516 22.1719 33.5938C22.1719 34.3359 23.9767 34.9375 26.2031 34.9375Z" fill="#777ABD"/>
<path d="M17.4689 40.3125H34.9377C35.3543 40.312 35.7606 40.1825 36.1008 39.9419C36.441 39.7014 36.6984 39.3614 36.8377 38.9688H15.5688C15.7082 39.3614 15.9656 39.7014 16.3058 39.9419C16.646 40.1825 17.0523 40.312 17.4689 40.3125Z" fill="#777ABD"/>
<path d="M16.125 23.5156C16.1252 23.4862 16.1273 23.4568 16.1314 23.4277C16.0884 22.5002 16.4005 21.5911 17.0042 20.8857C17.3734 20.4582 17.8199 20.1042 18.3204 19.8424L19.2639 5.375H6.26733L8.02051 32.25H14.1094V28.8906C14.1101 28.2372 14.3011 27.5982 14.659 27.0516C15.017 26.505 15.5264 26.0745 16.125 25.8126V23.5156ZM8.0625 11.4219V7.39062C8.0625 7.21243 8.13329 7.04154 8.25929 6.91554C8.38529 6.78954 8.55618 6.71875 8.73438 6.71875H16.7969C16.9751 6.71875 17.146 6.78954 17.272 6.91554C17.398 7.04154 17.4688 7.21243 17.4688 7.39062V11.4219C17.4688 11.6001 17.398 11.771 17.272 11.897C17.146 12.023 16.9751 12.0938 16.7969 12.0938H8.73438C8.55618 12.0938 8.38529 12.023 8.25929 11.897C8.13329 11.771 8.0625 11.6001 8.0625 11.4219ZM15.4531 14.7812H10.0781C9.89993 14.7812 9.72904 14.7105 9.60304 14.5845C9.47704 14.4585 9.40625 14.2876 9.40625 14.1094C9.40625 13.9312 9.47704 13.7603 9.60304 13.6343C9.72904 13.5083 9.89993 13.4375 10.0781 13.4375H15.4531C15.6313 13.4375 15.8022 13.5083 15.9282 13.6343C16.0542 13.7603 16.125 13.9312 16.125 14.1094C16.125 14.2876 16.0542 14.4585 15.9282 14.5845C15.8022 14.7105 15.6313 14.7812 15.4531 14.7812Z" fill="#777ABD"/>
<path d="M15.4531 37.625H36.9531V29.5625H15.4531V37.625ZM22.6129 31.5509C23.5828 31.1353 24.8579 30.9062 26.2031 30.9062C27.5483 30.9062 28.8234 31.1353 29.7934 31.5509C31.3462 32.2164 31.5781 33.1165 31.5781 33.5938C31.5781 34.071 31.3462 34.9711 29.7934 35.6366C28.8234 36.0522 27.5483 36.2812 26.2031 36.2812C24.8579 36.2812 23.5828 36.0522 22.6129 35.6366C21.06 34.9711 20.8281 34.071 20.8281 33.5938C20.8281 33.1165 21.06 32.2164 22.6129 31.5509Z" fill="#777ABD"/>
<path d="M17.4689 26.875C17.0523 26.8755 16.646 27.005 16.3058 27.2456C15.9656 27.4861 15.7082 27.8261 15.5688 28.2188H36.8377C36.6984 27.8261 36.441 27.4861 36.1008 27.2456C35.7606 27.005 35.3543 26.8755 34.9377 26.875H17.4689Z" fill="#777ABD"/>
<path d="M18.0478 21.733C17.7708 22.0479 17.5836 22.4315 17.5056 22.8436H34.9059C34.7555 21.2603 34.0646 19.9022 32.8458 18.7995C32.3336 18.339 31.7623 17.9488 31.147 17.6393C30.7657 18.089 30.3114 18.4713 29.8033 18.7703C28.1715 19.7642 25.8586 20.2681 22.9287 20.2681C20.5671 20.2681 18.8793 20.7746 18.0478 21.733Z" fill="#777ABD"/>
<path d="M17.4688 24.1875H34.9375V25.5312H17.4688V24.1875Z" fill="#777ABD"/>
<path d="M9.40625 8.0625H16.125V10.75H9.40625V8.0625Z" fill="#777ABD"/>
<path d="M14.1094 33.5938H8.0625V37.625H10.0781V36.9531C10.0787 36.4187 10.2913 35.9064 10.6692 35.5285C11.047 35.1507 11.5594 34.9381 12.0938 34.9375H13.4375C13.6664 34.9374 13.8936 34.9765 14.1094 35.0531V33.5938Z" fill="#777ABD"/>
<path d="M12.0938 36.2812C11.9156 36.2815 11.7448 36.3523 11.6189 36.4783C11.4929 36.6042 11.4221 36.775 11.4219 36.9531V37.625H14.1094V36.9531C14.1092 36.775 14.0383 36.6042 13.9124 36.4783C13.7864 36.3523 13.6156 36.2815 13.4375 36.2812H12.0938Z" fill="#777ABD"/>
<path d="M19.439 2.6875H6.09204L6.17964 4.03125H19.3514L19.439 2.6875Z" fill="#777ABD"/>
<path d="M8.17822 38.9688C8.31756 39.3614 8.57497 39.7014 8.91516 39.9419C9.25534 40.1825 9.66163 40.312 10.0783 40.3125H14.7833C14.4838 39.9152 14.2768 39.4562 14.1771 38.9688H8.17822Z" fill="#777ABD"/>
</svg>
