<svg width="43" height="43" viewBox="0 0 43 43" fill="none" xmlns="http://www.w3.org/2000/svg">
<path d="M26.2031 34.9375C28.4295 34.9375 30.2344 34.3359 30.2344 33.5938C30.2344 32.8516 28.4295 32.25 26.2031 32.25C23.9767 32.25 22.1719 32.8516 22.1719 33.5938C22.1719 34.3359 23.9767 34.9375 26.2031 34.9375Z" fill="#A56A43"/>
<path d="M17.4689 40.3125H34.9377C35.3543 40.312 35.7606 40.1825 36.1008 39.9419C36.441 39.7014 36.6984 39.3614 36.8377 38.9688H15.5688C15.7082 39.3614 15.9656 39.7014 16.3058 39.9419C16.646 40.1825 17.0523 40.312 17.4689 40.3125Z" fill="#A56A43"/>
<path d="M16.1252 23.5156C16.1255 23.4862 16.1276 23.4568 16.1316 23.4277C16.0887 22.5002 16.4008 21.5911 17.0045 20.8857C17.3736 20.4582 17.8201 20.1042 18.3206 19.8424L19.2642 5.375H6.26758L8.02075 32.25H14.1096V28.8906C14.1103 28.2372 14.3013 27.5982 14.6593 27.0516C15.0172 26.505 15.5266 26.0745 16.1252 25.8126V23.5156ZM8.06274 11.4219V7.39062C8.06274 7.21243 8.13353 7.04154 8.25953 6.91554C8.38553 6.78954 8.55643 6.71875 8.73462 6.71875H16.7971C16.9753 6.71875 17.1462 6.78954 17.2722 6.91554C17.3982 7.04154 17.469 7.21243 17.469 7.39062V11.4219C17.469 11.6001 17.3982 11.771 17.2722 11.897C17.1462 12.023 16.9753 12.0938 16.7971 12.0938H8.73462C8.55643 12.0938 8.38553 12.023 8.25953 11.897C8.13353 11.771 8.06274 11.6001 8.06274 11.4219ZM15.4534 14.7812H10.0784C9.90018 14.7812 9.72928 14.7105 9.60328 14.5845C9.47728 14.4585 9.40649 14.2876 9.40649 14.1094C9.40649 13.9312 9.47728 13.7603 9.60328 13.6343C9.72928 13.5083 9.90018 13.4375 10.0784 13.4375H15.4534C15.6316 13.4375 15.8025 13.5083 15.9285 13.6343C16.0545 13.7603 16.1252 13.9312 16.1252 14.1094C16.1252 14.2876 16.0545 14.4585 15.9285 14.5845C15.8025 14.7105 15.6316 14.7812 15.4534 14.7812Z" fill="#A56A43"/>
<path d="M15.4531 37.625H36.9531V29.5625H15.4531V37.625ZM22.6129 31.5509C23.5828 31.1353 24.8579 30.9062 26.2031 30.9062C27.5483 30.9062 28.8234 31.1353 29.7934 31.5509C31.3462 32.2164 31.5781 33.1165 31.5781 33.5938C31.5781 34.071 31.3462 34.9711 29.7934 35.6366C28.8234 36.0522 27.5483 36.2812 26.2031 36.2812C24.8579 36.2812 23.5828 36.0522 22.6129 35.6366C21.06 34.9711 20.8281 34.071 20.8281 33.5938C20.8281 33.1165 21.06 32.2164 22.6129 31.5509Z" fill="#A56A43"/>
<path d="M17.4689 26.875C17.0523 26.8755 16.646 27.005 16.3058 27.2456C15.9656 27.4861 15.7082 27.8261 15.5688 28.2188H36.8377C36.6984 27.8261 36.441 27.4861 36.1008 27.2456C35.7606 27.005 35.3543 26.8755 34.9377 26.875H17.4689Z" fill="#A56A43"/>
<path d="M18.0476 21.733C17.7706 22.0479 17.5833 22.4315 17.5054 22.8436H34.9057C34.7553 21.2603 34.0644 19.9022 32.8455 18.7995C32.3333 18.339 31.7621 17.9488 31.1468 17.6393C30.7654 18.089 30.3112 18.4713 29.803 18.7703C28.1713 19.7642 25.8584 20.2681 22.9285 20.2681C20.5669 20.2681 18.879 20.7746 18.0476 21.733Z" fill="#A56A43"/>
<path d="M17.4688 24.1875H34.9375V25.5312H17.4688V24.1875Z" fill="#A56A43"/>
<path d="M9.40625 8.0625H16.125V10.75H9.40625V8.0625Z" fill="#A56A43"/>
<path d="M14.1094 33.5938H8.0625V37.625H10.0781V36.9531C10.0787 36.4187 10.2913 35.9064 10.6692 35.5285C11.047 35.1507 11.5594 34.9381 12.0938 34.9375H13.4375C13.6664 34.9374 13.8936 34.9765 14.1094 35.0531V33.5938Z" fill="#A56A43"/>
<path d="M12.0938 36.2812C11.9156 36.2815 11.7448 36.3523 11.6189 36.4783C11.4929 36.6042 11.4221 36.775 11.4219 36.9531V37.625H14.1094V36.9531C14.1092 36.775 14.0383 36.6042 13.9124 36.4783C13.7864 36.3523 13.6156 36.2815 13.4375 36.2812H12.0938Z" fill="#A56A43"/>
<path d="M19.4392 2.6875H6.09229L6.17988 4.03125H19.3517L19.4392 2.6875Z" fill="#A56A43"/>
<path d="M8.17822 38.9688C8.31756 39.3614 8.57497 39.7014 8.91516 39.9419C9.25534 40.1825 9.66163 40.312 10.0783 40.3125H14.7833C14.4838 39.9152 14.2768 39.4562 14.1771 38.9688H8.17822Z" fill="#A56A43"/>
</svg>
