<svg width="57" height="57" viewBox="0 0 57 57" fill="none" xmlns="http://www.w3.org/2000/svg">
<g clip-path="url(#clip0_2_2162)">
<path d="M56.9026 0.800591C56.7023 0.316132 56.2298 0.000121449 55.7056 0C5.44189 0 0.000976562 20.8361 0.000976562 29.7954C0.000976562 41.4182 8.85157 49.2273 22.0237 49.2273C38.6599 49.2273 42.1447 33.3968 44.0153 24.8908C45.8337 16.2325 50.2275 8.3263 56.6201 2.21001C56.9902 1.84032 57.1017 1.28432 56.9026 0.800591Z" fill="#F2C3A2"/>
<path d="M1.29598 56.9999C0.580528 56.9999 0.000488281 56.4199 0.000488281 55.7044C0.000488281 48.0017 13.3566 23.2869 34.4129 13.084C35.0569 12.7721 35.8317 13.0411 36.1437 13.685C36.4556 14.329 36.1866 15.1038 35.5426 15.4158C14.279 25.7199 2.59136 49.6496 2.59136 55.7046C2.59136 56.42 2.01144 56.9999 1.29598 56.9999Z" fill="#6C4B33"/>
</g>
<defs>
<clipPath id="clip0_2_2162">
<rect width="57" height="57" fill="white"/>
</clipPath>
</defs>
</svg>
