<svg width="25" height="25" viewBox="0 0 25 25" fill="none" xmlns="http://www.w3.org/2000/svg">
<g clip-path="url(#clip0_2_2144)">
<path d="M11.0095 0C4.93901 0 0 4.93901 0 11.0095C0 17.0803 4.93901 22.0189 11.0095 22.0189C17.0803 22.0189 22.0189 17.0803 22.0189 11.0095C22.0189 4.93901 17.0803 0 11.0095 0ZM11.0095 19.9865C6.05962 19.9865 2.03252 15.9594 2.03252 11.0095C2.03252 6.05967 6.05962 2.03252 11.0095 2.03252C15.9593 2.03252 19.9864 6.05962 19.9864 11.0095C19.9864 15.9593 15.9593 19.9865 11.0095 19.9865Z" fill="white"/>
<path d="M24.7025 23.2651L18.8759 17.4385C18.4789 17.0415 17.8359 17.0415 17.4389 17.4385C17.0419 17.8352 17.0419 18.4788 17.4389 18.8755L23.2655 24.7021C23.464 24.9006 23.7238 24.9999 23.984 24.9999C24.2438 24.9999 24.5039 24.9006 24.7025 24.7021C25.0995 24.3054 25.0995 23.6618 24.7025 23.2651Z" fill="white"/>
</g>
<defs>
<clipPath id="clip0_2_2144">
<rect width="25" height="25" fill="white"/>
</clipPath>
</defs>
</svg>
