<svg width="105" height="110" viewBox="0 0 105 110" fill="none" xmlns="http://www.w3.org/2000/svg">
<path d="M21.6893 5.53537C42.737 4.99907 63.143 20.4209 75.4366 38.2488C81.4958 47.0347 85.5932 57.9649 82.1974 67.8961C80.7283 72.1942 77.9242 75.9756 73.8414 77.8463C71.3591 78.9864 68.0793 79.5653 65.6129 77.468C61.8616 74.2817 64.8289 70.078 68.7009 70.1818C75.9023 70.3806 77.9814 81.3697 78.3043 86.8001C78.6888 93.1674 77.4628 99.3277 75.8163 105.246C75.3475 106.934 78.0409 107.67 78.5015 105.987C80.4315 98.8856 81.7337 91.3442 80.5975 83.7013C79.773 78.1548 77.6336 71.4814 72.2692 68.5994C68.3481 66.4939 62.7633 67.7945 61.4089 72.1093C59.985 76.6498 64.3295 80.927 68.5766 81.5274C80.4089 83.1893 86.5816 68.8015 86.0288 58.7008C85.2519 44.6436 74.6598 31.6472 64.5301 22.3838C52.4521 11.3365 37.2416 3.47562 21.574 4.27948C20.8022 4.31879 20.899 5.55473 21.6893 5.53537Z" fill="#A56A43"/>
<path d="M71.2453 91.6843C74.094 91.4868 75.2076 100.938 75.5121 102.493C75.7741 103.826 76.0438 105.41 77.6389 105.775C79.3416 106.162 80.7647 104.1 81.7427 103.161C84.1571 100.839 86.6561 98.586 88.9568 96.1503C90.0837 94.9598 88.1724 93.2314 86.9999 94.2592C84.9548 96.0522 83.0429 98.017 81.0914 99.9109C80.6594 100.332 78.7128 102.828 78.0357 102.491C77.8847 102.419 77.6637 100.016 77.6344 99.888C76.974 96.8156 75.3137 91.2828 72.1102 89.8735C71.6888 89.6897 71.3136 89.7063 70.9992 90.0099C70.8719 90.1399 70.7388 90.2609 70.6115 90.3909C70.1807 90.8051 70.6195 91.7294 71.2453 91.6843Z" fill="#A56A43"/>
<path d="M19.9856 4.53222C18.7955 4.18898 17.891 5.59471 18.6446 6.65627C18.7796 6.8494 19.0146 7.0182 19.2459 7.00037C20.3156 6.90214 21.1764 6.32309 21.5171 5.27399C21.6107 4.99547 21.6153 4.59595 21.3317 4.36925C19.5978 2.9852 17.7757 4.6276 17.0666 6.17633C16.7175 6.94105 16.5633 7.89316 17.1549 8.66506C17.8539 9.57796 18.983 9.51837 19.8269 9.07575C21.3683 8.26887 23.0002 6.03954 21.4709 4.20721C19.9774 2.42188 17.6279 3.92621 17.0529 5.54903C16.4475 7.25998 17.3515 9.29834 19.2468 9.73222C20.9455 10.1119 22.679 8.92748 22.224 7.01302C21.747 4.97372 19.2684 3.97063 17.9347 5.47318C17.3832 6.09297 17.1327 7.04821 17.4052 7.91765C17.7286 8.95699 18.7156 9.61532 19.6619 9.13417C20.2284 8.84509 20.7235 8.33592 21.2208 7.9387C21.6424 7.59482 22.0678 7.22974 22.2071 6.65208C22.4252 5.75471 21.8996 4.85997 21.0922 4.39222C20.2312 3.89483 19.2211 3.90562 18.4942 4.47702C17.5517 5.22646 17.3301 6.51626 17.2211 7.71096C17.1771 8.16645 17.433 8.75666 17.9469 8.8465C20.0248 9.2046 22.0312 7.85057 22.1426 5.64703C22.1656 5.18573 21.9486 4.584 21.4054 4.49349C19.4116 4.15862 18.066 6.18485 19.0492 8.06692C19.6264 9.16888 21.1177 8.22942 20.5463 7.13648C20.3823 6.81658 20.7338 6.24556 21.0839 6.30503C20.8362 5.91751 20.5943 5.53899 20.3467 5.15147C20.2961 6.26579 19.4435 7.25528 18.2633 7.06324C18.5052 7.44175 18.7471 7.82027 18.9891 8.19878C19.0459 7.54642 19.1154 5.62081 20.1281 5.88541C20.5293 5.98868 20.4676 6.04589 20.3031 6.26773C19.999 6.69599 19.3232 7.10336 18.9079 7.41186C18.7685 7.49217 18.8094 7.51084 19.0374 7.46984C19.0117 7.36624 19.0139 7.27041 19.0443 7.18229C19.1604 6.98421 19.17 6.76417 19.3876 6.61637C19.7718 6.35867 20.2371 6.59836 20.4632 7.02447C20.9166 7.86961 20.0106 8.20605 19.362 8.00479C18.4748 7.73772 18.3764 6.71593 18.734 6.02778C18.9357 5.63805 19.2992 5.24843 19.747 5.17158C20.3465 5.06976 20.4951 5.60068 20.3415 6.09276C20.1879 6.58483 19.6818 7.03157 19.2996 7.31951C18.9695 7.56245 18.2218 8.00194 18.4396 7.23069C18.6321 6.51924 19.687 4.88778 20.5522 5.52737C20.4183 5.24545 20.2831 4.97063 20.1491 4.68871C19.9863 5.27472 19.5231 5.56259 18.9542 5.658C19.2075 5.765 19.4678 5.87396 19.7224 5.97388C19.5959 5.85733 19.6109 5.77241 19.7701 5.70498C20.534 5.87866 20.742 4.74836 19.9856 4.53222Z" fill="#A56A43"/>
</svg>
