<svg width="104" height="103" viewBox="0 0 104 103" fill="none" xmlns="http://www.w3.org/2000/svg">
<path d="M51.3515 6.4722C62.0812 5.34404 72.1212 10.7349 76.9531 19.164C79.2286 23.1341 80.4182 27.5998 80.6617 32.1198C80.9189 36.9344 80.4874 42.7973 77.0429 46.8274C75.3206 48.8424 72.8978 50.1016 70.1173 50.0731C67.6141 50.0458 64.1795 48.5174 65.0055 45.7415C65.9904 42.4225 70.5245 44.3752 72.2308 45.8982C74.2242 47.6744 75.3272 50.2175 75.6269 52.7481C76.7729 62.3525 68.1664 73.0562 60.0244 78.6492C50.2554 85.3628 37.8259 86.4096 27.4384 81.348C25.8663 80.585 24.2839 82.5847 25.7963 83.5313C36.939 90.48 52.8174 87.549 63.1484 79.8701C72.8358 72.6679 83.8443 56.9318 76.1514 46.0694C73.7699 42.7143 67.2783 38.8805 63.2659 42.9737C59.4088 46.9076 63.8968 51.9076 68.3957 52.5612C83.4998 54.7736 84.4371 34.7592 82.1785 26.0936C78.8606 13.3671 66.353 2.92511 51.1281 5.31893C50.2975 5.45634 50.5406 6.55497 51.3515 6.4722Z" fill="#777ABD"/>
<path d="M31.3129 89.9747C27.3738 85.3995 23.4075 80.8413 19.3698 76.3401C19.1024 76.9998 18.8399 77.6626 18.5725 78.3223C25.0272 77.7467 31.4781 77.7562 37.8827 78.312C37.5309 77.6388 37.1805 76.9733 36.8286 76.3001C34.707 79.539 32.8121 82.8948 31.3807 86.4237C31.3007 86.6157 30.2959 88.7597 30.466 88.8758C31.7954 89.0576 32.1305 88.8593 31.4762 88.284C31.1524 87.8682 30.8301 87.4599 30.5064 87.0441C29.2178 85.3914 27.9209 83.7403 26.6324 82.0876C25.9425 82.786 25.2576 83.4874 24.5678 84.1858C25.9618 85.1278 27.3574 86.0773 28.7515 87.0193C30.3319 88.0938 31.9405 85.7936 30.5127 84.6777C27.9232 82.6534 25.4584 80.5107 23.0996 78.2652C22.5332 79.0181 21.9703 79.7665 21.4039 80.5195C23.8996 81.5658 26.3952 82.612 28.8992 83.6567C30.563 84.3542 31.4701 82.0644 30.2881 81.1637C27.7122 79.1877 24.2807 78.8248 21.4857 77.1971C21.1461 78.067 20.805 78.9293 20.4654 79.7991C24.9688 80.0682 29.4719 80.2236 33.9819 80.4365C35.7702 80.5216 36.5203 77.8699 34.6724 77.5218C31.5183 76.9325 28.4091 76.9112 25.1839 77.3672C25.3831 78.3955 25.5837 79.4314 25.7829 80.4596C27.2818 80.2164 28.7737 80.049 30.2865 80.0344C30.9496 80.0276 31.6087 80.045 32.2723 80.0852C33.5399 80.3966 33.62 80.1379 32.5044 79.3107C31.1992 79.0967 28.2965 82.8321 27.6187 83.7047C28.6466 84.3254 29.6794 84.949 30.7072 85.5697C31.9218 83.993 33.1314 82.4133 34.3362 80.8307C35.8083 78.9021 32.8085 77.271 31.1985 78.936C29.1447 81.0675 25.8824 87.677 29.7148 89.5038C30.4846 89.8685 31.3436 89.8864 32.0627 89.3392C34.6805 87.3613 36.5351 82.3855 34.4428 79.7667C32.9129 77.8548 27.4714 76.5319 26.338 79.6265C26.1313 80.196 26.2075 80.903 26.6705 81.3428C28.5471 83.1169 31.4409 83.0349 33.8464 82.0238C35.637 81.269 35.1376 78.6908 33.1947 78.6592C31.5396 78.6346 29.9258 78.755 28.286 79.0334C26.0371 79.4181 26.2892 82.4012 28.4604 82.5572C31.6225 82.7841 34.1267 81.2517 36.6794 79.6551C38.7934 78.3278 36.2723 75.6705 34.1819 76.9853C32.5134 78.0342 30.8698 79.1448 28.7867 78.9953C28.8453 80.1724 28.9025 81.3419 28.9611 82.519C30.2764 82.2917 31.5383 82.1924 32.8669 82.2135C32.6502 81.0945 32.4319 79.9679 32.2152 78.8489C31.6812 79.074 30.2145 79.4836 29.6832 78.9824C29.7945 79.5571 29.9043 80.1241 30.0156 80.6988C30.2983 81.2167 30.6234 81.7067 30.9993 82.1674C31.577 82.6163 31.642 83.1764 31.2097 83.8367C31.0773 84.7449 30.3578 86.1198 29.5977 86.7024C30.382 86.6485 31.1614 86.5917 31.9457 86.5378C31.6068 86.3799 32.3844 83.7582 32.4788 83.5281C32.8881 82.48 33.5413 81.6593 34.3396 80.8261C33.2921 80.1936 32.2495 79.564 31.2019 78.9314C30.0021 80.517 28.8072 82.1056 27.6222 83.7001C26.2368 85.5609 29.3169 87.4275 30.7107 85.5651C31.5568 84.4402 32.4731 83.4312 33.6549 82.5825C34.448 82.0132 35.4199 81.6053 36.0768 80.8936C36.8535 80.0607 37.2623 79.0323 36.6072 78.0492C35.8047 76.8436 33.9749 76.8803 32.569 76.8192C30.0984 76.7094 27.6273 76.9332 25.1824 77.3597C22.965 77.7499 23.572 80.7938 25.7814 80.4521C28.5679 80.0182 31.2282 80.0756 33.9853 80.4319C34.0751 79.4379 34.1648 78.4438 34.2595 77.4528C29.7428 77.4294 25.2314 77.209 20.7304 76.9747C19.2118 76.8923 18.4205 78.8381 19.71 79.5767C22.509 81.1801 26.0036 81.5543 28.5436 83.502C29.0037 82.6716 29.4723 81.8395 29.9324 81.0091C27.4368 79.9628 24.9411 78.9165 22.4406 77.8672C21.0749 77.2963 19.7702 79.1925 20.7449 80.1215C23.2905 82.5466 25.9628 84.8413 28.7564 87.0222C29.3435 86.2417 29.9306 85.4612 30.5177 84.6807C29.127 83.7342 27.728 82.7892 26.3374 81.8427C24.8976 80.8665 23.3433 82.7521 24.2728 83.941C25.9126 86.0395 27.4229 88.7475 29.4354 90.5502C30.2715 91.3021 31.1727 91.7395 32.3076 91.0293C33.9116 90.0283 34.2281 87.3352 34.8804 85.7929C36.0758 82.9961 37.5132 80.3055 39.1897 77.7058C39.7578 76.827 39.2643 75.7813 38.1356 75.6939C31.4789 75.1595 24.8186 75.2572 18.1274 75.9571C17.1052 76.0609 16.7438 77.3116 17.3335 77.9347C21.4802 82.3482 25.6984 86.7046 29.9436 91.044C30.6892 91.8214 32.0028 90.7785 31.3129 89.9747Z" fill="#777ABD"/>
</svg>
