<svg width="59" height="59" viewBox="0 0 59 59" fill="none" xmlns="http://www.w3.org/2000/svg">
<g clip-path="url(#clip0_2_2183)">
<path d="M47.0982 5.20934C45.5016 3.8021 44.1251 2.5842 44.1251 0.741998C44.1169 0.33569 43.7894 0.00818757 43.3831 0C42.3034 0 35.9683 6.78545 35.9683 11.3858C35.9667 15.4923 39.2943 18.8225 43.4008 18.824C47.5072 18.8255 50.8374 15.4979 50.8389 11.3915C50.8389 11.3895 50.8389 11.3876 50.8389 11.3858C50.8389 8.52019 48.8534 6.75986 47.0982 5.20934Z" fill="#6C4B33"/>
<path d="M37.3191 23.0122C32.7904 19.0105 28.4868 15.234 28.4868 9.46688C28.4924 9.04305 28.1534 8.69469 27.7295 8.68906C27.7226 8.68893 27.7159 8.68893 27.709 8.68906C25.9179 8.68906 8.16113 26.8808 8.16113 39.3924C8.15921 50.2195 16.9348 58.9981 27.7618 59C38.5888 59.0019 47.3674 50.2264 47.3694 39.3993C47.3694 39.397 47.3694 39.3947 47.3694 39.3924C47.3898 31.9008 42.2726 27.3823 37.3191 23.0122ZM27.7857 53.3574C27.3858 53.3574 27.0616 53.0332 27.0616 52.6333C27.0616 52.2334 27.3858 51.9092 27.7857 51.9092C34.0809 51.9036 39.1836 46.8032 39.192 40.508C39.192 40.1081 39.5162 39.7839 39.9161 39.7839C40.316 39.7839 40.6402 40.1081 40.6402 40.508C40.6318 47.603 34.8808 53.3517 27.7857 53.3574Z" fill="#F2C3A1"/>
</g>
<defs>
<clipPath id="clip0_2_2183">
<rect width="59" height="59" fill="white"/>
</clipPath>
</defs>
</svg>
