<svg width="23" height="27" viewBox="0 0 23 27" fill="none" xmlns="http://www.w3.org/2000/svg">
<path d="M22.2999 23.3393L20.7538 5.93006C20.7207 5.54356 20.3949 5.25092 20.014 5.25092H16.8336C16.7894 2.34663 14.4152 0 11.4999 0C8.58452 0 6.21029 2.34663 6.16611 5.25092H2.98575C2.59924 5.25092 2.279 5.54356 2.24587 5.93006L0.699858 23.3393C0.699858 23.3614 0.694336 23.3834 0.694336 23.4055C0.694336 25.3877 2.5109 27 4.7471 27H18.2526C20.4888 27 22.3054 25.3877 22.3054 23.4055C22.3054 23.3834 22.3054 23.3614 22.2999 23.3393ZM11.4999 1.4908C13.5925 1.4908 15.2986 3.16933 15.3428 5.25092H7.65691C7.70108 3.16933 9.40722 1.4908 11.4999 1.4908ZM18.2526 25.5092H4.7471C3.34464 25.5092 2.20722 24.5816 2.18513 23.4387L3.66489 6.74724H6.16059V9.01104C6.16059 9.42515 6.49188 9.75644 6.90599 9.75644C7.3201 9.75644 7.65139 9.42515 7.65139 9.01104V6.74724H15.3428V9.01104C15.3428 9.42515 15.6741 9.75644 16.0882 9.75644C16.5023 9.75644 16.8336 9.42515 16.8336 9.01104V6.74724H19.3293L20.8146 23.4387C20.7925 24.5816 19.6495 25.5092 18.2526 25.5092Z" fill="white"/>
</svg>
