<svg width="47" height="47" viewBox="0 0 47 47" fill="none" xmlns="http://www.w3.org/2000/svg">
<g clip-path="url(#clip0_2_3584)">
<path d="M35.0817 27.6164C31.8531 27.6164 29.2266 30.2429 29.2266 33.4715C29.2266 36.7001 31.8531 39.3266 35.0817 39.3266C38.3108 39.3266 40.9368 36.7001 40.9368 33.4715C40.9368 30.2429 38.3102 27.6164 35.0817 27.6164ZM35.0817 36.399C33.4672 36.399 32.1541 35.086 32.1541 33.4715C32.1541 31.857 33.4672 30.5439 35.0817 30.5439C36.6962 30.5439 38.0092 31.857 38.0092 33.4715C38.0092 35.0861 36.6962 36.399 35.0817 36.399Z" fill="#151869" fill-opacity="0.44"/>
<path d="M15.0768 27.6164C11.8482 27.6164 9.22168 30.2429 9.22168 33.4715C9.22168 36.7001 11.8482 39.3266 15.0768 39.3266C18.3054 39.3266 20.9319 36.7001 20.9319 33.4715C20.9319 30.2429 18.3054 27.6164 15.0768 27.6164ZM15.0768 36.399C13.4623 36.399 12.1492 35.086 12.1492 33.4715C12.1492 31.857 13.4623 30.5439 15.0768 30.5439C16.6908 30.5439 18.0043 31.857 18.0043 33.4715C18.0043 35.0861 16.6913 36.399 15.0768 36.399Z" fill="#151869" fill-opacity="0.44"/>
<path d="M39.0247 10.8573C38.7758 10.363 38.2699 10.0512 37.7165 10.0512H30.0073V12.9788H36.8138L40.7997 20.9065L43.416 19.591L39.0247 10.8573Z" fill="#151869" fill-opacity="0.44"/>
<path d="M30.6906 32.0566H19.6147V34.9842H30.6906V32.0566Z" fill="#151869" fill-opacity="0.44"/>
<path d="M10.6855 32.0566H5.61119C4.80266 32.0566 4.14746 32.7119 4.14746 33.5204C4.14746 34.3289 4.80276 34.9841 5.61119 34.9841H10.6856C11.4941 34.9841 12.1493 34.3288 12.1493 33.5204C12.1493 32.7118 11.4941 32.0566 10.6855 32.0566Z" fill="#151869" fill-opacity="0.44"/>
<path d="M46.143 23.1081L43.2638 19.3999C42.9872 19.0427 42.5603 18.8338 42.1079 18.8338H31.4712V8.58745C31.4712 7.77892 30.8159 7.12372 30.0074 7.12372H5.61119C4.80266 7.12372 4.14746 7.77901 4.14746 8.58745C4.14746 9.39588 4.80276 10.0512 5.61119 10.0512H28.5436V20.2976C28.5436 21.1061 29.1989 21.7613 30.0073 21.7613H41.3911L43.5228 24.5073V32.0565H39.473C38.6645 32.0565 38.0093 32.7118 38.0093 33.5202C38.0093 34.3287 38.6646 34.9839 39.473 34.9839H44.9866C45.7951 34.9839 46.4503 34.3286 46.4504 33.5202V24.0059C46.4504 23.6809 46.3421 23.3647 46.143 23.1081Z" fill="#151869" fill-opacity="0.44"/>
<path d="M10.5877 24.6402H3.85435C3.04583 24.6402 2.39062 25.2955 2.39062 26.1039C2.39062 26.9125 3.04592 27.5677 3.85435 27.5677H10.5877C11.3962 27.5677 12.0514 26.9124 12.0514 26.1039C12.0515 25.2955 11.3962 24.6402 10.5877 24.6402Z" fill="#151869" fill-opacity="0.44"/>
<path d="M13.9546 18.8826H1.46373C0.655294 18.8826 0 19.5379 0 20.3465C0 21.155 0.655294 21.8102 1.46373 21.8102H13.9546C14.7631 21.8102 15.4183 21.1549 15.4183 20.3465C15.4183 19.538 14.7631 18.8826 13.9546 18.8826Z" fill="#151869" fill-opacity="0.44"/>
<path d="M16.3452 13.1252H3.85435C3.04583 13.1252 2.39062 13.7805 2.39062 14.589C2.39062 15.3975 3.04592 16.0527 3.85435 16.0527H16.3452C17.1538 16.0527 17.809 15.3974 17.809 14.589C17.8091 13.7805 17.1538 13.1252 16.3452 13.1252Z" fill="#151869" fill-opacity="0.44"/>
</g>
<defs>
<clipPath id="clip0_2_3584">
<rect width="46.4503" height="46.4503" fill="white"/>
</clipPath>
</defs>
</svg>
