<svg width="711" height="882" viewBox="0 0 711 882" fill="none" xmlns="http://www.w3.org/2000/svg">
<g opacity="0.75">
<g opacity="0.75">
<g opacity="0.75">
<path opacity="0.75" d="M167.491 211.676C167.701 212.065 167.715 212.533 167.546 212.951L136.805 287.25C136.601 287.754 136.138 288.104 135.599 288.177L55.8699 298.58C55.3309 298.654 54.8008 298.425 54.4659 297.995L5.47784 234.099C5.15114 233.68 5.07387 233.1 5.27794 232.597L36.0189 158.298C36.223 157.794 36.6856 157.444 37.2246 157.37L116.954 146.968C117.493 146.894 118.023 147.123 118.348 147.551L167.336 211.448C167.405 211.52 167.453 211.599 167.491 211.676ZM134.341 285.276L164.411 212.6L116.492 150.095L38.5036 160.265L8.43376 232.941L56.3526 295.446L134.341 285.276Z" fill="#151869" fill-opacity="0.13"/>
</g>
</g>
<g opacity="0.75">
<g opacity="0.75">
<path opacity="0.75" d="M173.223 218.441C173.446 218.873 173.451 219.4 173.227 219.84L133.754 295.728C133.503 296.214 133.017 296.52 132.476 296.543L47.0165 300.17C46.4757 300.193 45.962 299.926 45.673 299.463L-0.313769 227.202C-0.602779 226.739 -0.630706 226.167 -0.380523 225.691L39.0921 149.803C39.3439 149.317 39.8297 149.012 40.3705 148.989L125.83 145.361C126.371 145.339 126.884 145.605 127.173 146.068L173.16 218.329C173.185 218.364 173.208 218.408 173.223 218.441ZM131.466 293.55L170.128 219.211L125.074 148.43L41.3604 151.978L2.70041 226.307L47.7542 297.088L131.466 293.55Z" fill="#151869" fill-opacity="0.13"/>
</g>
</g>
<g opacity="0.75">
<g opacity="0.75">
<path opacity="0.75" d="M136.631 145.306L178.668 226.152C178.915 226.628 178.89 227.212 178.604 227.662L129.736 304.423C129.448 304.883 128.928 305.152 128.385 305.124L37.479 301.05C36.9364 301.022 36.4489 300.719 36.2042 300.233L-5.83339 219.387C-6.07969 218.911 -6.05504 218.328 -5.76861 217.878L43.0986 141.116C43.3867 140.657 43.9071 140.387 44.4497 140.415L135.356 144.489C135.889 144.516 136.375 144.828 136.631 145.306ZM175.578 226.771L134.349 147.486L45.1932 143.486L-2.7329 218.77L38.4964 298.055L127.652 302.055L175.578 226.771Z" fill="#151869" fill-opacity="0.13"/>
</g>
</g>
<g opacity="0.75">
<g opacity="0.75">
<path opacity="0.75" d="M146.672 145.248C146.695 145.292 146.71 145.325 146.724 145.368L183.785 234.945C183.987 235.444 183.913 236.019 183.589 236.453L124.68 313.273C124.346 313.704 123.814 313.921 123.278 313.854L27.316 301.108C26.7798 301.041 26.3234 300.672 26.1198 300.183L-10.9415 210.606C-11.1435 210.107 -11.0695 209.532 -10.7452 209.098L48.1634 132.278C48.4976 131.847 49.0296 131.63 49.5657 131.697L145.526 144.452C146.013 144.512 146.439 144.815 146.672 145.248ZM180.647 235.292L144.253 147.335L50.0283 134.813L-7.81236 210.247L28.572 298.203L122.797 310.725L180.647 235.292Z" fill="#151869" fill-opacity="0.13"/>
</g>
</g>
<g opacity="0.75">
<g opacity="0.75">
<path opacity="0.75" d="M157.311 146.119C157.349 146.196 157.387 146.273 157.412 146.368L188.383 244.736C188.542 245.249 188.419 245.816 188.05 246.212L118.501 322.171C118.13 322.576 117.585 322.751 117.049 322.622L16.5288 300.213C16.0008 300.097 15.5772 299.713 15.4097 299.189L-15.5609 200.821C-15.7201 200.309 -15.5968 199.741 -15.228 199.346L54.3213 123.387C54.6901 122.991 55.237 122.807 55.7733 122.935L156.293 145.344C156.734 145.437 157.113 145.722 157.311 146.119ZM185.23 244.808L154.787 148.107L55.9779 126.08L-12.3865 200.743L18.0581 297.434L116.867 319.461L185.23 244.808Z" fill="#151869" fill-opacity="0.13"/>
</g>
</g>
<g opacity="0.75">
<g opacity="0.75">
<path opacity="0.75" d="M168.511 148.024C168.573 148.135 168.613 148.263 168.642 148.4L192.343 255.518C192.459 256.044 192.288 256.593 191.883 256.963L111.136 331.007C110.731 331.376 110.174 331.498 109.654 331.332L5.20589 298.258C4.68591 298.092 4.29839 297.674 4.18343 297.138L-19.5175 190.02C-19.6341 189.494 -19.463 188.945 -19.058 188.575L61.6891 114.531C62.0941 114.161 62.6511 114.04 63.1711 114.206L167.619 147.28C168.014 147.405 168.335 147.671 168.511 148.024ZM189.194 255.316L165.871 149.912L63.088 117.374L-16.3719 190.241L6.95098 295.646L109.734 328.183L189.194 255.316Z" fill="#151869" fill-opacity="0.13"/>
</g>
</g>
<g opacity="0.75">
<g opacity="0.75">
<path opacity="0.75" d="M180.21 151.085C180.286 151.239 180.339 151.41 180.371 151.587L195.56 267.303C195.634 267.842 195.405 268.372 194.976 268.707L102.53 339.69C102.1 340.025 101.521 340.093 101.027 339.89L-6.6085 295.158C-7.11052 294.944 -7.46199 294.491 -7.52598 293.954L-22.7157 178.238C-22.7895 177.699 -22.5609 177.169 -22.1311 176.834L70.3152 105.851C70.7449 105.516 71.3234 105.448 71.8172 105.651L179.443 150.381C179.774 150.527 180.048 150.774 180.21 151.085ZM192.426 266.83L177.469 152.845L71.4562 108.784L-19.599 178.698L-4.64271 292.683L101.37 336.744L192.426 266.83Z" fill="#151869" fill-opacity="0.13"/>
</g>
</g>
<g opacity="0.75">
<g opacity="0.75">
<path opacity="0.75" d="M192.319 155.418C192.419 155.607 192.474 155.829 192.488 156.054L197.852 280.101C197.875 280.642 197.609 281.156 197.156 281.447L92.6089 348.108C92.156 348.398 91.574 348.425 91.0883 348.173L-18.8226 290.787C-19.2984 290.536 -19.6138 290.049 -19.6367 289.508L-25.0008 165.461C-25.0237 164.92 -24.7572 164.406 -24.3042 164.116L80.2524 97.4563C80.7053 97.1657 81.2872 97.1394 81.7729 97.3912L191.684 154.777C191.955 154.913 192.171 155.141 192.319 155.418ZM194.784 279.346L189.497 157.054L81.1257 100.477L-21.9491 166.194L-16.6623 288.486L91.6993 345.061L194.784 279.346Z" fill="#151869" fill-opacity="0.13"/>
</g>
</g>
<g opacity="0.75">
<g opacity="0.75">
<path opacity="0.75" d="M204.75 161.122C204.874 161.355 204.932 161.618 204.918 161.89L199.098 293.843C199.07 294.386 198.767 294.873 198.281 295.118L81.3042 356.066C80.8265 356.322 80.2445 356.287 79.785 355.999L-31.3811 284.991C-31.8406 284.703 -32.1002 284.184 -32.0836 283.65L-26.263 151.696C-26.2349 151.153 -25.9322 150.666 -25.4463 150.421L91.5404 89.4756C92.028 89.221 92.6002 89.254 93.0597 89.542L204.226 160.55C204.446 160.688 204.626 160.889 204.75 161.122ZM196.101 292.836L201.838 162.632L92.1493 92.5646L-23.2763 152.702L-29.0131 282.906L80.6756 352.973L196.101 292.836Z" fill="#151869" fill-opacity="0.13"/>
</g>
</g>
<g opacity="0.75">
<g opacity="0.75">
<path opacity="0.75" d="M217.392 168.33C217.529 168.606 217.59 168.91 217.549 169.227L199.144 308.534C199.077 309.07 198.718 309.528 198.217 309.74L68.5875 363.488C68.0867 363.7 67.5127 363.616 67.0794 363.292L-44.1459 277.733C-44.5776 277.399 -44.7945 276.867 -44.727 276.331L-26.3227 137.024C-26.2552 136.488 -25.8964 136.029 -25.3956 135.818L104.234 82.0696C104.735 81.8578 105.309 81.9417 105.742 82.266L216.968 167.825C217.149 167.956 217.292 168.131 217.392 168.33ZM196.252 307.26L214.423 169.688L104.583 85.1972L-23.4175 138.28L-41.5883 275.851L68.2515 360.342L196.252 307.26Z" fill="#151869" fill-opacity="0.13"/>
</g>
</g>
<g opacity="0.75">
<g opacity="0.75">
<path opacity="0.75" d="M230.126 177.134C230.288 177.444 230.34 177.807 230.262 178.159L197.844 324.088C197.727 324.616 197.334 325.038 196.819 325.207L54.4551 370.152C53.9426 370.311 53.3751 370.188 52.9696 369.817L-56.9761 268.832C-57.3733 268.473 -57.5458 267.918 -57.429 267.39L-25.0103 121.461C-24.8934 120.933 -24.5001 120.511 -23.986 120.342L118.377 75.4075C118.889 75.2482 119.457 75.3716 119.862 75.742L229.808 176.727C229.932 176.838 230.04 176.978 230.126 177.134ZM195.073 322.571L227.11 178.352L118.46 78.5523L-22.2375 122.969L-54.2747 267.187L54.3754 366.987L195.073 322.571Z" fill="#151869" fill-opacity="0.13"/>
</g>
</g>
<g opacity="0.75">
<g opacity="0.75">
<path opacity="0.75" d="M242.805 187.641C242.99 187.995 243.024 188.406 242.91 188.793L195.013 340.446C194.847 340.966 194.429 341.353 193.893 341.468L38.8517 375.896C38.326 376.012 37.7665 375.84 37.407 375.436L-69.7488 258.219C-70.1083 257.815 -70.2398 257.257 -70.0736 256.737L-22.1879 105.092C-22.0217 104.572 -21.6036 104.185 -21.068 104.07L133.973 69.6423C134.499 69.5257 135.059 69.6984 135.418 70.1018L242.574 187.319C242.66 187.414 242.742 187.529 242.805 187.641ZM192.391 338.699L239.75 188.721L133.782 72.7927L-19.546 106.842L-66.9054 256.82L39.0631 372.749L192.391 338.699Z" fill="#151869" fill-opacity="0.13"/>
</g>
</g>
<g opacity="0.75">
<g opacity="0.75">
<path opacity="0.75" d="M255.259 199.955C255.467 200.354 255.493 200.814 255.312 201.241L190.506 357.512C190.302 358.015 189.839 358.365 189.3 358.439L21.8051 380.552C21.266 380.626 20.736 380.397 20.4011 379.968L-82.2883 245.809C-82.6134 245.381 -82.6923 244.811 -82.4882 244.307L-17.6825 88.036C-17.4785 87.5324 -17.0158 87.1825 -16.4768 87.1087L151.018 64.9957C151.557 64.9218 152.087 65.1505 152.422 65.5802L255.112 199.738C255.171 199.809 255.221 199.878 255.259 199.955ZM188.042 355.538L252.179 200.88L150.549 68.1107L-15.2061 89.9919L-79.3423 244.65L22.2877 377.419L188.042 355.538Z" fill="#151869" fill-opacity="0.13"/>
</g>
</g>
<g opacity="0.75">
<g opacity="0.75">
<path opacity="0.75" d="M267.32 214.171C267.543 214.603 267.548 215.13 267.324 215.57L184.158 375.178C183.907 375.654 183.42 375.969 182.879 375.992L3.32138 383.899C2.78057 383.922 2.26688 383.655 1.97787 383.193L-94.4237 231.49C-94.7044 231.039 -94.7406 230.455 -94.4904 229.979L-11.3242 70.3712C-11.074 69.8954 -10.5866 69.58 -10.0458 69.5571L169.512 61.6502C170.053 61.6273 170.567 61.8939 170.856 62.3566L267.247 214.058C267.282 214.094 267.307 214.128 267.32 214.171ZM181.87 373L264.233 214.952L168.776 64.7217L-9.03615 72.5496L-91.3996 230.597L4.04915 380.816L181.87 373Z" fill="#151869" fill-opacity="0.13"/>
</g>
</g>
<g opacity="0.75">
<g opacity="0.75">
<path opacity="0.75" d="M190.704 60.6416L278.796 230.348C279.043 230.824 279.018 231.408 278.73 231.868L175.788 393.304C175.5 393.763 174.982 394.023 174.447 394.006L-16.5856 385.726C-17.1282 385.698 -17.6157 385.395 -17.8604 384.909L-105.952 215.193C-106.198 214.717 -106.173 214.133 -105.885 213.674L-2.94356 52.2372C-2.65552 51.7777 -2.13677 51.5182 -1.60242 51.5348L189.422 59.8035C189.963 59.8414 190.449 60.1541 190.704 60.6416ZM275.696 230.965L188.413 62.81L-0.860487 54.6151L-102.861 214.574L-15.5781 382.729L173.695 390.924L275.696 230.965Z" fill="#151869" fill-opacity="0.13"/>
</g>
</g>
<g opacity="0.75">
<g opacity="0.75">
<path opacity="0.75" d="M211.829 60.534C211.852 60.5783 211.867 60.6112 211.88 60.6539L289.495 248.678C289.697 249.177 289.623 249.753 289.299 250.186L165.232 411.73C164.898 412.162 164.366 412.379 163.83 412.311L-37.852 385.831C-38.3881 385.763 -38.8528 385.383 -39.058 384.904L-116.675 196.889C-116.886 196.388 -116.803 195.814 -116.478 195.381L7.5884 33.8374C7.92256 33.4057 8.4546 33.1888 8.99074 33.2564L210.672 59.7367C211.171 59.7879 211.597 60.0908 211.829 60.534ZM286.358 249.026L209.41 62.6205L9.46318 36.3737L-113.534 196.522L-36.5845 382.917L163.36 409.174L286.358 249.026Z" fill="#151869" fill-opacity="0.13"/>
</g>
</g>
<g opacity="0.75">
<g opacity="0.75">
<path opacity="0.75" d="M234.225 62.3777C234.263 62.4548 234.299 62.5419 234.326 62.6273L299.154 269.087C299.313 269.6 299.19 270.167 298.821 270.563L152.369 430.255C152 430.651 151.455 430.825 150.927 430.708L-60.3539 383.95C-60.882 383.833 -61.3055 383.449 -61.4731 382.925L-126.311 176.464C-126.47 175.951 -126.346 175.384 -125.978 174.988L20.474 15.2961C20.8427 14.9005 21.388 14.7263 21.9161 14.8432L233.197 61.6014C233.648 61.6954 234.017 61.9788 234.225 62.3777ZM295.991 269.157L231.689 64.3741L22.1206 17.9876L-123.158 176.392L-58.8559 381.175L150.713 427.562L295.991 269.157Z" fill="#151869" fill-opacity="0.13"/>
</g>
</g>
<g opacity="0.75">
<g opacity="0.75">
<path opacity="0.75" d="M257.784 66.4078C257.845 66.5293 257.886 66.6475 257.915 66.7839L307.475 291.598C307.592 292.124 307.421 292.673 307.016 293.043L136.996 448.703C136.601 449.074 136.034 449.194 135.514 449.028L-84.0585 379.886C-84.5785 379.719 -84.9644 379.291 -85.081 378.766L-134.642 153.951C-134.758 153.426 -134.587 152.876 -134.182 152.507L35.8376 -3.15362C36.2328 -3.52464 36.7996 -3.64461 37.3196 -3.4784L256.892 65.6639C257.277 65.7878 257.598 66.0532 257.784 66.4078ZM304.327 291.396L255.144 68.296L37.2381 -0.320048L-131.493 154.153L-82.3102 377.253L135.595 445.87L304.327 291.396Z" fill="#151869" fill-opacity="0.13"/>
</g>
</g>
<g opacity="0.75">
<g opacity="0.75">
<path opacity="0.75" d="M282.383 72.8679C282.459 73.0222 282.522 73.1947 282.544 73.3705L314.216 316.211C314.28 316.748 314.062 317.28 313.633 317.605L119.022 466.817C118.594 467.142 118.024 467.221 117.52 467.016L-108.781 373.375C-109.285 373.171 -109.635 372.708 -109.709 372.169L-141.381 129.329C-141.445 128.791 -141.227 128.26 -140.798 127.934L53.8209 -21.2657C54.249 -21.5907 54.8193 -21.6696 55.3229 -21.4655L281.615 72.1747C281.949 72.3003 282.221 72.5577 282.383 72.8679ZM311.091 315.74L279.642 74.6282L54.9734 -18.341L-138.256 129.8L-106.807 370.911L117.862 463.88L311.091 315.74Z" fill="#151869" fill-opacity="0.13"/>
</g>
</g>
<g opacity="0.75">
<g opacity="0.75">
<path opacity="0.75" d="M307.853 81.9939C307.954 82.1827 308.009 82.4045 308.022 82.6297L319.073 342.927C319.096 343.468 318.829 343.981 318.376 344.272L98.297 484.348C97.8441 484.638 97.2622 484.665 96.7864 484.415L-134.353 364.191C-134.829 363.941 -135.145 363.454 -135.167 362.913L-146.238 102.613C-146.261 102.072 -145.994 101.558 -145.541 101.268L74.5382 -38.8082C74.9911 -39.0988 75.573 -39.1251 76.0488 -38.875L307.189 81.3481C307.48 81.487 307.706 81.7165 307.853 81.9939ZM316.003 342.181L305.02 83.6378L75.4411 -35.7825L-143.168 103.359L-132.185 361.902L97.3958 481.312L316.003 342.181Z" fill="#151869" fill-opacity="0.13"/>
</g>
</g>
<g opacity="0.75">
<g opacity="0.75">
<path opacity="0.75" d="M333.992 94.0262C334.116 94.2593 334.174 94.5222 334.16 94.7935L321.742 371.676C321.714 372.219 321.411 372.706 320.925 372.951L74.6953 501.003C74.2193 501.249 73.6356 501.224 73.1761 500.936L-160.634 352.095C-161.092 351.798 -161.363 351.287 -161.335 350.744L-148.917 73.8618C-148.889 73.3192 -148.576 72.8334 -148.1 72.587L98.13 -55.4646C98.6061 -55.7109 99.1897 -55.6863 99.6492 -55.3982L333.459 93.4425C333.688 93.5914 333.868 93.7931 333.992 94.0262ZM318.755 370.67L331.1 95.5387L98.7668 -52.3609L-145.912 74.8808L-158.256 350.012L74.0767 497.912L318.755 370.67Z" fill="#151869" fill-opacity="0.13"/>
</g>
</g>
<g opacity="0.75">
<g opacity="0.75">
<path opacity="0.75" d="M360.589 109.204C360.726 109.48 360.786 109.794 360.746 110.101L321.911 402.387C321.844 402.923 321.485 403.381 320.986 403.583L48.1589 516.457C47.6581 516.669 47.0841 516.585 46.6508 516.261L-187.33 336.841C-187.761 336.507 -187.978 335.975 -187.911 335.438L-149.076 43.1525C-149.009 42.6164 -148.65 42.1583 -148.149 41.9464L124.678 -70.9276C125.179 -71.1395 125.753 -71.0556 126.186 -70.7313L360.168 108.679C360.346 108.83 360.49 109.005 360.589 109.204ZM319.017 401.123L357.619 110.572L125.024 -67.7804L-146.184 44.4266L-184.785 334.978L47.8114 513.32L319.017 401.123Z" fill="#151869" fill-opacity="0.13"/>
</g>
</g>
<g opacity="0.75">
<g opacity="0.75">
<path opacity="0.75" d="M387.365 127.745C387.527 128.055 387.579 128.418 387.501 128.77L319.247 434.934C319.13 435.462 318.736 435.884 318.222 436.053L18.6213 530.377C18.1088 530.536 17.5414 530.413 17.1441 530.054L-214.203 318.213C-214.598 317.844 -214.782 317.298 -214.654 316.761L-146.4 10.5971C-146.283 10.069 -145.89 9.64703 -145.376 9.47788L154.225 -84.8456C154.738 -85.0048 155.305 -84.8815 155.703 -84.5226L387.041 127.307C387.17 127.449 387.279 127.589 387.365 127.745ZM316.464 433.425L384.337 128.971L154.294 -81.6729L-143.63 12.1247L-211.503 316.578L18.5483 527.234L316.464 433.425Z" fill="#151869" fill-opacity="0.13"/>
</g>
</g>
<g opacity="0.75">
<g opacity="0.75">
<path opacity="0.75" d="M414.017 149.883C414.202 150.237 414.236 150.648 414.121 151.045L313.396 469.179C313.229 469.699 312.801 470.085 312.276 470.201L-13.9781 542.387C-14.5038 542.503 -15.0534 542.332 -15.4228 541.927L-240.951 295.978C-241.312 295.585 -241.442 295.016 -241.276 294.496L-140.551 -23.6378C-140.384 -24.1577 -139.956 -24.5436 -139.431 -24.6602L186.823 -96.8455C187.349 -96.9621 187.898 -96.791 188.268 -96.386L413.796 149.563C413.882 149.658 413.954 149.771 414.017 149.883ZM310.763 467.431L410.961 150.973L186.62 -93.6868L-137.93 -21.8812L-238.127 294.576L-13.7864 539.236L310.763 467.431Z" fill="#151869" fill-opacity="0.13"/>
</g>
</g>
<g opacity="0.75">
<g opacity="0.75">
<path opacity="0.75" d="M440.211 175.817C440.419 176.215 440.445 176.676 440.264 177.102L304.018 504.913C303.813 505.417 303.351 505.766 302.813 505.83L-49.6335 552.082C-50.1725 552.156 -50.7025 551.927 -51.0375 551.497L-267.23 269.949C-267.565 269.52 -267.633 268.941 -267.43 268.447L-131.184 -59.3637C-130.98 -59.8673 -130.517 -60.2172 -129.98 -60.2812L222.467 -106.533C223.006 -106.607 223.536 -106.378 223.861 -105.95L440.074 175.602C440.123 175.67 440.173 175.739 440.211 175.817ZM301.564 502.941L437.131 176.741L221.988 -103.419L-128.729 -57.4011L-264.296 268.799L-49.1541 548.969L301.564 502.941Z" fill="#151869" fill-opacity="0.13"/>
</g>
</g>
<g opacity="0.75">
<g opacity="0.75">
<path opacity="0.75" d="M465.568 205.738C465.8 206.181 465.796 206.697 465.562 207.135L290.785 541.911C290.534 542.387 290.047 542.702 289.506 542.725L-88.3004 559.065C-88.8412 559.088 -89.3549 558.822 -89.6455 558.369L-292.672 239.923C-292.963 239.47 -292.989 238.888 -292.738 238.403L-117.96 -96.3729C-117.708 -96.8586 -117.222 -97.1641 -116.681 -97.1871L261.125 -113.527C261.666 -113.55 262.18 -113.284 262.47 -112.831L465.497 205.615C465.53 205.661 465.555 205.695 465.568 205.738ZM288.506 539.734L462.473 206.508L260.389 -110.456L-115.672 -94.1945L-289.638 239.032L-87.5545 555.995L288.506 539.734Z" fill="#151869" fill-opacity="0.13"/>
</g>
</g>
<g opacity="0.75">
<g opacity="0.75">
<path opacity="0.75" d="M489.672 239.791C489.919 240.267 489.894 240.85 489.606 241.31L273.338 579.891C273.05 580.35 272.531 580.61 271.997 580.593L-129.914 562.88C-130.456 562.852 -130.942 562.54 -131.189 562.064L-316.839 205.759C-317.085 205.283 -317.061 204.699 -316.773 204.24L-100.504 -134.341C-100.216 -134.801 -99.6975 -135.06 -99.1632 -135.044L302.747 -117.331C303.29 -117.303 303.777 -117 304.022 -116.514L489.672 239.791ZM271.253 577.523L486.58 240.419L301.75 -114.333L-98.4098 -131.972L-313.737 205.132L-128.906 559.884L271.253 577.523Z" fill="#151869" fill-opacity="0.13"/>
</g>
</g>
<g opacity="0.75">
<g opacity="0.75">
<path opacity="0.75" d="M348.355 -116.702C348.38 -116.668 348.393 -116.625 348.406 -116.583L512.105 278.231C512.317 278.732 512.233 279.306 511.909 279.739L251.317 618.51C250.983 618.941 250.451 619.158 249.915 619.091L-174.375 563.048C-174.911 562.98 -175.361 562.633 -175.581 562.121L-339.272 167.318C-339.484 166.818 -339.4 166.244 -339.075 165.81L-78.4839 -172.96C-78.1497 -173.392 -77.6177 -173.609 -77.0816 -173.541L347.209 -117.498C347.705 -117.437 348.132 -117.134 348.355 -116.702ZM508.978 278.58L345.946 -114.614L-76.6091 -170.424L-336.143 166.959L-173.111 560.154L249.444 615.963L508.978 278.58Z" fill="#151869" fill-opacity="0.13"/>
</g>
</g>
<g opacity="0.75">
<g opacity="0.75">
<path opacity="0.75" d="M395.342 -112.798C395.38 -112.721 395.418 -112.644 395.444 -112.558L532.323 321.041C532.492 321.555 532.359 322.121 531.998 322.528L224.42 657.394C224.051 657.79 223.506 657.964 222.978 657.847L-221.479 559.114C-222.007 558.997 -222.439 558.602 -222.598 558.089L-359.488 124.499C-359.657 123.984 -359.524 123.419 -359.163 123.012L-51.5767 -211.843C-51.2079 -212.239 -50.6626 -212.413 -50.1345 -212.296L394.322 -113.563C394.774 -113.479 395.142 -113.185 395.342 -112.798ZM529.168 321.122L392.816 -110.8L-49.9399 -209.153L-356.333 124.417L-219.981 556.339L222.775 654.693L529.168 321.122Z" fill="#151869" fill-opacity="0.13"/>
</g>
</g>
<g opacity="0.75">
<g opacity="0.75">
<path opacity="0.75" d="M444.788 -104.296C444.85 -104.184 444.89 -104.056 444.92 -103.929L549.778 368.283C549.894 368.808 549.722 369.368 549.318 369.727L192.302 696.103C191.897 696.472 191.34 696.594 190.82 696.427L-271.061 550.579C-271.581 550.413 -271.967 549.985 -272.084 549.459L-376.943 77.2569C-377.059 76.7312 -376.887 76.1717 -376.483 75.8122L-19.4591 -250.552C-19.064 -250.923 -18.4971 -251.043 -17.9771 -250.876L443.904 -105.028C444.281 -104.916 444.601 -104.64 444.788 -104.296ZM546.627 368.091L442.148 -102.407L-18.0669 -247.729L-373.794 77.4584L-269.314 547.957L190.892 693.267L546.627 368.091Z" fill="#151869" fill-opacity="0.13"/>
</g>
</g>
<g opacity="0.75">
<g opacity="0.75">
<path opacity="0.75" d="M496.389 -90.698C496.465 -90.5437 496.528 -90.3713 496.549 -90.1954L563.892 419.963C563.965 420.502 563.747 421.033 563.307 421.367L154.681 734.143C154.252 734.468 153.682 734.547 153.178 734.343L-322.787 536.941C-323.289 536.727 -323.64 536.274 -323.704 535.737L-391.056 25.5768C-391.13 25.0378 -390.902 24.5077 -390.472 24.1727L18.153 -288.593C18.5811 -288.918 19.1514 -288.997 19.655 -288.793L495.624 -91.411C495.954 -91.2656 496.227 -91.0083 496.389 -90.698ZM560.767 419.492L493.646 -88.9279L19.3022 -285.649L-387.933 26.0578L-320.813 534.477L153.543 731.19L560.767 419.492Z" fill="#151869" fill-opacity="0.13"/>
</g>
</g>
<g opacity="0.75">
<g opacity="0.75">
<path opacity="0.75" d="M549.81 -71.5127C549.911 -71.3239 549.966 -71.1022 549.98 -70.877L574.056 476.022C574.079 476.563 573.812 477.077 573.359 477.367L111.313 770.948C110.86 771.239 110.278 771.265 109.802 771.015L-376.321 517.697C-376.797 517.446 -377.112 516.959 -377.135 516.418L-401.221 -30.4827C-401.244 -31.0235 -400.977 -31.5372 -400.524 -31.8278L61.5225 -325.409C61.9754 -325.699 62.5573 -325.726 63.0331 -325.475L549.166 -72.1553C549.446 -72.0082 549.673 -71.7885 549.81 -71.5127ZM570.986 475.276L546.989 -69.8772L62.4254 -322.383L-398.151 -29.7367L-374.154 515.417L110.42 767.924L570.986 475.276Z" fill="#151869" fill-opacity="0.13"/>
</g>
</g>
<g opacity="0.75">
<g opacity="0.75">
<path opacity="0.75" d="M604.655 -46.2273C604.779 -45.9942 604.837 -45.7314 604.823 -45.4601L579.627 536.366C579.609 536.91 579.296 537.396 578.809 537.65L61.9175 805.946C61.4415 806.192 60.8578 806.167 60.4082 805.881L-431.287 492.351C-431.747 492.063 -432.006 491.544 -431.99 491.01L-406.792 -90.8262C-406.774 -91.3704 -406.462 -91.8563 -405.974 -92.1109L110.917 -360.406C111.393 -360.653 111.977 -360.628 112.437 -360.34L604.132 -46.8095C604.35 -46.6523 604.531 -46.4604 604.655 -46.2273ZM576.629 535.368L601.751 -44.7066L111.534 -357.306L-403.796 -89.8187L-428.918 490.256L61.3005 802.845L576.629 535.368Z" fill="#151869" fill-opacity="0.13"/>
</g>
</g>
</g>
</svg>
