<svg width="46" height="39" viewBox="0 0 46 39" fill="none" xmlns="http://www.w3.org/2000/svg">
<path d="M9.27295 13.1413L9.61503 12.5181L11.5941 13.1805L10.0172 11.7843L10.3476 11.1815L13.206 12.7446L12.9707 13.172L11.025 12.1214L12.7421 13.5891L12.5435 13.9518L10.4026 13.2298L12.3099 14.3758L12.073 14.8065L9.27295 13.1413Z" fill="#151869" fill-opacity="0.44"/>
<path d="M13.4312 12.0976C13.1992 12.089 12.9523 11.9682 12.6886 11.7332L11.7792 10.921C11.5156 10.686 11.367 10.4528 11.3303 10.2229C11.2936 9.99134 11.3904 9.74445 11.6157 9.48054C11.8409 9.21832 12.0679 9.09062 12.2998 9.09573C12.5301 9.10084 12.7771 9.22002 13.0374 9.45329L13.9501 10.2672C14.2104 10.5004 14.3606 10.7337 14.399 10.9687C14.4374 11.2037 14.3439 11.4522 14.1187 11.7145C13.8934 11.9784 13.6631 12.1061 13.4312 12.0976ZM13.8267 11.1458C13.795 11.0657 13.7282 10.9806 13.6281 10.8904L12.475 9.86023C12.3749 9.76999 12.2848 9.71551 12.203 9.69678C12.123 9.67805 12.0445 9.7104 11.9711 9.79723C11.8977 9.88237 11.876 9.9658 11.9044 10.0441C11.9344 10.1224 11.9995 10.2076 12.0996 10.2978L13.2526 11.3279C13.3544 11.4199 13.4462 11.4761 13.528 11.4965C13.6081 11.5186 13.6865 11.4846 13.7632 11.3961C13.8383 11.3092 13.8584 11.2258 13.8267 11.1458Z" fill="#151869" fill-opacity="0.44"/>
<path d="M13.0376 8.04682L13.3997 7.75736L15.0049 8.65808L13.967 7.30445L14.3992 6.9588L16.3983 9.56221L16.0479 9.84145L14.3759 8.85389L15.4805 10.2944L15.0367 10.6485L13.0376 8.04682Z" fill="#151869" fill-opacity="0.44"/>
<path d="M15.27 6.3987L16.5115 5.71082L16.7301 6.11946L16.066 6.48894L16.4765 7.26026L16.9904 6.97591L17.2107 7.38796L16.6967 7.67231L17.1823 8.58324L17.8531 8.21036L18.0667 8.61219L16.8185 9.30518L15.27 6.3987Z" fill="#151869" fill-opacity="0.44"/>
<path d="M18.3537 7.09008L17.1006 5.42656L17.6846 5.21372L18.3955 6.19106L18.3137 4.98556L18.8827 4.77783L18.9528 6.87213L19.385 8.10658L18.7859 8.32452L18.3537 7.09008Z" fill="#151869" fill-opacity="0.44"/>
<path d="M21.0288 4.31115L21.8498 4.24474C22.1635 4.2192 22.4121 4.26177 22.594 4.37074C22.7759 4.47971 22.881 4.69595 22.9061 5.01946C22.9211 5.21527 22.8927 5.37192 22.821 5.49111C22.7492 5.6103 22.6374 5.69032 22.4889 5.72948C22.6791 5.7414 22.8276 5.81121 22.9328 5.93891C23.0379 6.06662 23.0996 6.2488 23.118 6.48548C23.168 7.13079 22.8794 7.47984 22.2519 7.53092L21.2858 7.60925L21.0288 4.31115ZM22.0901 7.06779C22.2503 7.05417 22.3587 7.00479 22.4171 6.91796C22.4755 6.83112 22.4989 6.70001 22.4856 6.52294C22.4705 6.33223 22.4255 6.19942 22.3521 6.1228C22.2786 6.04618 22.1602 6.01383 21.9966 6.02745L21.8214 6.04108L21.9032 7.08312L22.0901 7.06779ZM21.9532 5.57624C22.1134 5.56262 22.2186 5.51835 22.272 5.44003C22.3254 5.3617 22.3454 5.24252 22.332 5.08246C22.3204 4.93603 22.2753 4.83387 22.1952 4.77598C22.1151 4.71809 21.9983 4.69595 21.8414 4.70787L21.718 4.71809L21.7864 5.58986L21.9532 5.57624Z" fill="#151869" fill-opacity="0.44"/>
<path d="M24.3794 4.23627L25.107 4.31459L25.3856 7.67058L24.7799 7.60418L24.7365 6.86862L24.2276 6.81413L24.029 7.52415L23.4116 7.45775L24.3794 4.23627ZM24.7165 6.44976L24.6598 5.10464L24.3311 6.40719L24.7165 6.44976Z" fill="#151869" fill-opacity="0.44"/>
<path d="M25.886 7.55824C25.7992 7.33518 25.8059 7.05254 25.9026 6.7103L26.2264 5.57291C26.3265 5.22215 26.47 4.97867 26.6586 4.84075C26.8471 4.70283 27.1074 4.6824 27.4395 4.78116C27.7565 4.8748 27.9601 5.02124 28.0469 5.21875C28.1336 5.41626 28.1353 5.66315 28.0502 5.95771L27.9735 6.22503L27.3594 6.04285L27.4428 5.74828C27.4695 5.65463 27.4862 5.57631 27.4945 5.51672C27.5012 5.45712 27.4929 5.40264 27.4662 5.35326C27.4395 5.30388 27.3878 5.26812 27.311 5.24599C27.1959 5.21194 27.1108 5.22726 27.0557 5.29367C27.0006 5.36007 26.9522 5.46564 26.9105 5.61207L26.4984 7.05424C26.4566 7.20408 26.4433 7.31986 26.4616 7.40499C26.4783 7.49013 26.5401 7.54802 26.6452 7.57867C26.752 7.61102 26.8321 7.59399 26.8838 7.52929C26.9355 7.46459 26.9823 7.35732 27.024 7.21259L27.1124 6.9027L27.7265 7.08489L27.6514 7.3471C27.5646 7.65018 27.4328 7.86472 27.2543 7.99242C27.0757 8.12012 26.8271 8.13545 26.5067 8.0401C26.1813 7.94134 25.9727 7.78129 25.886 7.55824Z" fill="#151869" fill-opacity="0.44"/>
<path d="M29.2202 5.45715L29.8059 5.75853L29.1918 7.0066L30.3315 6.02755L30.9039 6.32041L29.7058 7.36927L29.4905 9.29671L28.8932 8.99022L29.0967 7.44078L28.9215 7.55146L28.3508 8.71098L27.7651 8.40961L29.2202 5.45715Z" fill="#151869" fill-opacity="0.44"/>
<path d="M17.3679 29.7697L17.997 30.0847L17.4563 32.1382L18.7362 30.4542L19.3436 30.7573L17.9719 33.754L17.5414 33.5378L18.4625 31.4979L17.1209 33.3283L16.7538 33.1444L17.3428 30.9241L16.3266 32.9299L15.8911 32.712L17.3679 29.7697Z" fill="#151869" fill-opacity="0.44"/>
<path d="M19.1299 33.8936C19.0315 33.679 19.0231 33.3981 19.1083 33.0525L19.4003 31.8555C19.4854 31.5098 19.6189 31.268 19.8041 31.1284C19.9893 30.9905 20.2479 30.9633 20.5817 31.0484C20.9137 31.1318 21.129 31.28 21.2291 31.4928C21.3292 31.7056 21.3393 31.9832 21.2542 32.3254L20.9605 33.5258C20.877 33.8697 20.7419 34.1115 20.5533 34.2546C20.3664 34.3959 20.1061 34.4248 19.7757 34.3414C19.4453 34.2563 19.2284 34.1081 19.1299 33.8936ZM20.1395 33.817C20.1946 33.7506 20.2396 33.6518 20.2713 33.5207L20.6418 32.0036C20.6735 31.8708 20.6801 31.7635 20.6601 31.6818C20.6401 31.6001 20.5767 31.5456 20.4665 31.5166C20.3581 31.4894 20.2763 31.5064 20.2213 31.5694C20.1662 31.6324 20.1228 31.7295 20.0894 31.8623L19.719 33.3794C19.6856 33.5139 19.6789 33.6229 19.6973 33.7063C19.7156 33.7897 19.7807 33.8459 19.8909 33.8732C20.001 33.9021 20.0844 33.8834 20.1395 33.817Z" fill="#151869" fill-opacity="0.44"/>
<path d="M21.79 31.36L22.2489 31.3855L22.8797 33.141L22.9698 31.4247L23.5171 31.4536L23.3452 34.7568L22.9014 34.733L22.2773 32.8669L22.1822 34.6938L21.6182 34.6632L21.79 31.36Z" fill="#151869" fill-opacity="0.44"/>
<path d="M23.8838 31.4212L25.2871 31.2527L25.3405 31.7158L24.5896 31.8061L24.6898 32.6778L25.2704 32.608L25.3238 33.0746L24.7431 33.1444L24.8616 34.1745L25.6209 34.0842L25.6726 34.5389L24.2609 34.7074L23.8838 31.4212Z" fill="#151869" fill-opacity="0.44"/>
<path d="M26.4639 33.0065L25.3242 31.2595L25.9216 31.0876L26.5657 32.1109L26.564 30.902L27.1464 30.7351L27.0763 32.8294L27.4251 34.0911L26.8127 34.2665L26.4639 33.0065Z" fill="#151869" fill-opacity="0.44"/>
<path d="M28.1973 30.2686L28.9031 29.8345C29.1734 29.6693 29.4137 29.5927 29.624 29.608C29.8359 29.6233 30.0228 29.7698 30.1863 30.0456C30.2848 30.2142 30.3281 30.3674 30.3165 30.507C30.3031 30.6466 30.2397 30.7675 30.1229 30.8714C30.2981 30.7948 30.4616 30.7897 30.6118 30.8561C30.762 30.9225 30.8972 31.057 31.0156 31.2613C31.3427 31.8164 31.2376 32.2591 30.6986 32.5911L29.8693 33.1002L28.1973 30.2686ZM29.5789 30.9787C29.7157 30.8952 29.7908 30.805 29.8042 30.7113C29.8175 30.6177 29.7825 30.5019 29.7024 30.364C29.6273 30.238 29.5422 30.1682 29.4471 30.1512C29.3503 30.1358 29.2352 30.1699 29.1 30.2516L28.9932 30.3163L29.4354 31.0655L29.5789 30.9787ZM30.3548 32.2523C30.4917 32.1671 30.5684 32.0735 30.5818 31.9696C30.5968 31.8658 30.5584 31.7381 30.47 31.5865C30.3732 31.4231 30.2748 31.3243 30.1746 31.2885C30.0745 31.2528 29.9544 31.2783 29.8159 31.3635L29.6657 31.4554L30.1947 32.351L30.3548 32.2523Z" fill="#151869" fill-opacity="0.44"/>
<path d="M30.3667 28.7839L30.9124 28.285L33.5405 30.3231L33.0883 30.7369L32.5226 30.2772L32.1405 30.6262L32.5226 31.2528L32.0604 31.6751L30.3667 28.7839ZM32.2022 30.0116L31.186 29.1534L31.9136 30.2755L32.2022 30.0116Z" fill="#151869" fill-opacity="0.44"/>
<path d="M33.9529 29.4819C33.7176 29.4819 33.4623 29.3729 33.1869 29.155L32.2692 28.4296C31.9872 28.2066 31.817 27.9801 31.7602 27.7503C31.7035 27.5204 31.7803 27.2667 31.9939 26.9858C32.1958 26.7184 32.4043 26.5805 32.6163 26.5703C32.8282 26.5601 33.0534 26.6503 33.2921 26.8376L33.5073 27.0079L33.1152 27.5238L32.8782 27.3365C32.8015 27.2769 32.7381 27.2326 32.6863 27.202C32.6346 27.173 32.5812 27.1611 32.5262 27.1696C32.4728 27.1765 32.421 27.2122 32.371 27.2769C32.2975 27.374 32.2809 27.4608 32.3209 27.5374C32.361 27.614 32.4394 27.6992 32.5579 27.7911L33.7226 28.7106C33.8427 28.8059 33.9445 28.8604 34.0279 28.874C34.1114 28.8877 34.1865 28.8519 34.2532 28.7634C34.3216 28.6731 34.3366 28.5914 34.2949 28.5182C34.2549 28.445 34.1748 28.3615 34.0563 28.2679L33.806 28.0704L34.1981 27.5544L34.4101 27.7213C34.6554 27.9154 34.8022 28.1197 34.8523 28.3343C34.9023 28.5505 34.8256 28.7923 34.622 29.0613C34.4101 29.3423 34.1881 29.4819 33.9529 29.4819Z" fill="#151869" fill-opacity="0.44"/>
<path d="M32.7144 26.0493L33.0147 25.4534L34.2328 26.0919L33.2834 24.9205L33.5754 24.3398L34.5933 25.5709L36.4805 25.8076L36.1752 26.4137L34.6583 26.1924L34.7651 26.3728L35.8965 26.9654L35.5961 27.5613L32.7144 26.0493Z" fill="#151869" fill-opacity="0.44"/>
<path d="M14.4356 20.003L15.2616 23.2637L15.7789 23.0917L14.5674 19.9588L14.4356 20.003ZM18.6857 18.5728L18.6072 18.5983L19.0027 19.8413L19.3631 19.7221C19.555 19.6591 19.5851 19.4224 19.4549 19.0155C19.3682 18.7448 19.2764 18.5847 19.1763 18.5336C19.0795 18.4842 18.9143 18.4962 18.6857 18.5728ZM23.0776 17.134L23.9036 20.3947L24.4209 20.2227L23.2094 17.0897L23.0776 17.134ZM40.9139 7.70455L38.7313 8.42819C34.054 1.51529 25.3086 -1.7726 17.0888 0.956806C8.86894 3.68621 3.69275 11.5952 3.89633 19.9928L1.71372 20.7165L0 24.1542L1.71872 29.5449L5.08608 31.2935L7.26869 30.5699C11.9459 37.4828 20.6914 40.7707 28.9112 38.0413C37.1311 35.3136 42.3073 27.4046 42.1037 19.0053L44.2863 18.2816L46 14.8456L44.2813 9.45491L40.9139 7.70455ZM17.2623 1.50167C25.1851 -1.12898 33.6135 1.99885 38.1756 8.61378L37.3697 8.8811C32.9744 2.69695 25.0066 -0.204425 17.5109 2.2849C10.0153 4.77252 5.24627 11.9017 5.25795 19.5416L4.45199 19.8089C4.32684 11.7212 9.33783 4.13231 17.2623 1.50167ZM37.2963 13.8989L37.6951 15.1504L36.3334 15.6016L36.8174 17.1204L38.3308 16.6181L38.7463 17.919L35.7661 18.9082L33.6402 12.2439L36.527 11.2853L36.9392 12.5776L35.5208 13.0493L35.9363 14.3501L37.2963 13.8989ZM29.018 11.6548C26.5451 9.68477 23.1877 8.96283 19.9806 10.027C16.7734 11.0912 14.474 13.6912 13.6113 16.7696L5.81862 19.356C5.8837 12.026 10.4875 5.21863 17.6861 2.82806C24.8848 0.43919 32.5322 3.18051 36.8123 9.0684L29.018 11.6548ZM30.1143 14.8354L29.7055 13.5516L32.8626 12.5044L33.2714 13.7882L32.4138 14.0726L34.1291 19.4531L32.6857 19.9315L30.9704 14.551L30.1143 14.8354ZM22.1331 13.6963L21.1753 13.5158L20.5062 14.236L20.3794 13.2519L19.5 12.8245L20.3777 12.3971L20.5045 11.413L21.1753 12.1332L22.1331 11.9527L21.6692 12.8262L22.1331 13.6963ZM23.9253 24.963L24.8831 25.1434L25.5522 24.4232L25.679 25.4074L26.5584 25.8347L25.6807 26.2621L25.5539 27.2463L24.8831 26.526L23.9253 26.7065L24.3892 25.833L23.9253 24.963ZM25.3403 22.3698L24.9181 21.3992L24.1889 21.641L24.4192 22.6746L23.0175 23.1394L21.6309 16.2299L23.8902 15.4807L26.737 21.9049L25.3403 22.3698ZM24.5627 12.7513L23.8836 12.6236L23.408 13.1344L23.3179 12.4363L22.6938 12.1332L23.3162 11.8302L23.4063 11.1321L23.8819 11.6429L24.561 11.5152L24.2323 12.1349L24.5627 12.7513ZM26.9072 24.1116L27.5863 24.2393L28.0619 23.7285L28.152 24.4266L28.7761 24.7297L28.1537 25.0328L28.0636 25.7309L27.588 25.2201L26.9088 25.3478L27.2376 24.728L26.9072 24.1116ZM27.5129 21.6478L25.3887 14.9835L26.8721 14.4914L28.5525 17.4592L27.5363 14.2718L28.9296 13.8087L31.0538 20.473L29.6438 20.9412L27.8583 17.8457L28.9212 21.1796L27.5129 21.6478ZM21.4957 25.908L22.1748 26.0357L22.6504 25.5248L22.7405 26.2229L23.3646 26.526L22.7422 26.8291L22.6521 27.5272L22.1765 27.0164L21.4974 27.1441L21.8261 26.5243L21.4957 25.908ZM21.0101 19.1738C21.0235 19.3032 21.0185 19.4173 20.9984 19.5127C20.9784 19.6097 20.9334 19.7119 20.8633 19.8209C20.7932 19.9298 20.6981 20.0286 20.5779 20.1137C20.7198 20.095 20.8449 20.1052 20.9551 20.1444C21.0635 20.1835 21.1536 20.2465 21.2237 20.3351C21.2938 20.4219 21.3489 20.507 21.3906 20.5871C21.4306 20.6671 21.469 20.7607 21.5024 20.8663C21.8545 21.9679 22.1148 22.8074 22.2866 23.3812L20.8766 23.8494L20.049 21.2511C20.0156 21.1472 19.9789 21.0689 19.9388 21.0144C19.8988 20.9599 19.8471 20.9293 19.782 20.9208C19.7169 20.9123 19.6585 20.9157 19.6051 20.9259C19.5517 20.9378 19.4716 20.9617 19.3648 20.9957L20.3326 24.0282L18.8726 24.5135L16.7484 17.8491L18.9627 17.1136C19.1896 17.0387 19.3932 17.0046 19.5751 17.0148C19.757 17.0233 19.9105 17.0642 20.0356 17.1357C20.1608 17.2072 20.2776 17.3179 20.3844 17.4694C20.4912 17.621 20.5796 17.7776 20.6497 17.9411C20.7198 18.1045 20.7932 18.3055 20.87 18.5455C20.91 18.6715 20.94 18.7737 20.9617 18.8554C20.9801 18.9372 20.9968 19.0427 21.0101 19.1738ZM19.1512 14.5476L18.4721 14.4199L17.9965 14.9307L17.9064 14.2326L17.2823 13.9296L17.9047 13.6265L17.9948 12.9284L18.4704 13.4392L19.1496 13.3115L18.8208 13.9313L19.1512 14.5476ZM18.0916 24.7757L16.6983 25.2388L16.2761 24.2683L15.5469 24.51L15.7772 25.5436L14.3755 26.0084L12.9889 19.0989L15.2482 18.3497L18.0916 24.7757ZM7.98955 20.759L9.39123 20.2942L10.9214 25.0924C10.9448 25.1656 10.9631 25.2218 10.9781 25.2626C10.9931 25.3035 11.0182 25.3597 11.0532 25.4278C11.0883 25.4959 11.125 25.547 11.1617 25.581C11.1984 25.6151 11.2451 25.6406 11.3018 25.6577C11.3586 25.6747 11.4203 25.6713 11.4887 25.6491C11.5455 25.6304 11.5922 25.6032 11.6289 25.5708C11.6656 25.5368 11.689 25.4959 11.7007 25.4482C11.7123 25.3988 11.719 25.3546 11.7223 25.312C11.7257 25.2694 11.719 25.215 11.7057 25.152C11.6906 25.0873 11.679 25.0379 11.6706 25.0038C11.6606 24.9698 11.6473 24.9221 11.6272 24.8608L10.0971 20.0626L11.4987 19.5978L13.0606 24.4964C13.2525 25.0992 13.2575 25.6032 13.074 26.0101C12.8904 26.4171 12.4999 26.7167 11.8992 26.9125C11.2902 27.1169 10.7946 27.1117 10.4124 26.8921C10.0303 26.6742 9.74332 26.2638 9.55142 25.6611L7.98955 20.759ZM16.982 27.3467C19.4549 29.3167 22.8123 30.0387 26.0194 28.9745C29.2266 27.9103 31.526 25.3103 32.3887 22.2319L40.1814 19.6455C40.1163 26.9755 35.5125 33.7829 28.3155 36.1734C21.1169 38.5623 13.4694 35.821 9.18932 29.9331L16.982 27.3467ZM4.9626 26.9364L4.0415 24.0503C3.94138 23.7353 3.89466 23.4476 3.90133 23.1854C3.90801 22.9231 3.95139 22.7103 4.02982 22.5434C4.10824 22.3766 4.22171 22.2284 4.37022 22.0956C4.51874 21.9628 4.6589 21.8624 4.79406 21.796C4.92756 21.7279 5.07774 21.6666 5.24127 21.6121C5.44317 21.5457 5.63173 21.498 5.80527 21.4742C5.97882 21.4486 6.134 21.4469 6.2725 21.4691C6.411 21.4912 6.53782 21.5252 6.65129 21.5712C6.76642 21.6172 6.86988 21.6887 6.96499 21.7806C7.06011 21.8743 7.14354 21.9696 7.21529 22.0684C7.28705 22.1672 7.35713 22.2897 7.42554 22.4379C7.49396 22.586 7.55236 22.7256 7.60242 22.8584C7.65248 22.9895 7.70588 23.1462 7.76261 23.3284L6.3843 23.7864L6.21576 23.2586C6.18239 23.153 6.14234 23.0679 6.09896 23.0066C6.05557 22.9436 6.00885 22.9044 5.95879 22.8891C5.9104 22.8738 5.86701 22.8653 5.83197 22.867C5.79526 22.8687 5.75688 22.8755 5.71683 22.8891C5.63507 22.9163 5.57166 22.9487 5.52828 22.9878C5.48489 23.027 5.45486 23.0679 5.4365 23.1104C5.41814 23.153 5.41648 23.2211 5.43149 23.3131C5.44651 23.405 5.46487 23.4918 5.48656 23.5702C5.50825 23.6485 5.54663 23.7728 5.60003 23.9396L6.42101 26.5158C6.45271 26.6129 6.48108 26.6946 6.50945 26.7593C6.53782 26.824 6.5762 26.8921 6.62626 26.9619C6.67632 27.0317 6.73472 27.0777 6.80313 27.0998C6.87155 27.122 6.94998 27.1186 7.03841 27.0896C7.18359 27.0419 7.26202 26.9517 7.27203 26.8206C7.28371 26.6895 7.247 26.4937 7.16356 26.2349L6.91827 25.4653L6.53281 25.593L6.16571 24.4419L7.91279 23.8613L9.15094 27.7434L8.5886 27.9307L8.16309 27.4472C8.04295 27.9597 7.71422 28.3036 7.17858 28.4824C6.14068 28.8246 5.40146 28.3104 4.9626 26.9364ZM28.7377 37.4981C20.8149 40.1288 12.3865 37.0009 7.82435 30.386L8.63032 30.1187C13.0272 36.3045 20.9934 39.2042 28.4891 36.7166C35.9847 34.229 40.7537 27.0998 40.742 19.4599L41.548 19.1926C41.6732 27.2803 36.6622 34.8692 28.7377 37.4981ZM42.616 16.6334L39.6357 17.6227L37.5115 10.9584L40.3983 9.99977L40.8105 11.2921L39.3921 11.7637L39.8076 13.0646L41.1692 12.6134L41.568 13.8649L40.2064 14.3161L40.6903 15.8349L42.2038 15.3326L42.616 16.6334Z" fill="#151869" fill-opacity="0.44"/>
</svg>
