<svg width="31" height="31" viewBox="0 0 31 31" fill="none" xmlns="http://www.w3.org/2000/svg">
<g clip-path="url(#clip0_2_4698)">
<rect width="31" height="31" fill="url(#paint0_linear_2_4698)"/>
<path d="M30.4653 13.8966C30.7605 13.8966 30.9998 13.6573 30.9998 13.3621V10.6897C30.9998 10.0993 30.5212 9.62076 29.9308 9.62076H1.06872C0.478348 9.62076 -0.000244141 10.0993 -0.000244141 10.6897V13.3621C-0.000244141 13.6573 0.239052 13.8966 0.534239 13.8966H30.4653Z" fill="#777ABD"/>
<path d="M-0.000233027 26.853C-0.0013115 26.6862 0.0761544 26.5285 0.208905 26.4274C0.341657 26.3263 0.514233 26.2935 0.674819 26.3389C5.04615 27.5092 9.6407 27.5681 14.0406 26.5104C21.2781 24.846 24.1076 24.9364 30.508 25.4607C30.7864 25.483 31.0007 25.7159 30.9998 25.9952V30.4656C30.9998 30.7608 30.7605 31.0001 30.4653 31.0001H0.53425C0.239063 31.0001 -0.000233027 30.7608 -0.000233027 30.4656V26.853Z" fill="#777ABD"/>
<path d="M30.4655 16.0344C30.7607 16.0344 31 16.2737 31 16.5689V22.785C30.9991 22.9345 30.9356 23.0769 30.8249 23.1774C30.7142 23.278 30.5664 23.3276 30.4174 23.3141C28.2448 23.135 26.0635 22.971 24.0624 22.9827C16.9431 23.0239 13.8431 25.1207 7.5576 25.1207C5.12701 25.1365 2.70709 24.798 0.374148 24.1158C0.150336 24.0454 -0.00141072 23.8373 9.89013e-06 23.6027V16.5689C9.89013e-06 16.2737 0.239306 16.0344 0.534493 16.0344H30.4655Z" fill="#777ABD"/>
<path d="M18.7099 9.53674e-07C18.7099 9.53674e-07 17.9718 2.59759 17.9451 17.3707C17.9451 18.4022 16.9167 19.2414 15.6516 19.2414C14.4223 19.2414 13.4175 18.4503 13.364 17.4562V16.7079C13.5703 2.05241 18.7099 9.53674e-07 18.7099 9.53674e-07V9.53674e-07Z" fill="#151869"/>
<path d="M10.1551 0.534422C10.1551 0.534422 9.71259 1.77282 9.69602 10.6399C9.61863 11.3259 9.00732 11.8245 8.31972 11.7623C7.97697 11.7957 7.63561 11.6863 7.37607 11.4599C7.11654 11.2336 6.96177 10.9102 6.94824 10.5661C7.2716 1.77442 10.1551 0.534422 10.1551 0.534422Z" fill="#151869"/>
<path d="M25.6583 0.534422C25.6583 0.534422 25.2153 1.77282 25.1992 10.6399C25.1216 11.326 24.5101 11.8245 23.8224 11.7623C23.4792 11.7963 23.1373 11.6872 22.8772 11.4608C22.6171 11.2344 22.4619 10.9107 22.4482 10.5661C22.7743 1.77442 25.6583 0.534422 25.6583 0.534422Z" fill="#151869"/>
<path d="M2.67218 18.7069C2.96736 18.7069 3.20666 18.4676 3.20666 18.1724C3.20666 17.8772 2.96736 17.6379 2.67218 17.6379C2.37699 17.6379 2.1377 17.8772 2.1377 18.1724C2.1377 18.4676 2.37699 18.7069 2.67218 18.7069Z" fill="#777ABD"/>
<path d="M4.81012 18.7069C5.1053 18.7069 5.3446 18.4676 5.3446 18.1724C5.3446 17.8772 5.1053 17.6379 4.81012 17.6379C4.51493 17.6379 4.27563 17.8772 4.27563 18.1724C4.27563 18.4676 4.51493 18.7069 4.81012 18.7069Z" fill="#777ABD"/>
<path d="M6.94806 18.7069C7.24324 18.7069 7.48254 18.4676 7.48254 18.1724C7.48254 17.8772 7.24324 17.6379 6.94806 17.6379C6.65287 17.6379 6.41357 17.8772 6.41357 18.1724C6.41357 18.4676 6.65287 18.7069 6.94806 18.7069Z" fill="#777ABD"/>
<path d="M9.086 18.7069C9.38118 18.7069 9.62048 18.4676 9.62048 18.1724C9.62048 17.8772 9.38118 17.6379 9.086 17.6379C8.79081 17.6379 8.55151 17.8772 8.55151 18.1724C8.55151 18.4676 8.79081 18.7069 9.086 18.7069Z" fill="#777ABD"/>
<path d="M11.2239 18.7069C11.5191 18.7069 11.7584 18.4676 11.7584 18.1724C11.7584 17.8772 11.5191 17.6379 11.2239 17.6379C10.9287 17.6379 10.6895 17.8772 10.6895 18.1724C10.6895 18.4676 10.9287 18.7069 11.2239 18.7069Z" fill="#777ABD"/>
<path d="M10.1548 20.3104C10.45 20.3104 10.6893 20.0711 10.6893 19.7759C10.6893 19.4807 10.45 19.2414 10.1548 19.2414C9.85966 19.2414 9.62036 19.4807 9.62036 19.7759C9.62036 20.0711 9.85966 20.3104 10.1548 20.3104Z" fill="#777ABD"/>
<path d="M8.01691 20.3104C8.31209 20.3104 8.55139 20.0711 8.55139 19.7759C8.55139 19.4807 8.31209 19.2414 8.01691 19.2414C7.72172 19.2414 7.48242 19.4807 7.48242 19.7759C7.48242 20.0711 7.72172 20.3104 8.01691 20.3104Z" fill="#777ABD"/>
<path d="M5.87896 20.3104C6.17415 20.3104 6.41345 20.0711 6.41345 19.7759C6.41345 19.4807 6.17415 19.2414 5.87896 19.2414C5.58378 19.2414 5.34448 19.4807 5.34448 19.7759C5.34448 20.0711 5.58378 20.3104 5.87896 20.3104Z" fill="#777ABD"/>
<path d="M3.74102 20.3104C4.03621 20.3104 4.27551 20.0711 4.27551 19.7759C4.27551 19.4807 4.03621 19.2414 3.74102 19.2414C3.44584 19.2414 3.20654 19.4807 3.20654 19.7759C3.20654 20.0711 3.44584 20.3104 3.74102 20.3104Z" fill="#777ABD"/>
<path d="M2.67218 21.9138C2.96736 21.9138 3.20666 21.6745 3.20666 21.3793C3.20666 21.0841 2.96736 20.8448 2.67218 20.8448C2.37699 20.8448 2.1377 21.0841 2.1377 21.3793C2.1377 21.6745 2.37699 21.9138 2.67218 21.9138Z" fill="#777ABD"/>
<path d="M4.81012 21.9138C5.1053 21.9138 5.3446 21.6745 5.3446 21.3793C5.3446 21.0841 5.1053 20.8448 4.81012 20.8448C4.51493 20.8448 4.27563 21.0841 4.27563 21.3793C4.27563 21.6745 4.51493 21.9138 4.81012 21.9138Z" fill="#777ABD"/>
<path d="M6.94806 21.9138C7.24324 21.9138 7.48254 21.6745 7.48254 21.3793C7.48254 21.0841 7.24324 20.8448 6.94806 20.8448C6.65287 20.8448 6.41357 21.0841 6.41357 21.3793C6.41357 21.6745 6.65287 21.9138 6.94806 21.9138Z" fill="#777ABD"/>
<path d="M9.086 21.9138C9.38118 21.9138 9.62048 21.6745 9.62048 21.3793C9.62048 21.0841 9.38118 20.8448 9.086 20.8448C8.79081 20.8448 8.55151 21.0841 8.55151 21.3793C8.55151 21.6745 8.79081 21.9138 9.086 21.9138Z" fill="#777ABD"/>
<path d="M3.74102 23.5172C4.03621 23.5172 4.27551 23.278 4.27551 22.9828C4.27551 22.6876 4.03621 22.4483 3.74102 22.4483C3.44584 22.4483 3.20654 22.6876 3.20654 22.9828C3.20654 23.278 3.44584 23.5172 3.74102 23.5172Z" fill="#777ABD"/>
<path d="M5.87896 23.5172C6.17415 23.5172 6.41345 23.278 6.41345 22.9828C6.41345 22.6876 6.17415 22.4483 5.87896 22.4483C5.58378 22.4483 5.34448 22.6876 5.34448 22.9828C5.34448 23.278 5.58378 23.5172 5.87896 23.5172Z" fill="#777ABD"/>
<path d="M8.01691 23.5172C8.31209 23.5172 8.55139 23.278 8.55139 22.9828C8.55139 22.6876 8.31209 22.4483 8.01691 22.4483C7.72172 22.4483 7.48242 22.6876 7.48242 22.9828C7.48242 23.278 7.72172 23.5172 8.01691 23.5172Z" fill="#777ABD"/>
<path d="M10.1548 23.5172C10.45 23.5172 10.6893 23.278 10.6893 22.9828C10.6893 22.6876 10.45 22.4483 10.1548 22.4483C9.85966 22.4483 9.62036 22.6876 9.62036 22.9828C9.62036 23.278 9.85966 23.5172 10.1548 23.5172Z" fill="#777ABD"/>
<path d="M12.2928 23.5172C12.588 23.5172 12.8273 23.278 12.8273 22.9828C12.8273 22.6876 12.588 22.4483 12.2928 22.4483C11.9976 22.4483 11.7583 22.6876 11.7583 22.9828C11.7583 23.278 11.9976 23.5172 12.2928 23.5172Z" fill="#777ABD"/>
<path d="M11.2239 21.9138C11.5191 21.9138 11.7584 21.6745 11.7584 21.3793C11.7584 21.0841 11.5191 20.8448 11.2239 20.8448C10.9287 20.8448 10.6895 21.0841 10.6895 21.3793C10.6895 21.6745 10.9287 21.9138 11.2239 21.9138Z" fill="#777ABD"/>
<path d="M12.2928 20.3104C12.588 20.3104 12.8273 20.0711 12.8273 19.7759C12.8273 19.4807 12.588 19.2414 12.2928 19.2414C11.9976 19.2414 11.7583 19.4807 11.7583 19.7759C11.7583 20.0711 11.9976 20.3104 12.2928 20.3104Z" fill="#777ABD"/>
<path d="M13.3619 21.9138C13.6571 21.9138 13.8964 21.6745 13.8964 21.3793C13.8964 21.0841 13.6571 20.8448 13.3619 20.8448C13.0667 20.8448 12.8274 21.0841 12.8274 21.3793C12.8274 21.6745 13.0667 21.9138 13.3619 21.9138Z" fill="#777ABD"/>
<path d="M15.4998 21.9138C15.795 21.9138 16.0343 21.6745 16.0343 21.3793C16.0343 21.0841 15.795 20.8448 15.4998 20.8448C15.2046 20.8448 14.9653 21.0841 14.9653 21.3793C14.9653 21.6745 15.2046 21.9138 15.4998 21.9138Z" fill="#777ABD"/>
<path d="M17.6378 21.9138C17.9329 21.9138 18.1722 21.6745 18.1722 21.3793C18.1722 21.0841 17.9329 20.8448 17.6378 20.8448C17.3426 20.8448 17.1033 21.0841 17.1033 21.3793C17.1033 21.6745 17.3426 21.9138 17.6378 21.9138Z" fill="#777ABD"/>
<path d="M28.3274 18.7069C28.6226 18.7069 28.8619 18.4676 28.8619 18.1724C28.8619 17.8772 28.6226 17.6379 28.3274 17.6379C28.0323 17.6379 27.793 17.8772 27.793 18.1724C27.793 18.4676 28.0323 18.7069 28.3274 18.7069Z" fill="#777ABD"/>
<path d="M26.1895 18.7069C26.4847 18.7069 26.724 18.4676 26.724 18.1724C26.724 17.8772 26.4847 17.6379 26.1895 17.6379C25.8943 17.6379 25.655 17.8772 25.655 18.1724C25.655 18.4676 25.8943 18.7069 26.1895 18.7069Z" fill="#777ABD"/>
<path d="M24.0516 18.7069C24.3468 18.7069 24.5861 18.4676 24.5861 18.1724C24.5861 17.8772 24.3468 17.6379 24.0516 17.6379C23.7564 17.6379 23.5171 17.8772 23.5171 18.1724C23.5171 18.4676 23.7564 18.7069 24.0516 18.7069Z" fill="#777ABD"/>
<path d="M21.9136 18.7069C22.2088 18.7069 22.4481 18.4676 22.4481 18.1724C22.4481 17.8772 22.2088 17.6379 21.9136 17.6379C21.6184 17.6379 21.3792 17.8772 21.3792 18.1724C21.3792 18.4676 21.6184 18.7069 21.9136 18.7069Z" fill="#777ABD"/>
<path d="M19.7757 18.7069C20.0709 18.7069 20.3102 18.4676 20.3102 18.1724C20.3102 17.8772 20.0709 17.6379 19.7757 17.6379C19.4805 17.6379 19.2412 17.8772 19.2412 18.1724C19.2412 18.4676 19.4805 18.7069 19.7757 18.7069Z" fill="#777ABD"/>
<path d="M20.8445 20.3104C21.1397 20.3104 21.379 20.0711 21.379 19.7759C21.379 19.4807 21.1397 19.2414 20.8445 19.2414C20.5494 19.2414 20.3101 19.4807 20.3101 19.7759C20.3101 20.0711 20.5494 20.3104 20.8445 20.3104Z" fill="#777ABD"/>
<path d="M22.9825 20.3104C23.2777 20.3104 23.517 20.0711 23.517 19.7759C23.517 19.4807 23.2777 19.2414 22.9825 19.2414C22.6873 19.2414 22.448 19.4807 22.448 19.7759C22.448 20.0711 22.6873 20.3104 22.9825 20.3104Z" fill="#777ABD"/>
<path d="M25.1204 20.3104C25.4156 20.3104 25.6549 20.0711 25.6549 19.7759C25.6549 19.4807 25.4156 19.2414 25.1204 19.2414C24.8252 19.2414 24.5859 19.4807 24.5859 19.7759C24.5859 20.0711 24.8252 20.3104 25.1204 20.3104Z" fill="#777ABD"/>
<path d="M27.2584 20.3104C27.5535 20.3104 27.7928 20.0711 27.7928 19.7759C27.7928 19.4807 27.5535 19.2414 27.2584 19.2414C26.9632 19.2414 26.7239 19.4807 26.7239 19.7759C26.7239 20.0711 26.9632 20.3104 27.2584 20.3104Z" fill="#777ABD"/>
<path d="M19.7757 21.9138C20.0709 21.9138 20.3102 21.6745 20.3102 21.3793C20.3102 21.0841 20.0709 20.8448 19.7757 20.8448C19.4805 20.8448 19.2412 21.0841 19.2412 21.3793C19.2412 21.6745 19.4805 21.9138 19.7757 21.9138Z" fill="#777ABD"/>
<path d="M21.9136 21.9138C22.2088 21.9138 22.4481 21.6745 22.4481 21.3793C22.4481 21.0841 22.2088 20.8448 21.9136 20.8448C21.6184 20.8448 21.3792 21.0841 21.3792 21.3793C21.3792 21.6745 21.6184 21.9138 21.9136 21.9138Z" fill="#777ABD"/>
<path d="M24.0516 21.9138C24.3468 21.9138 24.5861 21.6745 24.5861 21.3793C24.5861 21.0841 24.3468 20.8448 24.0516 20.8448C23.7564 20.8448 23.5171 21.0841 23.5171 21.3793C23.5171 21.6745 23.7564 21.9138 24.0516 21.9138Z" fill="#777ABD"/>
<path d="M26.1895 21.9138C26.4847 21.9138 26.724 21.6745 26.724 21.3793C26.724 21.0841 26.4847 20.8448 26.1895 20.8448C25.8943 20.8448 25.655 21.0841 25.655 21.3793C25.655 21.6745 25.8943 21.9138 26.1895 21.9138Z" fill="#777ABD"/>
<path d="M28.3274 21.9138C28.6226 21.9138 28.8619 21.6745 28.8619 21.3793C28.8619 21.0841 28.6226 20.8448 28.3274 20.8448C28.0323 20.8448 27.793 21.0841 27.793 21.3793C27.793 21.6745 28.0323 21.9138 28.3274 21.9138Z" fill="#777ABD"/>
<path d="M18.7066 20.3104C19.0018 20.3104 19.2411 20.0711 19.2411 19.7759C19.2411 19.4807 19.0018 19.2414 18.7066 19.2414C18.4114 19.2414 18.1721 19.4807 18.1721 19.7759C18.1721 20.0711 18.4114 20.3104 18.7066 20.3104Z" fill="#777ABD"/>
<path d="M28.862 27.7931H27.793C27.4978 27.7931 27.2585 27.5538 27.2585 27.2586C27.2585 26.9634 27.4978 26.7241 27.793 26.7241H28.862C29.1572 26.7241 29.3965 26.9634 29.3965 27.2586C29.3965 27.5538 29.1572 27.7931 28.862 27.7931Z" fill="#151869"/>
<path d="M25.655 27.7931H24.586C24.2908 27.7931 24.0515 27.5538 24.0515 27.2586C24.0515 26.9634 24.2908 26.7241 24.586 26.7241H25.655C25.9502 26.7241 26.1894 26.9634 26.1894 27.2586C26.1894 27.5538 25.9502 27.7931 25.655 27.7931Z" fill="#151869"/>
<path d="M22.4482 27.7931H21.3792C21.084 27.7931 20.8447 27.5538 20.8447 27.2586C20.8447 26.9634 21.084 26.7241 21.3792 26.7241H22.4482C22.7434 26.7241 22.9827 26.9634 22.9827 27.2586C22.9827 27.5538 22.7434 27.7931 22.4482 27.7931Z" fill="#151869"/>
<path d="M19.2411 27.7931H18.1722C17.877 27.7931 17.6377 27.5538 17.6377 27.2586C17.6377 26.9634 17.877 26.7241 18.1722 26.7241H19.2411C19.5363 26.7241 19.7756 26.9634 19.7756 27.2586C19.7756 27.5538 19.5363 27.7931 19.2411 27.7931Z" fill="#151869"/>
<path d="M27.2585 29.3965H26.1895C25.8943 29.3965 25.655 29.1572 25.655 28.862C25.655 28.5669 25.8943 28.3276 26.1895 28.3276H27.2585C27.5537 28.3276 27.793 28.5669 27.793 28.862C27.793 29.1572 27.5537 29.3965 27.2585 29.3965Z" fill="#151869"/>
<path d="M24.0517 29.3965H22.9827C22.6875 29.3965 22.4482 29.1572 22.4482 28.862C22.4482 28.5669 22.6875 28.3276 22.9827 28.3276H24.0517C24.3469 28.3276 24.5862 28.5669 24.5862 28.862C24.5862 29.1572 24.3469 29.3965 24.0517 29.3965Z" fill="#151869"/>
<path d="M20.8447 29.3965H19.7757C19.4805 29.3965 19.2412 29.1572 19.2412 28.862C19.2412 28.5669 19.4805 28.3276 19.7757 28.3276H20.8447C21.1399 28.3276 21.3791 28.5669 21.3791 28.862C21.3791 29.1572 21.1399 29.3965 20.8447 29.3965Z" fill="#151869"/>
<path d="M17.6379 29.3965H16.5689C16.2737 29.3965 16.0344 29.1572 16.0344 28.862C16.0344 28.5669 16.2737 28.3276 16.5689 28.3276H17.6379C17.9331 28.3276 18.1724 28.5669 18.1724 28.862C18.1724 29.1572 17.9331 29.3965 17.6379 29.3965Z" fill="#151869"/>
<path d="M14.4308 29.3965H13.3619C13.0667 29.3965 12.8274 29.1572 12.8274 28.862C12.8274 28.5669 13.0667 28.3276 13.3619 28.3276H14.4308C14.726 28.3276 14.9653 28.5669 14.9653 28.862C14.9653 29.1572 14.726 29.3965 14.4308 29.3965Z" fill="#151869"/>
<path d="M11.2241 29.3965H10.1551C9.8599 29.3965 9.62061 29.1572 9.62061 28.862C9.62061 28.5669 9.8599 28.3276 10.1551 28.3276H11.2241C11.5192 28.3276 11.7585 28.5669 11.7585 28.862C11.7585 29.1572 11.5192 29.3965 11.2241 29.3965Z" fill="#151869"/>
<path d="M8.01702 29.3965H6.94806C6.65287 29.3965 6.41357 29.1572 6.41357 28.862C6.41357 28.5669 6.65287 28.3276 6.94806 28.3276H8.01702C8.31221 28.3276 8.5515 28.5669 8.5515 28.862C8.5515 29.1572 8.31221 29.3965 8.01702 29.3965Z" fill="#151869"/>
<path d="M4.81023 29.3965H3.74127C3.44608 29.3965 3.20679 29.1572 3.20679 28.862C3.20679 28.5669 3.44608 28.3276 3.74127 28.3276H4.81023C5.10542 28.3276 5.34472 28.5669 5.34472 28.862C5.34472 29.1572 5.10542 29.3965 4.81023 29.3965Z" fill="#151869"/>
</g>
<defs>
<linearGradient id="paint0_linear_2_4698" x1="15.5" y1="0" x2="15.5" y2="31" gradientUnits="userSpaceOnUse">
<stop stop-color="white"/>
<stop offset="1" stop-color="white" stop-opacity="0"/>
</linearGradient>
<clipPath id="clip0_2_4698">
<rect width="31" height="31" fill="white"/>
</clipPath>
</defs>
</svg>
