<svg width="31" height="31" viewBox="0 0 31 31" fill="none" xmlns="http://www.w3.org/2000/svg">
<g clip-path="url(#clip0_2_2315)">
<rect width="31" height="31" fill="url(#paint0_linear_2_2315)"/>
<path d="M30.4655 13.8966C30.7607 13.8966 31 13.6573 31 13.3621V10.6897C31 10.0993 30.5214 9.62075 29.931 9.62075H1.06897C0.478592 9.62075 0 10.0993 0 10.6897V13.3621C0 13.6573 0.239296 13.8966 0.534483 13.8966H30.4655Z" fill="#A56A43"/>
<path d="M1.11136e-05 26.853C-0.00106735 26.6862 0.0763986 26.5285 0.20915 26.4274C0.341901 26.3263 0.514477 26.2935 0.675063 26.3389C5.04639 27.5092 9.64094 27.5681 14.0409 26.5104C21.2783 24.846 24.1079 24.9364 30.5083 25.4607C30.7867 25.483 31.0009 25.7159 31 25.9952V30.4656C31 30.7608 30.7607 31.0001 30.4655 31.0001H0.534494C0.239307 31.0001 1.11136e-05 30.7608 1.11136e-05 30.4656V26.853Z" fill="#A56A43"/>
<path d="M30.4655 16.0344C30.7607 16.0344 31 16.2737 31 16.5689V22.785C30.9991 22.9345 30.9356 23.0769 30.8249 23.1774C30.7142 23.278 30.5664 23.3276 30.4174 23.3141C28.2448 23.135 26.0635 22.971 24.0624 22.9827C16.9431 23.0239 13.8431 25.1206 7.5576 25.1206C5.12701 25.1365 2.70709 24.798 0.374148 24.1158C0.150336 24.0454 -0.00141072 23.8373 9.89013e-06 23.6027V16.5689C9.89013e-06 16.2737 0.239306 16.0344 0.534493 16.0344H30.4655Z" fill="#A56A43"/>
<path d="M18.7102 0C18.7102 0 17.972 2.59759 17.9453 17.3707C17.9453 18.4022 16.917 19.2414 15.6518 19.2414C14.4225 19.2414 13.4177 18.4503 13.3643 17.4562V16.7079C13.5706 2.05241 18.7102 0 18.7102 0V0Z" fill="#70462A"/>
<path d="M10.1551 0.53442C10.1551 0.53442 9.71259 1.77282 9.69602 10.6399C9.61863 11.3259 9.00732 11.8245 8.31972 11.7623C7.97697 11.7957 7.63561 11.6863 7.37607 11.4599C7.11654 11.2336 6.96177 10.9102 6.94824 10.5661C7.2716 1.77442 10.1551 0.53442 10.1551 0.53442Z" fill="#A56A43"/>
<path d="M25.6583 0.53442C25.6583 0.53442 25.2153 1.77282 25.1992 10.6399C25.1216 11.326 24.5101 11.8245 23.8224 11.7623C23.4792 11.7963 23.1373 11.6872 22.8772 11.4608C22.6171 11.2344 22.4619 10.9107 22.4482 10.5661C22.7743 1.77442 25.6583 0.53442 25.6583 0.53442Z" fill="#A56A43"/>
<path d="M2.67267 18.7069C2.96785 18.7069 3.20715 18.4676 3.20715 18.1724C3.20715 17.8772 2.96785 17.6379 2.67267 17.6379C2.37748 17.6379 2.13818 17.8772 2.13818 18.1724C2.13818 18.4676 2.37748 18.7069 2.67267 18.7069Z" fill="#A56A43"/>
<path d="M4.81085 18.7069C5.10604 18.7069 5.34533 18.4676 5.34533 18.1724C5.34533 17.8772 5.10604 17.6379 4.81085 17.6379C4.51566 17.6379 4.27637 17.8772 4.27637 18.1724C4.27637 18.4676 4.51566 18.7069 4.81085 18.7069Z" fill="#A56A43"/>
<path d="M6.94854 18.7069C7.24373 18.7069 7.48303 18.4676 7.48303 18.1724C7.48303 17.8772 7.24373 17.6379 6.94854 17.6379C6.65336 17.6379 6.41406 17.8772 6.41406 18.1724C6.41406 18.4676 6.65336 18.7069 6.94854 18.7069Z" fill="#A56A43"/>
<path d="M9.08624 18.7069C9.38143 18.7069 9.62072 18.4676 9.62072 18.1724C9.62072 17.8772 9.38143 17.6379 9.08624 17.6379C8.79105 17.6379 8.55176 17.8772 8.55176 18.1724C8.55176 18.4676 8.79105 18.7069 9.08624 18.7069Z" fill="#A56A43"/>
<path d="M11.2244 18.7069C11.5196 18.7069 11.7589 18.4676 11.7589 18.1724C11.7589 17.8772 11.5196 17.6379 11.2244 17.6379C10.9292 17.6379 10.6899 17.8772 10.6899 18.1724C10.6899 18.4676 10.9292 18.7069 11.2244 18.7069Z" fill="#A56A43"/>
<path d="M10.1556 20.3104C10.4508 20.3104 10.6901 20.0711 10.6901 19.7759C10.6901 19.4807 10.4508 19.2414 10.1556 19.2414C9.86039 19.2414 9.62109 19.4807 9.62109 19.7759C9.62109 20.0711 9.86039 20.3104 10.1556 20.3104Z" fill="#A56A43"/>
<path d="M8.0174 20.3104C8.31258 20.3104 8.55188 20.0711 8.55188 19.7759C8.55188 19.4807 8.31258 19.2414 8.0174 19.2414C7.72221 19.2414 7.48291 19.4807 7.48291 19.7759C7.48291 20.0711 7.72221 20.3104 8.0174 20.3104Z" fill="#A56A43"/>
<path d="M5.8797 20.3104C6.17488 20.3104 6.41418 20.0711 6.41418 19.7759C6.41418 19.4807 6.17488 19.2414 5.8797 19.2414C5.58451 19.2414 5.34521 19.4807 5.34521 19.7759C5.34521 20.0711 5.58451 20.3104 5.8797 20.3104Z" fill="#A56A43"/>
<path d="M3.74151 20.3104C4.0367 20.3104 4.276 20.0711 4.276 19.7759C4.276 19.4807 4.0367 19.2414 3.74151 19.2414C3.44633 19.2414 3.20703 19.4807 3.20703 19.7759C3.20703 20.0711 3.44633 20.3104 3.74151 20.3104Z" fill="#A56A43"/>
<path d="M2.67267 21.9138C2.96785 21.9138 3.20715 21.6745 3.20715 21.3793C3.20715 21.0841 2.96785 20.8448 2.67267 20.8448C2.37748 20.8448 2.13818 21.0841 2.13818 21.3793C2.13818 21.6745 2.37748 21.9138 2.67267 21.9138Z" fill="#A56A43"/>
<path d="M4.81085 21.9138C5.10604 21.9138 5.34533 21.6745 5.34533 21.3793C5.34533 21.0841 5.10604 20.8448 4.81085 20.8448C4.51566 20.8448 4.27637 21.0841 4.27637 21.3793C4.27637 21.6745 4.51566 21.9138 4.81085 21.9138Z" fill="#A56A43"/>
<path d="M6.94854 21.9138C7.24373 21.9138 7.48303 21.6745 7.48303 21.3793C7.48303 21.0841 7.24373 20.8448 6.94854 20.8448C6.65336 20.8448 6.41406 21.0841 6.41406 21.3793C6.41406 21.6745 6.65336 21.9138 6.94854 21.9138Z" fill="#A56A43"/>
<path d="M9.08624 21.9138C9.38143 21.9138 9.62072 21.6745 9.62072 21.3793C9.62072 21.0841 9.38143 20.8448 9.08624 20.8448C8.79105 20.8448 8.55176 21.0841 8.55176 21.3793C8.55176 21.6745 8.79105 21.9138 9.08624 21.9138Z" fill="#A56A43"/>
<path d="M3.74151 23.5172C4.0367 23.5172 4.276 23.278 4.276 22.9828C4.276 22.6876 4.0367 22.4483 3.74151 22.4483C3.44633 22.4483 3.20703 22.6876 3.20703 22.9828C3.20703 23.278 3.44633 23.5172 3.74151 23.5172Z" fill="#A56A43"/>
<path d="M5.8797 23.5172C6.17488 23.5172 6.41418 23.278 6.41418 22.9828C6.41418 22.6876 6.17488 22.4483 5.8797 22.4483C5.58451 22.4483 5.34521 22.6876 5.34521 22.9828C5.34521 23.278 5.58451 23.5172 5.8797 23.5172Z" fill="#A56A43"/>
<path d="M8.0174 23.5172C8.31258 23.5172 8.55188 23.278 8.55188 22.9828C8.55188 22.6876 8.31258 22.4483 8.0174 22.4483C7.72221 22.4483 7.48291 22.6876 7.48291 22.9828C7.48291 23.278 7.72221 23.5172 8.0174 23.5172Z" fill="#A56A43"/>
<path d="M10.1556 23.5172C10.4508 23.5172 10.6901 23.278 10.6901 22.9828C10.6901 22.6876 10.4508 22.4483 10.1556 22.4483C9.86039 22.4483 9.62109 22.6876 9.62109 22.9828C9.62109 23.278 9.86039 23.5172 10.1556 23.5172Z" fill="#A56A43"/>
<path d="M12.2933 23.5172C12.5885 23.5172 12.8278 23.278 12.8278 22.9828C12.8278 22.6876 12.5885 22.4483 12.2933 22.4483C11.9981 22.4483 11.7588 22.6876 11.7588 22.9828C11.7588 23.278 11.9981 23.5172 12.2933 23.5172Z" fill="#A56A43"/>
<path d="M11.2244 21.9138C11.5196 21.9138 11.7589 21.6745 11.7589 21.3793C11.7589 21.0841 11.5196 20.8448 11.2244 20.8448C10.9292 20.8448 10.6899 21.0841 10.6899 21.3793C10.6899 21.6745 10.9292 21.9138 11.2244 21.9138Z" fill="#A56A43"/>
<path d="M12.2933 20.3104C12.5885 20.3104 12.8278 20.0711 12.8278 19.7759C12.8278 19.4807 12.5885 19.2414 12.2933 19.2414C11.9981 19.2414 11.7588 19.4807 11.7588 19.7759C11.7588 20.0711 11.9981 20.3104 12.2933 20.3104Z" fill="#A56A43"/>
<path d="M13.3621 21.9138C13.6573 21.9138 13.8966 21.6745 13.8966 21.3793C13.8966 21.0841 13.6573 20.8448 13.3621 20.8448C13.0669 20.8448 12.8276 21.0841 12.8276 21.3793C12.8276 21.6745 13.0669 21.9138 13.3621 21.9138Z" fill="#A56A43"/>
<path d="M15.5003 21.9138C15.7955 21.9138 16.0348 21.6745 16.0348 21.3793C16.0348 21.0841 15.7955 20.8448 15.5003 20.8448C15.2051 20.8448 14.9658 21.0841 14.9658 21.3793C14.9658 21.6745 15.2051 21.9138 15.5003 21.9138Z" fill="#A56A43"/>
<path d="M17.638 21.9138C17.9332 21.9138 18.1725 21.6745 18.1725 21.3793C18.1725 21.0841 17.9332 20.8448 17.638 20.8448C17.3428 20.8448 17.1035 21.0841 17.1035 21.3793C17.1035 21.6745 17.3428 21.9138 17.638 21.9138Z" fill="#A56A43"/>
<path d="M28.3279 18.7069C28.6231 18.7069 28.8624 18.4676 28.8624 18.1724C28.8624 17.8772 28.6231 17.6379 28.3279 17.6379C28.0328 17.6379 27.7935 17.8772 27.7935 18.1724C27.7935 18.4676 28.0328 18.7069 28.3279 18.7069Z" fill="#A56A43"/>
<path d="M26.1898 18.7069C26.4849 18.7069 26.7242 18.4676 26.7242 18.1724C26.7242 17.8772 26.4849 17.6379 26.1898 17.6379C25.8946 17.6379 25.6553 17.8772 25.6553 18.1724C25.6553 18.4676 25.8946 18.7069 26.1898 18.7069Z" fill="#A56A43"/>
<path d="M24.0521 18.7069C24.3472 18.7069 24.5865 18.4676 24.5865 18.1724C24.5865 17.8772 24.3472 17.6379 24.0521 17.6379C23.7569 17.6379 23.5176 17.8772 23.5176 18.1724C23.5176 18.4676 23.7569 18.7069 24.0521 18.7069Z" fill="#A56A43"/>
<path d="M21.9139 18.7069C22.2091 18.7069 22.4484 18.4676 22.4484 18.1724C22.4484 17.8772 22.2091 17.6379 21.9139 17.6379C21.6187 17.6379 21.3794 17.8772 21.3794 18.1724C21.3794 18.4676 21.6187 18.7069 21.9139 18.7069Z" fill="#A56A43"/>
<path d="M19.7762 18.7069C20.0714 18.7069 20.3107 18.4676 20.3107 18.1724C20.3107 17.8772 20.0714 17.6379 19.7762 17.6379C19.481 17.6379 19.2417 17.8772 19.2417 18.1724C19.2417 18.4676 19.481 18.7069 19.7762 18.7069Z" fill="#A56A43"/>
<path d="M20.845 20.3104C21.1402 20.3104 21.3795 20.0711 21.3795 19.7759C21.3795 19.4807 21.1402 19.2414 20.845 19.2414C20.5498 19.2414 20.3105 19.4807 20.3105 19.7759C20.3105 20.0711 20.5498 20.3104 20.845 20.3104Z" fill="#A56A43"/>
<path d="M22.9832 20.3104C23.2784 20.3104 23.5177 20.0711 23.5177 19.7759C23.5177 19.4807 23.2784 19.2414 22.9832 19.2414C22.688 19.2414 22.4487 19.4807 22.4487 19.7759C22.4487 20.0711 22.688 20.3104 22.9832 20.3104Z" fill="#A56A43"/>
<path d="M25.1209 20.3104C25.4161 20.3104 25.6554 20.0711 25.6554 19.7759C25.6554 19.4807 25.4161 19.2414 25.1209 19.2414C24.8257 19.2414 24.5864 19.4807 24.5864 19.7759C24.5864 20.0711 24.8257 20.3104 25.1209 20.3104Z" fill="#A56A43"/>
<path d="M27.2591 20.3104C27.5543 20.3104 27.7936 20.0711 27.7936 19.7759C27.7936 19.4807 27.5543 19.2414 27.2591 19.2414C26.9639 19.2414 26.7246 19.4807 26.7246 19.7759C26.7246 20.0711 26.9639 20.3104 27.2591 20.3104Z" fill="#A56A43"/>
<path d="M19.7762 21.9138C20.0714 21.9138 20.3107 21.6745 20.3107 21.3793C20.3107 21.0841 20.0714 20.8448 19.7762 20.8448C19.481 20.8448 19.2417 21.0841 19.2417 21.3793C19.2417 21.6745 19.481 21.9138 19.7762 21.9138Z" fill="#A56A43"/>
<path d="M21.9139 21.9138C22.2091 21.9138 22.4484 21.6745 22.4484 21.3793C22.4484 21.0841 22.2091 20.8448 21.9139 20.8448C21.6187 20.8448 21.3794 21.0841 21.3794 21.3793C21.3794 21.6745 21.6187 21.9138 21.9139 21.9138Z" fill="#A56A43"/>
<path d="M24.0521 21.9138C24.3472 21.9138 24.5865 21.6745 24.5865 21.3793C24.5865 21.0841 24.3472 20.8448 24.0521 20.8448C23.7569 20.8448 23.5176 21.0841 23.5176 21.3793C23.5176 21.6745 23.7569 21.9138 24.0521 21.9138Z" fill="#A56A43"/>
<path d="M26.1898 21.9138C26.4849 21.9138 26.7242 21.6745 26.7242 21.3793C26.7242 21.0841 26.4849 20.8448 26.1898 20.8448C25.8946 20.8448 25.6553 21.0841 25.6553 21.3793C25.6553 21.6745 25.8946 21.9138 26.1898 21.9138Z" fill="#A56A43"/>
<path d="M28.3279 21.9138C28.6231 21.9138 28.8624 21.6745 28.8624 21.3793C28.8624 21.0841 28.6231 20.8448 28.3279 20.8448C28.0328 20.8448 27.7935 21.0841 27.7935 21.3793C27.7935 21.6745 28.0328 21.9138 28.3279 21.9138Z" fill="#A56A43"/>
<path d="M18.7073 20.3104C19.0025 20.3104 19.2418 20.0711 19.2418 19.7759C19.2418 19.4807 19.0025 19.2414 18.7073 19.2414C18.4121 19.2414 18.1729 19.4807 18.1729 19.7759C18.1729 20.0711 18.4121 20.3104 18.7073 20.3104Z" fill="#A56A43"/>
<path d="M28.8622 27.7931H27.7933C27.4981 27.7931 27.2588 27.5538 27.2588 27.2586C27.2588 26.9634 27.4981 26.7241 27.7933 26.7241H28.8622C29.1574 26.7241 29.3967 26.9634 29.3967 27.2586C29.3967 27.5538 29.1574 27.7931 28.8622 27.7931Z" fill="#DCB9A2"/>
<path d="M25.6552 27.7931H24.5862C24.2911 27.7931 24.0518 27.5538 24.0518 27.2586C24.0518 26.9634 24.2911 26.7241 24.5862 26.7241H25.6552C25.9504 26.7241 26.1897 26.9634 26.1897 27.2586C26.1897 27.5538 25.9504 27.7931 25.6552 27.7931Z" fill="#DCB9A2"/>
<path d="M22.4487 27.7931H21.3797C21.0845 27.7931 20.8452 27.5538 20.8452 27.2586C20.8452 26.9634 21.0845 26.7241 21.3797 26.7241H22.4487C22.7439 26.7241 22.9831 26.9634 22.9831 27.2586C22.9831 27.5538 22.7439 27.7931 22.4487 27.7931Z" fill="#DCB9A2"/>
<path d="M19.2416 27.7931H18.1727C17.8775 27.7931 17.6382 27.5538 17.6382 27.2586C17.6382 26.9634 17.8775 26.7241 18.1727 26.7241H19.2416C19.5368 26.7241 19.7761 26.9634 19.7761 27.2586C19.7761 27.5538 19.5368 27.7931 19.2416 27.7931Z" fill="#DCB9A2"/>
<path d="M27.2587 29.3965H26.1898C25.8946 29.3965 25.6553 29.1572 25.6553 28.862C25.6553 28.5669 25.8946 28.3276 26.1898 28.3276H27.2587C27.5539 28.3276 27.7932 28.5669 27.7932 28.862C27.7932 29.1572 27.5539 29.3965 27.2587 29.3965Z" fill="#DCB9A2"/>
<path d="M24.0517 29.3965H22.9827C22.6875 29.3965 22.4482 29.1572 22.4482 28.862C22.4482 28.5669 22.6875 28.3276 22.9827 28.3276H24.0517C24.3469 28.3276 24.5862 28.5669 24.5862 28.862C24.5862 29.1572 24.3469 29.3965 24.0517 29.3965Z" fill="#DCB9A2"/>
<path d="M20.8452 29.3965H19.7762C19.481 29.3965 19.2417 29.1572 19.2417 28.862C19.2417 28.5669 19.481 28.3276 19.7762 28.3276H20.8452C21.1403 28.3276 21.3796 28.5669 21.3796 28.862C21.3796 29.1572 21.1403 29.3965 20.8452 29.3965Z" fill="#DCB9A2"/>
<path d="M17.6381 29.3965H16.5692C16.274 29.3965 16.0347 29.1572 16.0347 28.862C16.0347 28.5669 16.274 28.3276 16.5692 28.3276H17.6381C17.9333 28.3276 18.1726 28.5669 18.1726 28.862C18.1726 29.1572 17.9333 29.3965 17.6381 29.3965Z" fill="#DCB9A2"/>
<path d="M14.4311 29.3965H13.3621C13.0669 29.3965 12.8276 29.1572 12.8276 28.862C12.8276 28.5669 13.0669 28.3276 13.3621 28.3276H14.4311C14.7263 28.3276 14.9656 28.5669 14.9656 28.862C14.9656 29.1572 14.7263 29.3965 14.4311 29.3965Z" fill="#DCB9A2"/>
<path d="M11.2241 29.3965H10.1551C9.8599 29.3965 9.62061 29.1572 9.62061 28.862C9.62061 28.5669 9.8599 28.3276 10.1551 28.3276H11.2241C11.5192 28.3276 11.7585 28.5669 11.7585 28.862C11.7585 29.1572 11.5192 29.3965 11.2241 29.3965Z" fill="#DCB9A2"/>
<path d="M8.01751 29.3965H6.94854C6.65336 29.3965 6.41406 29.1572 6.41406 28.862C6.41406 28.5669 6.65336 28.3276 6.94854 28.3276H8.01751C8.31269 28.3276 8.55199 28.5669 8.55199 28.862C8.55199 29.1572 8.31269 29.3965 8.01751 29.3965Z" fill="#DCB9A2"/>
<path d="M4.81048 29.3965H3.74151C3.44633 29.3965 3.20703 29.1572 3.20703 28.862C3.20703 28.5669 3.44633 28.3276 3.74151 28.3276H4.81048C5.10566 28.3276 5.34496 28.5669 5.34496 28.862C5.34496 29.1572 5.10566 29.3965 4.81048 29.3965Z" fill="#DCB9A2"/>
</g>
<defs>
<linearGradient id="paint0_linear_2_2315" x1="15.5" y1="0" x2="15.5" y2="31" gradientUnits="userSpaceOnUse">
<stop stop-color="white"/>
<stop offset="1" stop-color="white" stop-opacity="0"/>
</linearGradient>
<clipPath id="clip0_2_2315">
<rect width="31" height="31" fill="white"/>
</clipPath>
</defs>
</svg>
