<svg width="57" height="58" viewBox="0 0 57 58" fill="none" xmlns="http://www.w3.org/2000/svg">
<g clip-path="url(#clip0_2_4789)">
<path d="M56.9026 1.68389C56.7023 1.19943 56.2298 0.883422 55.7056 0.883301C5.44189 0.883301 0.000976562 21.7194 0.000976562 30.6787C0.000976562 42.3015 8.85157 50.1106 22.0237 50.1106C38.6599 50.1106 42.1447 34.2801 44.0153 25.7741C45.8337 17.1158 50.2275 9.2096 56.6201 3.09331C56.9902 2.72362 57.1017 2.16762 56.9026 1.68389Z" fill="white"/>
<path d="M1.29598 57.8832C0.580528 57.8832 0.000488281 57.3032 0.000488281 56.5877C0.000488281 48.885 13.3566 24.1702 34.4129 13.9673C35.0569 13.6554 35.8317 13.9244 36.1437 14.5683C36.4556 15.2123 36.1866 15.9871 35.5426 16.2991C14.279 26.6032 2.59136 50.5329 2.59136 56.5879C2.59136 57.3033 2.01144 57.8832 1.29598 57.8832Z" fill="#151869"/>
</g>
<defs>
<clipPath id="clip0_2_4789">
<rect width="57" height="57" fill="white" transform="translate(0 0.883301)"/>
</clipPath>
</defs>
</svg>
