<svg width="28" height="28" viewBox="0 0 28 28" fill="none" xmlns="http://www.w3.org/2000/svg">
<path d="M26.2922 20.5932L22.3763 17.6563C23.3553 15.9781 23.7748 14.0201 23.7748 11.9224C23.7748 5.34932 18.4605 0.0349426 11.8874 0.0349426C5.31437 0.0349426 0 5.34932 0 11.9223C0 18.4953 5.31437 23.8097 11.8874 23.8097C13.9852 23.8097 15.8033 23.2503 17.6213 22.4112L20.5582 26.3271C22.0966 28.285 25.0335 28.5647 26.8516 26.7466C28.5298 25.0684 28.3899 22.1315 26.2922 20.5932ZM11.8874 21.0127C6.85275 21.0127 2.79704 16.957 2.79704 11.9224C2.79704 6.88769 6.85275 2.83198 11.8874 2.83198C16.9221 2.83198 20.9778 6.88769 20.9778 11.9223C20.9778 16.9569 16.9221 21.0127 11.8874 21.0127Z" fill="#A56A43"/>
</svg>
