<svg width="26" height="26" viewBox="0 0 26 26" fill="none" xmlns="http://www.w3.org/2000/svg">
<g clip-path="url(#clip0_2_13905)">
<path d="M11.4499 0C5.13657 0 0 5.13657 0 11.4499C0 17.7635 5.13657 22.8997 11.4499 22.8997C17.7635 22.8997 22.8997 17.7635 22.8997 11.4499C22.8997 5.13657 17.7635 0 11.4499 0ZM11.4499 20.7859C6.302 20.7859 2.11382 16.5978 2.11382 11.4499C2.11382 6.30206 6.302 2.11382 11.4499 2.11382C16.5977 2.11382 20.7859 6.302 20.7859 11.4499C20.7859 16.5977 16.5977 20.7859 11.4499 20.7859Z" fill="#151869"/>
<path d="M25.6905 24.1957L19.6308 18.1361C19.2179 17.7232 18.5492 17.7232 18.1363 18.1361C17.7234 18.5486 17.7234 19.218 18.1363 19.6306L24.196 25.6902C24.4024 25.8967 24.6727 25.9999 24.9432 25.9999C25.2134 25.9999 25.484 25.8967 25.6905 25.6902C26.1034 25.2777 26.1034 24.6083 25.6905 24.1957Z" fill="#151869"/>
</g>
<defs>
<clipPath id="clip0_2_13905">
<rect width="26" height="26" fill="white"/>
</clipPath>
</defs>
</svg>
