<svg width="59" height="54" viewBox="0 0 59 54" fill="none" xmlns="http://www.w3.org/2000/svg">
<g clip-path="url(#clip0_2_2170)">
<path d="M38.7166 53.3536C39.5798 53.3536 40.2755 52.7198 40.2755 51.9457V49.1523C36.8596 50.2573 33.2202 50.8407 29.5 50.8407C25.7799 50.8407 22.1342 50.2629 18.7246 49.1523V51.9457C18.7246 52.7254 19.4264 53.3536 20.2835 53.3536H38.7166Z" fill="#6C4B33"/>
<path d="M54.7959 6.58376C52.2744 4.88977 48.7095 5.36095 46.8277 7.6383L35.6113 21.2519H49.8088L55.9635 13.7804C57.8391 11.5031 57.3175 8.28342 54.7959 6.58376Z" fill="#6C4B33"/>
<path d="M19.2711 47.7668C22.4571 48.8045 25.904 49.3654 29.5 49.3654C33.096 49.3654 36.5429 48.8045 39.7289 47.7668C50.2186 44.362 57.9198 35.836 58.9881 25.4084C59.1371 23.9668 57.8702 22.7216 56.2678 22.7216H48.5915H34.4002H2.73219C1.12984 22.7216 -0.137125 23.9668 0.01193 25.4084C1.08016 35.836 8.78134 44.362 19.2711 47.7668Z" fill="#F2C3A1"/>
<path d="M9.66965 13.5723L11.8185 8.84935L17.3336 6.6673L11.7751 4.75461L9.66965 0.16626L7.55803 4.75461L1.99951 6.6673L7.51456 8.84935L9.66965 13.5723Z" fill="#F2C3A1"/>
</g>
<defs>
<clipPath id="clip0_2_2170">
<rect width="59" height="53.2869" fill="white" transform="translate(0 0.116699)"/>
</clipPath>
</defs>
</svg>
