<svg width="59" height="54" viewBox="0 0 59 54" fill="none" xmlns="http://www.w3.org/2000/svg">
<g clip-path="url(#clip0_2_4797)">
<path d="M38.7166 53.2369C39.5798 53.2369 40.2755 52.6031 40.2755 51.829V49.0356C36.8596 50.1406 33.2202 50.724 29.5 50.724C25.7799 50.724 22.1342 50.1462 18.7246 49.0356V51.829C18.7246 52.6087 19.4264 53.2369 20.2835 53.2369H38.7166Z" fill="#151869"/>
<path d="M54.7959 6.46706C52.2744 4.77307 48.7095 5.24425 46.8277 7.5216L35.6113 21.1352H49.8088L55.9635 13.6637C57.8391 11.3864 57.3175 8.16672 54.7959 6.46706Z" fill="#151869"/>
<path d="M19.2711 47.6501C22.4571 48.6878 25.904 49.2487 29.5 49.2487C33.096 49.2487 36.5429 48.6878 39.7289 47.6501C50.2186 44.2453 57.9198 35.7193 58.9881 25.2917C59.1371 23.8501 57.8702 22.6049 56.2678 22.6049H48.5915H34.4002H2.73219C1.12984 22.6049 -0.137125 23.8501 0.01193 25.2917C1.08016 35.7193 8.78134 44.2453 19.2711 47.6501Z" fill="white"/>
<path d="M9.66965 13.4556L11.8185 8.73265L17.3336 6.55061L11.7751 4.63791L9.66965 0.0495605L7.55803 4.63791L1.99951 6.55061L7.51456 8.73265L9.66965 13.4556Z" fill="white"/>
</g>
<defs>
<clipPath id="clip0_2_4797">
<rect width="59" height="53.2869" fill="white"/>
</clipPath>
</defs>
</svg>
