<svg width="26" height="25" viewBox="0 0 26 25" fill="none" xmlns="http://www.w3.org/2000/svg">
<path d="M12.8146 12.0426C14.5352 12.0426 16.0249 11.4492 17.2425 10.2785C18.4597 9.10795 19.077 7.67573 19.077 6.02111C19.077 4.36706 18.4599 2.93464 17.2423 1.76372C16.0247 0.593375 14.535 0 12.8146 0C11.0938 0 9.60428 0.593375 8.38692 1.76391C7.16956 2.93445 6.55225 4.36687 6.55225 6.02111C6.55225 7.67573 7.16956 9.10815 8.38692 10.2787C9.60468 11.449 11.0944 12.0426 12.8146 12.0426ZM9.46443 2.79979C10.3985 1.90162 11.4943 1.46503 12.8146 1.46503C14.1347 1.46503 15.2307 1.90162 16.165 2.79979C17.0991 3.69815 17.5533 4.75196 17.5533 6.02111C17.5533 7.29064 17.0991 8.34425 16.165 9.24261C15.2307 10.141 14.1347 10.5776 12.8146 10.5776C11.4947 10.5776 10.3989 10.1408 9.46443 9.24261C8.53014 8.34444 8.07588 7.29064 8.07588 6.02111C8.07588 4.75196 8.53014 3.69815 9.46443 2.79979Z" fill="white"/>
<path d="M23.7722 19.2237C23.7371 18.7366 23.666 18.2052 23.5615 17.644C23.456 17.0787 23.3201 16.5443 23.1574 16.0558C22.9892 15.5509 22.7609 15.0523 22.4782 14.5746C22.1853 14.0786 21.8409 13.6468 21.4545 13.2915C21.0504 12.9197 20.5557 12.6209 19.9836 12.4028C19.4135 12.186 18.7817 12.0761 18.1059 12.0761C17.8405 12.0761 17.5838 12.1808 17.0881 12.4912C16.783 12.6825 16.4261 12.9037 16.0278 13.1484C15.6872 13.3571 15.2258 13.5526 14.6559 13.7296C14.0999 13.9026 13.5354 13.9903 12.978 13.9903C12.421 13.9903 11.8564 13.9026 11.3 13.7296C10.7307 13.5528 10.2691 13.3573 9.92912 13.1486C9.53458 12.9062 9.17752 12.6849 8.86787 12.491C8.37256 12.1806 8.11588 12.0759 7.85046 12.0759C7.17444 12.0759 6.54285 12.186 5.97295 12.403C5.40126 12.6207 4.90634 12.9195 4.50188 13.2917C4.11546 13.6472 3.7711 14.0788 3.47832 14.5746C3.19604 15.0523 2.96753 15.5507 2.79932 16.056C2.63686 16.5445 2.50098 17.0787 2.39545 17.644C2.29071 18.2044 2.21989 18.736 2.18478 19.2243C2.15027 19.7017 2.13281 20.1985 2.13281 20.7006C2.13281 22.0056 2.56425 23.062 3.41504 23.8412C4.25531 24.61 5.36694 24.9999 6.71919 24.9999H19.2384C20.5902 24.9999 21.7018 24.61 22.5423 23.8412C23.3933 23.0626 23.8247 22.0058 23.8247 20.7004C23.8245 20.1966 23.8069 19.6998 23.7722 19.2237ZM21.4918 22.7798C20.9366 23.2879 20.1994 23.5349 19.2382 23.5349H6.71919C5.75772 23.5349 5.0206 23.2879 4.46558 22.78C3.92107 22.2816 3.65645 21.6012 3.65645 20.7006C3.65645 20.2321 3.67252 19.7696 3.70465 19.3256C3.73599 18.8899 3.80006 18.4114 3.89508 17.9029C3.98891 17.4007 4.10832 16.9294 4.25035 16.5027C4.38663 16.0936 4.57249 15.6884 4.80299 15.2982C5.02298 14.9263 5.27609 14.6072 5.55539 14.3501C5.81664 14.1095 6.14592 13.9127 6.53392 13.7651C6.89276 13.6285 7.29604 13.5537 7.73383 13.5425C7.78719 13.5698 7.8822 13.6218 8.03613 13.7183C8.34935 13.9146 8.71037 14.1385 9.10948 14.3836C9.55937 14.6594 10.139 14.9085 10.8315 15.1235C11.5394 15.3436 12.2615 15.4554 12.9782 15.4554C13.6949 15.4554 14.4171 15.3436 15.1247 15.1237C15.8178 14.9083 16.3972 14.6594 16.8477 14.3832C17.2561 14.1322 17.607 13.9148 17.9202 13.7183C18.0742 13.622 18.1692 13.5698 18.2225 13.5425C18.6605 13.5537 19.0638 13.6285 19.4228 13.7651C19.8106 13.9127 20.1399 14.1097 20.4012 14.3501C20.6805 14.607 20.9336 14.9261 21.1536 15.2984C21.3843 15.6884 21.5703 16.0938 21.7064 16.5025C21.8486 16.9297 21.9682 17.4009 22.0619 17.9027C22.1567 18.4121 22.221 18.8909 22.2523 19.3257V19.3261C22.2846 19.7684 22.3009 20.2308 22.3011 20.7006C22.3009 21.6014 22.0363 22.2816 21.4918 22.7798Z" fill="white"/>
</svg>
