<svg width="28" height="27" viewBox="0 0 28 27" fill="none" xmlns="http://www.w3.org/2000/svg">
<path d="M13.8002 13.006C15.6532 13.006 17.2575 12.3652 18.5687 11.1008C19.8795 9.83659 20.5443 8.28979 20.5443 6.5028C20.5443 4.71642 19.8797 3.16941 18.5685 1.90482C17.2573 0.640845 15.653 0 13.8002 0C11.9471 0 10.343 0.640845 9.03195 1.90503C7.72095 3.16921 7.05615 4.71622 7.05615 6.5028C7.05615 8.28979 7.72095 9.8368 9.03195 11.101C10.3434 12.365 11.9477 13.006 13.8002 13.006ZM10.1924 3.02378C11.1983 2.05375 12.3784 1.58223 13.8002 1.58223C15.2219 1.58223 16.4022 2.05375 17.4083 3.02378C18.4143 3.994 18.9035 5.13212 18.9035 6.5028C18.9035 7.87389 18.4143 9.01179 17.4083 9.98202C16.4022 10.9522 15.2219 11.4238 13.8002 11.4238C12.3788 11.4238 11.1987 10.952 10.1924 9.98202C9.18619 9.012 8.69699 7.87389 8.69699 6.5028C8.69699 5.13212 9.18619 3.994 10.1924 3.02378Z" fill="#151869"/>
<path d="M25.6008 20.7616C25.563 20.2355 25.4865 19.6616 25.3739 19.0556C25.2603 18.445 25.114 17.8678 24.9388 17.3402C24.7576 16.795 24.5117 16.2565 24.2073 15.7405C23.8918 15.2049 23.521 14.7386 23.1048 14.3548C22.6697 13.9533 22.1369 13.6305 21.5208 13.3951C20.9069 13.1609 20.2265 13.0422 19.4987 13.0422C19.2128 13.0422 18.9364 13.1553 18.4026 13.4904C18.074 13.6971 17.6897 13.936 17.2607 14.2003C16.894 14.4256 16.3971 14.6368 15.7833 14.828C15.1845 15.0148 14.5766 15.1095 13.9763 15.1095C13.3764 15.1095 12.7685 15.0148 12.1693 14.828C11.5562 14.637 11.0591 14.4259 10.6929 14.2005C10.268 13.9387 9.88348 13.6997 9.55002 13.4902C9.0166 13.1551 8.74017 13.042 8.45435 13.042C7.72632 13.042 7.04614 13.1609 6.4324 13.3953C5.81674 13.6303 5.28375 13.9531 4.84818 14.355C4.43204 14.739 4.06119 15.2051 3.74588 15.7405C3.44189 16.2565 3.1958 16.7948 3.01465 17.3405C2.83969 17.868 2.69336 18.445 2.57971 19.0556C2.46692 19.6608 2.39066 20.2349 2.35284 20.7622C2.31567 21.2778 2.29688 21.8144 2.29688 22.3566C2.29688 23.766 2.76151 24.907 3.67773 25.7485C4.58264 26.5788 5.77979 26.9999 7.23605 26.9999H20.7182C22.1741 26.9999 23.3712 26.5788 24.2763 25.7485C25.1928 24.9076 25.6574 23.7662 25.6574 22.3564C25.6572 21.8124 25.6382 21.2758 25.6008 20.7616ZM23.145 24.6021C22.5471 25.1509 21.7532 25.4177 20.718 25.4177H7.23605C6.20062 25.4177 5.4068 25.1509 4.80908 24.6023C4.22269 24.0641 3.93771 23.3293 3.93771 22.3566C3.93771 21.8507 3.95502 21.3511 3.98962 20.8716C4.02338 20.4011 4.09238 19.8843 4.1947 19.3351C4.29575 18.7927 4.42435 18.2837 4.5773 17.8229C4.72406 17.381 4.92422 16.9435 5.17245 16.522C5.40936 16.1204 5.68195 15.7757 5.98273 15.4981C6.26407 15.2383 6.61868 15.0257 7.03653 14.8663C7.42297 14.7188 7.85727 14.638 8.32874 14.6259C8.3862 14.6553 8.48853 14.7116 8.6543 14.8158C8.99161 15.0278 9.3804 15.2696 9.81021 15.5343C10.2947 15.8322 10.9189 16.1012 11.6647 16.3334C12.4271 16.5711 13.2047 16.6918 13.9765 16.6918C14.7483 16.6918 15.5261 16.5711 16.2881 16.3336C17.0345 16.101 17.6585 15.8322 18.1436 15.5339C18.5835 15.2628 18.9614 15.028 19.2987 14.8158C19.4645 14.7118 19.5668 14.6553 19.6243 14.6259C20.0959 14.638 20.5302 14.7188 20.9169 14.8663C21.3345 15.0257 21.6891 15.2385 21.9705 15.4981C22.2713 15.7755 22.5439 16.1202 22.7808 16.5222C23.0292 16.9435 23.2296 17.3812 23.3761 17.8227C23.5293 18.2841 23.6581 18.7929 23.7589 19.3349C23.8611 19.8851 23.9303 20.4021 23.964 20.8718V20.8722C23.9988 21.3499 24.0164 21.8492 24.0166 22.3566C24.0164 23.3295 23.7314 24.0641 23.145 24.6021Z" fill="#151869"/>
</svg>
