<?xml version="1.0" encoding="UTF-8"?>
<svg xmlns="http://www.w3.org/2000/svg" xmlns:xlink="http://www.w3.org/1999/xlink" viewBox="0 0 500 500" width="500px" height="500px">
<g id="surface60147155">
<path style=" stroke:none;fill-rule:nonzero;fill:rgb(95.686275%,94.117647%,94.509804%);fill-opacity:1;" d="M 104.269531 10.640625 C 51.226562 10.640625 8.070312 53.796875 8.070312 106.84375 L 8.070312 395.441406 C 8.070312 448.484375 51.226562 491.640625 104.269531 491.640625 L 392.867188 491.640625 C 445.914062 491.640625 489.070312 448.484375 489.070312 395.441406 L 489.070312 106.84375 C 489.070312 53.792969 445.917969 10.640625 392.867188 10.640625 Z M 104.269531 25.441406 L 392.867188 25.441406 C 437.75 25.441406 474.269531 61.960938 474.269531 106.84375 L 474.269531 395.441406 C 474.269531 440.324219 437.75 476.84375 392.867188 476.84375 L 104.269531 476.84375 C 59.386719 476.84375 22.867188 440.324219 22.867188 395.441406 L 22.867188 106.84375 C 22.867188 61.960938 59.386719 25.441406 104.269531 25.441406 Z M 125.269531 47.628906 C 81.046875 47.628906 45.070312 83.605469 45.070312 127.828125 L 45.070312 374.441406 C 45.070312 418.664062 81.046875 454.628906 125.269531 454.628906 L 371.882812 454.628906 C 416.105469 454.628906 452.070312 418.664062 452.070312 374.441406 L 452.070312 236.339844 C 452.070312 234.292969 450.410156 232.640625 448.367188 232.640625 C 446.328125 232.640625 444.667969 234.300781 444.667969 236.339844 L 444.667969 374.441406 C 444.667969 414.578125 412.019531 447.242188 371.882812 447.242188 L 125.269531 447.242188 C 85.132812 447.242188 52.46875 414.578125 52.46875 374.441406 L 52.46875 127.828125 C 52.46875 87.691406 85.132812 55.027344 125.269531 55.027344 L 374.367188 55.027344 C 376.410156 55.027344 378.070312 53.371094 378.070312 51.328125 C 378.070312 49.285156 376.410156 47.628906 374.367188 47.628906 Z M 167.300781 144.144531 C 151.855469 144.144531 140.648438 154.96875 140.648438 169.886719 C 140.648438 184.804688 151.625 195.628906 167.023438 195.628906 C 182.46875 195.628906 193.691406 184.808594 193.691406 169.800781 C 193.320312 154.695312 182.453125 144.144531 167.300781 144.144531 Z M 167.300781 151.546875 C 178.554688 151.546875 186.015625 158.792969 186.289062 169.902344 C 186.296875 180.699219 178.382812 188.242188 166.777344 188.242188 C 155.761719 188.242188 148.046875 180.699219 148.046875 169.902344 C 148.046875 159.097656 155.960938 151.546875 167.300781 151.546875 Z M 448.367188 158.640625 C 446.328125 158.640625 444.667969 160.292969 444.667969 162.34375 L 444.667969 177.140625 C 444.667969 179.183594 446.328125 180.84375 448.367188 180.84375 C 450.410156 180.84375 452.070312 179.183594 452.070312 177.140625 L 452.070312 162.34375 C 452.070312 160.300781 450.410156 158.640625 448.367188 158.640625 Z M 448.367188 188.242188 C 446.328125 188.242188 444.667969 189.898438 444.667969 191.941406 L 444.667969 221.542969 C 444.667969 223.585938 446.328125 225.242188 448.367188 225.242188 C 450.410156 225.242188 452.070312 223.585938 452.070312 221.542969 L 452.070312 191.941406 C 452.070312 189.890625 450.410156 188.242188 448.367188 188.242188 Z M 306.0625 209.53125 C 289.785156 209.628906 276.585938 214.488281 267.054688 224.707031 L 267.054688 214.128906 C 267.054688 212.085938 265.398438 210.425781 263.355469 210.425781 L 218.40625 210.425781 C 217.390625 210.425781 216.421875 210.835938 215.71875 211.570312 C 215.023438 212.300781 214.660156 213.292969 214.707031 214.300781 C 215.304688 227.242188 214.707031 353.441406 214.707031 354.710938 C 214.699219 355.703125 215.085938 356.648438 215.773438 357.34375 C 216.46875 358.039062 217.414062 358.425781 218.390625 358.425781 L 263.371094 358.425781 C 265.410156 358.425781 267.070312 356.769531 267.070312 354.726562 L 267.070312 276.1875 C 267.070312 271.660156 267.503906 268.296875 268.371094 266.171875 C 270.167969 261.734375 275.765625 251.402344 288.964844 251.402344 C 308.707031 251.402344 310.847656 271.433594 310.847656 280.078125 L 311.453125 354.757812 C 311.46875 356.792969 313.128906 358.425781 315.15625 358.425781 L 359.554688 358.425781 C 361.597656 358.425781 363.253906 356.769531 363.253906 354.726562 L 363.253906 279.414062 C 363.253906 254.769531 357.175781 236.203125 345.1875 224.230469 C 335.421875 214.476562 322.261719 209.53125 306.0625 209.53125 Z M 144.96875 210.441406 C 142.925781 210.441406 141.269531 212.097656 141.269531 214.140625 L 141.269531 354.742188 C 141.269531 356.785156 142.925781 358.441406 144.96875 358.441406 L 189.367188 358.441406 C 191.410156 358.441406 193.070312 356.785156 193.070312 354.742188 L 193.070312 214.140625 C 193.070312 212.097656 191.410156 210.441406 189.367188 210.441406 Z M 305.949219 216.945312 L 306.0625 216.945312 C 320.234375 216.945312 331.644531 221.167969 339.972656 229.476562 C 350.515625 240.007812 355.871094 256.804688 355.871094 279.414062 L 355.871094 351.042969 L 318.839844 351.042969 L 318.246094 280.0625 C 318.246094 257.824219 307.035156 244 288.980469 244 C 276.695312 244 266.425781 251.246094 261.519531 263.382812 C 260.277344 266.433594 259.667969 270.617188 259.667969 276.1875 L 259.667969 351.027344 L 222.121094 351.027344 C 222.214844 331.078125 222.585938 240.242188 222.191406 217.839844 L 259.667969 217.839844 L 259.667969 234.882812 C 259.253906 235.925781 259.425781 237.132812 259.988281 238.148438 C 260.644531 239.308594 262.03125 240.042969 263.367188 240.042969 C 264.910156 240.042969 266.226562 238.8125 266.78125 237.339844 C 272.183594 228.460938 282.15625 216.945312 305.949219 216.945312 Z M 148.667969 217.84375 L 185.667969 217.84375 L 185.667969 351.042969 L 148.667969 351.042969 Z M 148.667969 217.84375 "/>
</g>
</svg>
