<?xml version="1.0" encoding="UTF-8"?>
<svg xmlns="http://www.w3.org/2000/svg" xmlns:xlink="http://www.w3.org/1999/xlink" viewBox="0 0 500 500" width="500px" height="500px">
<g id="surface104816413">
<path style=" stroke:none;fill-rule:nonzero;fill:rgb(95.294118%,94.117647%,94.509804%);fill-opacity:1;" d="M 116.179688 12 C 66.003906 12 25.179688 52.824219 25.179688 103 L 25.179688 376 C 25.179688 426.175781 66.003906 467 116.179688 467 L 389.179688 467 C 439.355469 467 480.179688 426.175781 480.179688 376 L 480.179688 103 C 480.179688 52.824219 439.355469 12 389.179688 12 Z M 116.179688 26 L 389.179688 26 C 431.632812 26 466.179688 60.546875 466.179688 103 L 466.179688 376 C 466.179688 418.453125 431.632812 453 389.179688 453 L 116.179688 453 C 73.726562 453 39.179688 418.453125 39.179688 376 L 39.179688 103 C 39.179688 60.546875 73.726562 26 116.179688 26 Z M 136.03125 47 C 94.199219 47 60.179688 81.035156 60.179688 122.863281 L 60.179688 356.132812 C 60.179688 397.964844 94.199219 432 136.03125 432 L 369.3125 432 C 411.144531 432 445.179688 397.964844 445.179688 356.132812 L 445.179688 225.5 C 445.179688 223.566406 443.613281 222 441.679688 222 C 439.746094 222 438.179688 223.566406 438.179688 225.5 L 438.179688 356.132812 C 438.179688 394.101562 407.28125 425 369.3125 425 L 136.03125 425 C 98.0625 425 67.179688 394.101562 67.179688 356.132812 L 67.179688 122.863281 C 67.179688 84.898438 98.0625 54 136.03125 54 L 371.679688 54 C 373.613281 54 375.179688 52.433594 375.179688 50.5 C 375.179688 48.566406 373.613281 47 371.679688 47 Z M 441.679688 152 C 439.746094 152 438.179688 153.566406 438.179688 155.5 L 438.179688 169.5 C 438.179688 171.433594 439.746094 173 441.679688 173 C 443.613281 173 445.179688 171.433594 445.179688 169.5 L 445.179688 155.5 C 445.179688 153.566406 443.613281 152 441.679688 152 Z M 200.550781 153.382812 C 151.128906 153.382812 110.929688 193.59375 110.929688 243.015625 C 110.929688 292.433594 151.128906 332.632812 200.550781 332.632812 C 228.324219 332.632812 250.246094 323.609375 265.722656 305.808594 C 286.191406 282.273438 289.976562 248.886719 286.695312 225.488281 C 286.457031 223.757812 284.964844 222.476562 283.222656 222.476562 L 200.496094 222.476562 C 198.5625 222.476562 196.996094 224.046875 196.996094 225.976562 L 196.996094 260.089844 C 196.996094 261.019531 197.355469 261.921875 198.007812 262.578125 C 198.664062 263.230469 199.5625 263.589844 200.496094 263.589844 C 200.496094 263.589844 226.816406 263.542969 242.070312 263.535156 C 235.566406 280.398438 225.539062 290.648438 200.496094 290.648438 C 174.257812 290.648438 153.695312 269.726562 153.695312 243.015625 C 153.695312 216.300781 174.257812 195.355469 200.496094 195.355469 C 215.425781 195.355469 224.316406 201.015625 231.707031 207.125 C 233.101562 208.273438 235.144531 208.1875 236.410156 206.90625 C 238.902344 204.40625 240.476562 202.636719 242.207031 200.699219 C 245.460938 197.050781 249.144531 192.921875 260.882812 181.832031 C 261.589844 181.167969 261.984375 180.234375 261.976562 179.261719 C 261.96875 178.289062 261.550781 177.363281 260.828125 176.707031 C 244.289062 161.667969 222.871094 153.382812 200.550781 153.382812 Z M 200.5625 160.367188 C 219.890625 160.367188 238.460938 167.097656 253.28125 179.398438 C 243.507812 188.730469 240.0625 192.59375 236.996094 196.035156 C 235.921875 197.25 234.894531 198.386719 233.648438 199.699219 C 225.96875 193.800781 215.9375 188.351562 200.492188 188.351562 C 170.324219 188.359375 146.695312 212.359375 146.695312 243 C 146.695312 273.640625 170.332031 297.644531 200.492188 297.644531 C 227.324219 297.644531 241.773438 287.070312 250.367188 261.128906 C 250.726562 260.066406 250.527344 258.878906 249.875 257.96875 C 249.21875 257.0625 248.167969 256.519531 247.046875 256.519531 C 236.226562 256.519531 212.855469 256.570312 203.992188 256.589844 L 203.992188 229.476562 L 280.144531 229.476562 C 282.492188 251.121094 278.511719 280.4375 260.445312 301.214844 C 246.359375 317.414062 226.21875 325.632812 200.5625 325.632812 C 155 325.632812 117.929688 288.5625 117.929688 243 C 117.929688 197.4375 155 160.367188 200.5625 160.367188 Z M 441.679688 180 C 439.746094 180 438.179688 181.566406 438.179688 183.5 L 438.179688 211.5 C 438.179688 213.433594 439.746094 215 441.679688 215 C 443.613281 215 445.179688 213.433594 445.179688 211.5 L 445.179688 183.5 C 445.179688 181.566406 443.613281 180 441.679688 180 Z M 334.4375 194.273438 C 332.503906 194.273438 330.9375 195.839844 330.9375 197.773438 L 330.9375 224.132812 L 303.769531 224.132812 C 301.839844 224.132812 300.269531 225.699219 300.269531 227.632812 L 300.269531 248.921875 C 300.269531 250.851562 301.839844 252.421875 303.769531 252.421875 L 330.9375 252.421875 L 330.9375 279.585938 C 330.9375 281.519531 332.503906 283.085938 334.4375 283.085938 L 355.710938 283.085938 C 357.644531 283.085938 359.210938 281.519531 359.210938 279.585938 L 359.210938 252.421875 L 385.582031 252.421875 C 387.515625 252.421875 389.082031 250.851562 389.082031 248.921875 L 389.082031 227.632812 C 389.082031 225.699219 387.515625 224.132812 385.582031 224.132812 L 359.210938 224.132812 L 359.210938 197.773438 C 359.210938 195.839844 357.644531 194.273438 355.710938 194.273438 Z M 337.925781 201.273438 L 352.210938 201.273438 L 352.210938 227.632812 C 352.210938 229.566406 353.777344 231.132812 355.710938 231.132812 L 382.070312 231.132812 L 382.070312 245.421875 L 355.710938 245.421875 C 353.777344 245.421875 352.210938 246.988281 352.210938 248.921875 L 352.210938 276.085938 L 337.925781 276.085938 L 337.925781 248.921875 C 337.925781 246.988281 336.355469 245.421875 334.425781 245.421875 L 307.269531 245.421875 L 307.269531 231.132812 L 334.425781 231.132812 C 336.355469 231.132812 337.925781 229.566406 337.925781 227.632812 Z M 337.925781 201.273438 "/>
</g>
</svg>
