<?xml version="1.0" encoding="UTF-8"?>
<svg xmlns="http://www.w3.org/2000/svg" xmlns:xlink="http://www.w3.org/1999/xlink" viewBox="0 0 500 500" width="500px" height="500px">
<g id="surface104828908">
<path style=" stroke:none;fill-rule:nonzero;fill:rgb(95.294118%,94.117647%,94.509804%);fill-opacity:1;" d="M 250 12.398438 C 118.855469 12.398438 12.398438 118.855469 12.398438 250 C 12.398438 381.144531 118.855469 487.601562 250 487.601562 C 381.144531 487.601562 487.601562 381.144531 487.601562 250 C 487.601562 118.855469 381.144531 12.398438 250 12.398438 Z M 250 25.601562 C 374.011719 25.601562 474.398438 125.988281 474.398438 250 C 474.398438 374.011719 374.011719 474.398438 250 474.398438 C 125.988281 474.398438 25.601562 374.011719 25.601562 250 C 25.601562 125.988281 125.988281 25.601562 250 25.601562 Z M 250 45.398438 C 137.039062 45.398438 45.398438 137.039062 45.398438 250 C 45.398438 362.960938 137.039062 454.601562 250 454.601562 C 362.960938 454.601562 454.601562 362.960938 454.601562 250 C 454.601562 189.96875 428.722656 135.929688 387.515625 98.507812 C 386.652344 97.675781 385.398438 97.378906 384.253906 97.734375 C 383.105469 98.089844 382.242188 99.042969 381.996094 100.21875 C 381.753906 101.398438 382.171875 102.613281 383.082031 103.394531 C 422.964844 139.617188 448 191.863281 448 250 C 448 359.394531 359.394531 448 250 448 C 140.605469 448 52 359.394531 52 250 C 52 140.605469 140.605469 52 250 52 C 273.964844 52 296.914062 56.261719 318.164062 64.054688 C 319.273438 64.457031 320.511719 64.242188 321.417969 63.484375 C 322.324219 62.730469 322.753906 61.546875 322.550781 60.386719 C 322.347656 59.222656 321.542969 58.257812 320.433594 57.851562 C 298.46875 49.800781 274.746094 45.398438 250 45.398438 Z M 338.972656 66.128906 C 337.445312 66.164062 336.144531 67.246094 335.824219 68.738281 C 335.503906 70.230469 336.253906 71.75 337.628906 72.40625 C 342.050781 74.59375 346.390625 76.945312 350.625 79.445312 C 351.640625 80.074219 352.917969 80.101562 353.964844 79.519531 C 355.007812 78.941406 355.65625 77.839844 355.660156 76.644531 C 355.664062 75.449219 355.019531 74.34375 353.976562 73.757812 C 349.605469 71.179688 345.136719 68.75 340.570312 66.488281 C 340.074219 66.238281 339.527344 66.113281 338.972656 66.128906 Z M 365.550781 81.777344 C 365.441406 81.777344 365.328125 81.78125 365.214844 81.789062 C 363.816406 81.894531 362.636719 82.871094 362.273438 84.226562 C 361.910156 85.582031 362.445312 87.019531 363.605469 87.808594 C 365.800781 89.351562 367.964844 90.941406 370.089844 92.566406 C 371.027344 93.285156 372.277344 93.449219 373.367188 92.996094 C 374.457031 92.542969 375.222656 91.542969 375.378906 90.375 C 375.53125 89.203125 375.046875 88.039062 374.109375 87.320312 C 371.90625 85.632812 369.660156 83.996094 367.394531 82.410156 C 366.859375 82.019531 366.214844 81.796875 365.550781 81.777344 Z M 344.875 144.398438 C 338.941406 144.398438 333.167969 147.128906 333.15625 147.132812 L 116.351562 234.90625 C 116.035156 235.007812 113.644531 235.820312 111.011719 237.574219 C 108.207031 239.441406 104.800781 242.679688 104.800781 247.539062 C 104.800781 252.726562 107.972656 256.371094 110.769531 258.378906 C 113.5625 260.386719 116.351562 261.203125 116.351562 261.203125 C 116.375 261.207031 116.402344 261.210938 116.425781 261.214844 L 166.597656 274.828125 C 167.117188 276.28125 172.78125 292.121094 179.023438 309.566406 C 182.285156 318.679688 185.566406 327.824219 188.058594 334.78125 C 189.308594 338.257812 190.359375 341.1875 191.117188 343.289062 C 191.496094 344.339844 191.796875 345.1875 192.019531 345.789062 C 192.238281 346.394531 192.277344 346.550781 192.441406 346.949219 C 193.773438 350.199219 194.972656 352.082031 196.128906 353.304688 C 196.707031 353.917969 197.292969 354.355469 197.855469 354.660156 C 197.996094 354.734375 198.125 354.769531 198.257812 354.828125 C 198.277344 354.839844 198.300781 354.851562 198.320312 354.863281 C 198.34375 354.875 198.363281 354.882812 198.386719 354.890625 C 198.480469 354.925781 198.578125 354.980469 198.667969 355.007812 C 198.78125 355.042969 198.84375 355.046875 198.980469 355.070312 C 200.042969 355.453125 201.113281 355.625 202.097656 355.5625 C 205.296875 355.429688 207.539062 353.667969 207.539062 353.667969 C 207.609375 353.609375 207.679688 353.550781 207.746094 353.484375 L 240.433594 323.285156 L 289.859375 365.101562 C 289.859375 365.101562 291.074219 366.191406 292.9375 367.074219 C 294.804688 367.957031 297.53125 368.800781 300.996094 368.800781 C 307.417969 368.800781 311.757812 365.925781 314.054688 363.011719 C 316.347656 360.097656 316.890625 357.019531 316.890625 357.019531 L 316.890625 357.070312 C 316.890625 357.070312 326.433594 307.597656 336.019531 257.902344 C 340.8125 233.054688 345.613281 208.152344 349.230469 189.351562 C 351.042969 179.949219 352.558594 172.066406 353.628906 166.480469 C 354.164062 163.691406 354.585938 161.472656 354.878906 159.921875 C 355.023438 159.144531 355.144531 158.535156 355.226562 158.101562 C 355.308594 157.667969 355.316406 157.699219 355.382812 157.226562 C 355.507812 156.308594 355.601562 155.316406 355.601562 154.300781 C 355.601562 151.359375 354.296875 148.660156 352.261719 146.941406 C 350.226562 145.21875 347.597656 144.398438 344.875 144.398438 Z M 344.875 151 C 346.277344 151 347.363281 151.421875 348.007812 151.964844 C 348.652344 152.511719 349 153.117188 349 154.300781 C 349 154.878906 348.941406 155.617188 348.84375 156.324219 C 348.894531 155.964844 348.808594 156.484375 348.730469 156.902344 C 348.652344 157.324219 348.539062 157.925781 348.394531 158.695312 C 348.101562 160.238281 347.679688 162.453125 347.144531 165.242188 C 346.074219 170.824219 344.570312 178.699219 342.761719 188.097656 C 339.144531 206.902344 334.339844 231.804688 329.546875 256.652344 C 319.960938 306.347656 310.40625 355.820312 310.40625 355.820312 C 310.402344 355.835938 310.398438 355.851562 310.394531 355.871094 C 310.394531 355.871094 310.140625 357.3125 308.871094 358.925781 C 307.601562 360.539062 305.613281 362.199219 300.996094 362.199219 C 298.585938 362.199219 296.867188 361.640625 295.761719 361.117188 C 294.65625 360.59375 294.355469 360.277344 294.355469 360.277344 C 294.320312 360.238281 294.28125 360.199219 294.242188 360.164062 L 214.488281 292.667969 L 312.972656 199.003906 L 312.714844 199.222656 C 314.878906 197.554688 316 195.007812 316 192.480469 C 316 192.476562 316 192.472656 316 192.46875 C 315.988281 190.703125 315.429688 188.898438 314.285156 187.378906 C 312.683594 185.222656 310.1875 184.015625 307.671875 184 L 307.660156 184 C 305.839844 183.992188 304.015625 184.605469 302.503906 185.765625 L 302.773438 185.574219 L 169.125 268.292969 L 170.789062 269.234375 C 170.542969 269.097656 170.285156 268.992188 170.015625 268.921875 L 118.179688 254.859375 L 118.15625 254.847656 C 118.09375 254.828125 116.390625 254.300781 114.621094 253.03125 C 112.824219 251.738281 111.398438 250.128906 111.398438 247.539062 C 111.398438 245.894531 112.734375 244.355469 114.675781 243.066406 C 116.613281 241.773438 118.605469 241.105469 118.605469 241.105469 C 118.679688 241.082031 118.753906 241.054688 118.824219 241.027344 L 335.722656 153.21875 C 335.753906 153.203125 335.78125 153.191406 335.8125 153.179688 C 335.8125 153.179688 341.179688 151 344.875 151 Z M 307.632812 190.601562 C 308.136719 190.601562 308.613281 190.800781 309 191.320312 C 309.003906 191.328125 309.007812 191.332031 309.011719 191.335938 C 309.265625 191.667969 309.394531 192.070312 309.398438 192.496094 C 309.398438 193.078125 309.148438 193.640625 308.679688 194.003906 C 308.589844 194.070312 308.503906 194.144531 308.421875 194.222656 L 207.269531 290.425781 C 206.746094 290.925781 206.402344 291.582031 206.289062 292.292969 L 206.261719 292.292969 L 197.910156 342.683594 C 197.730469 342.1875 197.5625 341.746094 197.316406 341.058594 C 196.5625 338.964844 195.507812 336.027344 194.261719 332.550781 C 191.765625 325.597656 188.5 316.449219 185.238281 307.335938 C 179.164062 290.367188 173.945312 275.789062 173.144531 273.550781 L 306.253906 191.179688 C 306.347656 191.121094 306.4375 191.054688 306.527344 190.988281 C 306.898438 190.699219 307.277344 190.597656 307.632812 190.601562 Z M 211.832031 299.074219 L 235.355469 318.992188 L 203.683594 348.253906 Z M 211.832031 299.074219 "/>
</g>
</svg>
