<svg width="36" height="34" viewBox="0 0 36 34" fill="none" xmlns="http://www.w3.org/2000/svg">
<path d="M15.8772 29.2138C16.4787 29.2138 17.0556 28.9748 17.481 28.5494C17.9064 28.1241 18.1453 27.5472 18.1453 26.9456C18.1453 26.3441 17.9064 25.7672 17.481 25.3418C17.0556 24.9164 16.4787 24.6775 15.8772 24.6775C15.2756 24.6775 14.6987 24.9164 14.2734 25.3418C13.848 25.7672 13.609 26.3441 13.609 26.9456C13.609 27.5472 13.848 28.1241 14.2734 28.5494C14.6987 28.9748 15.2756 29.2138 15.8772 29.2138ZM7.93867 29.2138C8.54022 29.2138 9.11713 28.9748 9.54249 28.5494C9.96785 28.1241 10.2068 27.5472 10.2068 26.9456C10.2068 26.3441 9.96785 25.7672 9.54249 25.3418C9.11713 24.9164 8.54022 24.6775 7.93867 24.6775C7.33712 24.6775 6.76021 24.9164 6.33485 25.3418C5.90949 25.7672 5.67053 26.3441 5.67053 26.9456C5.67053 27.5472 5.90949 28.1241 6.33485 28.5494C6.76021 28.9748 7.33712 29.2138 7.93867 29.2138ZM22.7247 13.2494C23.0078 13.2403 23.2763 13.1214 23.4733 12.9179C23.6704 12.7144 23.7805 12.4423 23.7805 12.159C23.7805 11.8758 23.6704 11.6036 23.4733 11.4001C23.2763 11.1966 23.0078 11.0777 22.7247 11.0686H21.4194C20.3965 11.0686 19.5119 11.7785 19.2896 12.7765L17.8686 19.175C17.6463 20.1729 16.7618 20.8829 15.7388 20.8829H7.21967L5.58434 14.3393H16.1822C16.4627 14.3265 16.7274 14.2061 16.9213 14.0031C17.1153 13.8001 17.2235 13.5302 17.2235 13.2494C17.2235 12.9687 17.1153 12.6988 16.9213 12.4958C16.7274 12.2928 16.4627 12.1724 16.1822 12.1596H5.58434C5.25281 12.1595 4.92562 12.235 4.62765 12.3803C4.32968 12.5256 4.06876 12.737 3.86474 12.9983C3.66072 13.2596 3.51896 13.564 3.45024 13.8884C3.38152 14.2127 3.38765 14.5484 3.46816 14.87L5.10349 21.4113C5.22138 21.8833 5.49371 22.3024 5.87717 22.6018C6.26062 22.9012 6.73317 23.0638 7.21967 23.0637H15.7388C16.7314 23.0638 17.6943 22.7254 18.4685 22.1044C19.2428 21.4833 19.782 20.6168 19.9973 19.6479L21.4194 13.2494H22.7247Z" fill="white"/>
<circle cx="27.2177" cy="8.70968" r="8.70968" fill="white"/>
<path d="M24.8238 10.7025C25.0505 10.5225 25.1538 10.4392 25.1338 10.4525C25.7871 9.91251 26.3005 9.46918 26.6738 9.12251C27.0538 8.77584 27.3738 8.41251 27.6338 8.03251C27.8938 7.65251 28.0238 7.28251 28.0238 6.92251C28.0238 6.64918 27.9605 6.43584 27.8338 6.28251C27.7071 6.12918 27.5171 6.05251 27.2638 6.05251C27.0105 6.05251 26.8105 6.14918 26.6638 6.34251C26.5238 6.52918 26.4538 6.79584 26.4538 7.14251H24.8038C24.8171 6.57584 24.9371 6.10251 25.1638 5.72251C25.3971 5.34251 25.7005 5.06251 26.0738 4.88251C26.4538 4.70251 26.8738 4.61251 27.3338 4.61251C28.1271 4.61251 28.7238 4.81584 29.1238 5.22251C29.5305 5.62918 29.7338 6.15918 29.7338 6.81251C29.7338 7.52584 29.4905 8.18918 29.0038 8.80251C28.5171 9.40918 27.8971 10.0025 27.1438 10.5825H29.8438V11.9725H24.8238V10.7025Z" fill="#0156FF"/>
</svg>
