<svg width="45" height="46" viewBox="0 0 45 46" fill="none" xmlns="http://www.w3.org/2000/svg">
<circle cx="22.5" cy="23.5" r="22.5" fill="#0156FF"/>
<path d="M22.7787 14.5854C18.1721 14.5854 14.4243 18.3602 14.4243 23.0001V26.4863C14.4243 27.3479 15.1737 28.0488 16.0952 28.0488H16.9306C17.1522 28.0488 17.3647 27.9602 17.5214 27.8024C17.6781 27.6446 17.7661 27.4306 17.7661 27.2074V22.8797C17.7661 22.6566 17.6781 22.4425 17.5214 22.2847C17.3647 22.1269 17.1522 22.0383 16.9306 22.0383H16.1721C16.6366 18.7818 19.4186 16.2684 22.7787 16.2684C26.1389 16.2684 28.9209 18.7818 29.3854 22.0383H28.6268C28.4053 22.0383 28.1928 22.1269 28.0361 22.2847C27.8794 22.4425 27.7914 22.6566 27.7914 22.8797V28.0488C27.7914 28.977 27.042 29.7318 26.1205 29.7318H24.4496V28.8903H21.1079V31.4147H26.1205C27.9635 31.4147 29.4623 29.9051 29.4623 28.0488C30.3838 28.0488 31.1332 27.3479 31.1332 26.4863V23.0001C31.1332 18.3602 27.3854 14.5854 22.7787 14.5854Z" fill="white"/>
</svg>
