<svg width="45" height="46" viewBox="0 0 45 46" fill="none" xmlns="http://www.w3.org/2000/svg">
<circle cx="22.5" cy="23.5" r="22.5" fill="#0156FF"/>
<g clip-path="url(#clip0_212_13925)">
<path d="M31.1 15.3584C31.0489 15.2304 30.9508 15.1271 30.826 15.07C30.7013 15.0129 30.5595 15.0065 30.4302 15.0521C30.3008 15.0976 30.1939 15.1916 30.1316 15.3146C30.0694 15.4375 30.0566 15.5799 30.0959 15.7121C30.9134 18.0786 29.2907 19.846 28.0534 20.7926L27.5536 20.0711C27.3855 19.8291 27.0097 19.6279 26.7176 19.6244L23.9121 19.6368C23.5694 19.6472 23.2359 19.7507 22.9468 19.9364L14.68 25.7747C14.4878 25.911 14.3569 26.1185 14.3162 26.3517C14.2754 26.5849 14.3281 26.8249 14.4627 27.0191L18.2194 32.4329C18.501 32.8362 18.9507 32.7875 19.352 32.5056L27.6187 26.6664C27.8563 26.4971 28.1308 26.1319 28.2276 25.8527L29.1059 23.0652C29.2027 22.7869 29.1437 22.3623 28.9756 22.1203L28.6712 21.6807C30.3326 20.3982 32.0574 18.1318 31.1 15.3584ZM27.2535 23.6528C27.1012 23.7602 26.9294 23.8363 26.7479 23.8768C26.5664 23.9172 26.3787 23.9213 26.1957 23.8887C26.0126 23.8561 25.8377 23.7875 25.681 23.6868C25.5243 23.5861 25.3888 23.4553 25.2823 23.3018C25.0666 22.9913 24.9821 22.6073 25.0473 22.234C25.1124 21.8608 25.322 21.5289 25.6299 21.3111C25.8713 21.1408 26.1595 21.0506 26.4542 21.0533C26.7489 21.056 27.0354 21.1514 27.2737 21.3262C27.0344 21.4715 26.8698 21.5566 26.839 21.5699C26.7299 21.6223 26.6417 21.7105 26.5889 21.8199C26.5361 21.9294 26.5217 22.0537 26.5482 22.1725C26.5747 22.2912 26.6404 22.3974 26.7347 22.4736C26.8289 22.5498 26.9461 22.5915 27.0669 22.5919C27.1426 22.5919 27.22 22.5741 27.2931 22.5396C27.4638 22.458 27.6468 22.3614 27.8378 22.2471C27.8817 22.513 27.8502 22.7861 27.7468 23.0348C27.6434 23.2835 27.4724 23.4977 27.2535 23.6528Z" fill="white"/>
</g>
<defs>
<clipPath id="clip0_212_13925">
<rect width="17.6" height="17.7268" fill="white" transform="translate(14.0386 14.9996)"/>
</clipPath>
</defs>
</svg>
